<?xml version="1.0" encoding="UTF-8"?>
<svg xmlns="http://www.w3.org/2000/svg" xmlns:xlink="http://www.w3.org/1999/xlink" width="253px" height="80px" viewBox="0 0 252 80" version="1.1">
<g id="surface1">
<path style=" stroke:none;fill-rule:nonzero;fill:rgb(26.666668%,87.843138%,29.411766%);fill-opacity:1;" d="M 114.410156 11.152344 L 60.25 11.152344 L 60.25 66.414062 L 115.070312 66.414062 L 115.371094 59.230469 L 114.410156 52.5 L 79.839844 52.5 L 79.839844 45.769531 L 104.808594 45.769531 L 104.808594 32.308594 L 79.839844 32.308594 L 79.839844 25.578125 L 114.410156 25.578125 L 115.371094 17.882812 Z M 114.410156 11.152344 "/>
<path style=" stroke:none;fill-rule:nonzero;fill:rgb(26.666668%,87.843138%,29.411766%);fill-opacity:1;" d="M 250.144531 9.855469 L 199.242188 9.855469 C 198.359375 9.855469 197.644531 10.570312 197.644531 11.457031 L 197.644531 24.882812 C 197.644531 25.769531 198.359375 26.488281 199.242188 26.488281 L 222.613281 26.488281 L 198.113281 50.964844 C 197.8125 51.265625 197.644531 51.671875 197.644531 52.097656 L 197.644531 66.464844 C 197.644531 67.347656 198.359375 68.066406 199.242188 68.066406 L 250.144531 68.066406 C 251.027344 68.066406 251.742188 67.347656 251.742188 66.464844 L 251.742188 53.039062 C 251.742188 52.152344 251.027344 51.433594 250.144531 51.433594 L 224.695312 51.433594 L 251.742188 24.40625 L 251.742188 11.457031 C 251.742188 10.570312 251.027344 9.855469 250.144531 9.855469 Z M 250.144531 9.855469 "/>
<path style=" stroke:none;fill-rule:nonzero;fill:rgb(26.666668%,87.843138%,29.411766%);fill-opacity:1;" d="M 185.640625 9.855469 L 128.496094 9.855469 C 127.613281 9.855469 126.894531 10.570312 126.894531 11.457031 L 126.894531 24.882812 C 126.894531 25.769531 127.613281 26.488281 128.496094 26.488281 L 145.625 26.488281 L 145.625 66.464844 C 145.625 67.347656 146.339844 68.066406 147.222656 68.066406 L 166.910156 68.066406 C 167.796875 68.066406 168.511719 67.347656 168.511719 66.464844 L 168.511719 26.488281 L 185.640625 26.488281 C 186.523438 26.488281 187.238281 25.769531 187.238281 24.882812 L 187.238281 11.457031 C 187.238281 10.570312 186.523438 9.855469 185.640625 9.855469 Z M 185.640625 9.855469 "/>
<path style="fill:none;stroke-width:0.78125;stroke-linecap:butt;stroke-linejoin:miter;stroke:rgb(26.666668%,87.843138%,29.411766%);stroke-opacity:1;stroke-miterlimit:4;" d="M 4.55492 2.269922 L 10.141323 5.311084 L 55.335891 5.311084 C 55.896438 5.311084 56.352121 5.764307 56.352121 6.32417 L 56.352121 11.391504 C 56.352121 11.951367 55.896438 12.40459 55.335891 12.40459 L 39.085751 12.40459 L 39.085751 15.445752 L 50.258557 15.445752 C 50.819103 15.445752 51.272879 15.898975 51.272879 16.458838 L 51.272879 21.526172 C 51.272879 22.086035 50.819103 22.541162 50.258557 22.541162 L 39.085751 22.541162 L 39.085751 25.58042 L 55.335891 25.58042 C 55.896438 25.58042 56.352121 26.035547 56.352121 26.59541 L 56.352121 31.662744 C 56.352121 32.222607 55.896438 32.67583 55.335891 32.67583 L 10.141323 32.67583 L 4.55492 36.730078 M 8.108863 8.858789 C 8.108863 9.418652 7.655087 9.871875 7.094541 9.871875 C 6.532087 9.871875 6.078311 9.418652 6.078311 8.858789 C 6.078311 8.298926 6.532087 7.843799 7.094541 7.843799 C 7.655087 7.843799 8.108863 8.298926 8.108863 8.858789 Z M 8.108863 8.858789 L 29.438244 8.858789 M 15.218657 14.939209 C 15.218657 15.499072 14.764881 15.952295 14.202427 15.952295 C 13.641881 15.952295 13.188105 15.499072 13.188105 14.939209 C 13.188105 14.379346 13.641881 13.926123 14.202427 13.926123 C 14.764881 13.926123 15.218657 14.379346 15.218657 14.939209 Z M 15.218657 14.939209 L 29.438244 14.939209 M 20.295991 17.980371 C 20.295991 18.540234 19.842215 18.993457 19.281669 18.993457 C 18.721122 18.993457 18.265439 18.540234 18.265439 17.980371 C 18.265439 17.420508 18.721122 16.965381 19.281669 16.965381 C 19.842215 16.965381 20.295991 17.420508 20.295991 17.980371 Z M 20.295991 17.980371 L 29.438244 17.980371 M 11.155645 27.101953 C 11.155645 27.661816 10.701869 28.115039 10.141323 28.115039 C 9.578869 28.115039 9.125093 27.661816 9.125093 27.101953 C 9.125093 26.54209 9.578869 26.086963 10.141323 26.086963 C 10.701869 26.086963 11.155645 26.54209 11.155645 27.101953 Z M 11.155645 27.101953 L 29.438244 27.101953 M 3.031529 22.034619 C 3.031529 22.592578 2.575846 23.047705 2.015299 23.047705 C 1.454753 23.047705 0.99907 22.592578 0.99907 22.034619 C 0.99907 21.474756 1.454753 21.019629 2.015299 21.019629 C 2.575846 21.019629 3.031529 21.474756 3.031529 22.034619 Z M 3.031529 22.034619 L 7.601702 22.034619 L 11.155645 24.060791 L 29.438244 24.060791 M 29.438244 11.898047 L 10.141323 11.898047 L 4.55492 16.458838 M 29.438244 21.019629 L 13.188105 21.019629 L 10.648484 19.5 M 29.438244 30.141211 L 8.108863 30.141211 L 5.57115 28.621582 M 4.047759 0.750293 C 3.485305 0.750293 3.031529 1.203516 3.031529 1.763379 C 3.031529 2.323242 3.485305 2.776465 4.047759 2.776465 C 4.608305 2.776465 5.062081 2.323242 5.062081 1.763379 C 5.062081 1.203516 4.608305 0.750293 4.047759 0.750293 Z M 5.062081 27.101953 C 4.501535 27.101953 4.047759 27.555176 4.047759 28.115039 C 4.047759 28.674902 4.501535 29.128125 5.062081 29.128125 C 5.622628 29.128125 6.078311 28.674902 6.078311 28.115039 C 6.078311 27.555176 5.622628 27.101953 5.062081 27.101953 Z M 10.141323 17.980371 C 9.578869 17.980371 9.125093 18.433594 9.125093 18.993457 C 9.125093 19.55332 9.578869 20.006543 10.141323 20.006543 C 10.701869 20.006543 11.155645 19.55332 11.155645 18.993457 C 11.155645 18.433594 10.701869 17.980371 10.141323 17.980371 Z M 4.047759 15.952295 C 3.485305 15.952295 3.031529 16.407422 3.031529 16.965381 C 3.031529 17.525244 3.485305 17.980371 4.047759 17.980371 C 4.608305 17.980371 5.062081 17.525244 5.062081 16.965381 C 5.062081 16.407422 4.608305 15.952295 4.047759 15.952295 Z M 4.047759 36.223535 C 3.485305 36.223535 3.031529 36.676758 3.031529 37.236621 C 3.031529 37.796484 3.485305 38.249707 4.047759 38.249707 C 4.608305 38.249707 5.062081 37.796484 5.062081 37.236621 C 5.062081 36.676758 4.608305 36.223535 4.047759 36.223535 Z M 4.047759 36.223535 " transform="matrix(2.04878,0,0,2.051282,0,0)"/>
</g>
</svg>
