<?xml version="1.0" encoding="UTF-8"?>
<svg xmlns="http://www.w3.org/2000/svg" xmlns:xlink="http://www.w3.org/1999/xlink" width="360px" height="80px" viewBox="0 0 360 80" version="1.1">
<defs>
<radialGradient id="radial0" gradientUnits="userSpaceOnUse" cx="0" cy="0" fx="0" fy="0" r="1" gradientTransform="matrix(30.432668,-92.343095,124.486354,41.025828,51.372572,97.990476)">
<stop offset="0" style="stop-color:rgb(58.431373%,26.666667%,89.411765%);stop-opacity:0;"/>
<stop offset="0.713542" style="stop-color:rgb(58.431373%,26.666667%,89.411765%);stop-opacity:1;"/>
<stop offset="1" style="stop-color:rgb(80%,32.156863%,99.215686%);stop-opacity:1;"/>
</radialGradient>
<radialGradient id="radial1" gradientUnits="userSpaceOnUse" cx="0" cy="0" fx="0" fy="0" r="1" gradientTransform="matrix(30.432668,-92.343095,124.486354,41.025828,51.372572,97.990476)">
<stop offset="0" style="stop-color:rgb(58.431373%,26.666667%,89.411765%);stop-opacity:0;"/>
<stop offset="0.713542" style="stop-color:rgb(58.431373%,26.666667%,89.411765%);stop-opacity:1;"/>
<stop offset="1" style="stop-color:rgb(80%,32.156863%,99.215686%);stop-opacity:1;"/>
</radialGradient>
<radialGradient id="radial2" gradientUnits="userSpaceOnUse" cx="0" cy="0" fx="0" fy="0" r="1" gradientTransform="matrix(30.432668,-92.343095,124.486354,41.025828,51.372572,97.990476)">
<stop offset="0" style="stop-color:rgb(58.431373%,26.666667%,89.411765%);stop-opacity:0;"/>
<stop offset="0.713542" style="stop-color:rgb(58.431373%,26.666667%,89.411765%);stop-opacity:1;"/>
<stop offset="1" style="stop-color:rgb(80%,32.156863%,99.215686%);stop-opacity:1;"/>
</radialGradient>
<radialGradient id="radial3" gradientUnits="userSpaceOnUse" cx="0" cy="0" fx="0" fy="0" r="1" gradientTransform="matrix(30.432668,-92.343095,124.486354,41.025828,51.372572,97.990476)">
<stop offset="0" style="stop-color:rgb(58.431373%,26.666667%,89.411765%);stop-opacity:0;"/>
<stop offset="0.713542" style="stop-color:rgb(58.431373%,26.666667%,89.411765%);stop-opacity:1;"/>
<stop offset="1" style="stop-color:rgb(80%,32.156863%,99.215686%);stop-opacity:1;"/>
</radialGradient>
<radialGradient id="radial4" gradientUnits="userSpaceOnUse" cx="0" cy="0" fx="0" fy="0" r="1" gradientTransform="matrix(30.432668,-92.343095,124.486354,41.025828,51.372572,97.990476)">
<stop offset="0" style="stop-color:rgb(58.431373%,26.666667%,89.411765%);stop-opacity:0;"/>
<stop offset="0.713542" style="stop-color:rgb(58.431373%,26.666667%,89.411765%);stop-opacity:1;"/>
<stop offset="1" style="stop-color:rgb(80%,32.156863%,99.215686%);stop-opacity:1;"/>
</radialGradient>
<radialGradient id="radial5" gradientUnits="userSpaceOnUse" cx="0" cy="0" fx="0" fy="0" r="1" gradientTransform="matrix(30.432668,-92.343095,124.486354,41.025828,51.372572,97.990476)">
<stop offset="0" style="stop-color:rgb(58.431373%,26.666667%,89.411765%);stop-opacity:0;"/>
<stop offset="0.713542" style="stop-color:rgb(58.431373%,26.666667%,89.411765%);stop-opacity:1;"/>
<stop offset="1" style="stop-color:rgb(80%,32.156863%,99.215686%);stop-opacity:1;"/>
</radialGradient>
<radialGradient id="radial6" gradientUnits="userSpaceOnUse" cx="0" cy="0" fx="0" fy="0" r="1" gradientTransform="matrix(30.432668,-92.343095,124.486354,41.025828,51.372572,97.990476)">
<stop offset="0" style="stop-color:rgb(58.431373%,26.666667%,89.411765%);stop-opacity:0;"/>
<stop offset="0.713542" style="stop-color:rgb(58.431373%,26.666667%,89.411765%);stop-opacity:1;"/>
<stop offset="1" style="stop-color:rgb(80%,32.156863%,99.215686%);stop-opacity:1;"/>
</radialGradient>
<linearGradient id="linear0" gradientUnits="userSpaceOnUse" x1="72.409897" y1="18.1672" x2="70.605698" y2="49.108898" gradientTransform="matrix(0.952381,0,0,0.952381,0,0)">
<stop offset="0" style="stop-color:rgb(18.823529%,14.901961%,23.921569%);stop-opacity:1;"/>
<stop offset="1" style="stop-color:rgb(18.823529%,14.901961%,23.921569%);stop-opacity:0;"/>
</linearGradient>
<linearGradient id="linear1" gradientUnits="userSpaceOnUse" x1="72.409897" y1="18.1672" x2="70.605698" y2="49.108898" gradientTransform="matrix(0.952381,0,0,0.952381,0,0)">
<stop offset="0" style="stop-color:rgb(18.823529%,14.901961%,23.921569%);stop-opacity:1;"/>
<stop offset="1" style="stop-color:rgb(18.823529%,14.901961%,23.921569%);stop-opacity:0;"/>
</linearGradient>
<linearGradient id="linear2" gradientUnits="userSpaceOnUse" x1="35.749401" y1="16.5982" x2="22.2652" y2="88.586403" gradientTransform="matrix(0.952381,0,0,0.952381,0,0)">
<stop offset="0" style="stop-color:rgb(18.823529%,14.901961%,23.921569%);stop-opacity:1;"/>
<stop offset="1" style="stop-color:rgb(18.823529%,14.901961%,23.921569%);stop-opacity:0;"/>
</linearGradient>
<linearGradient id="linear3" gradientUnits="userSpaceOnUse" x1="35.749401" y1="16.5982" x2="22.2652" y2="88.586403" gradientTransform="matrix(0.952381,0,0,0.952381,0,0)">
<stop offset="0" style="stop-color:rgb(18.823529%,14.901961%,23.921569%);stop-opacity:1;"/>
<stop offset="1" style="stop-color:rgb(18.823529%,14.901961%,23.921569%);stop-opacity:0;"/>
</linearGradient>
</defs>
<g id="surface1">
<path style=" stroke:none;fill-rule:nonzero;fill:rgb(0%,0%,0%);fill-opacity:1;" d="M 67.84375 24.175781 L 59.746094 21.484375 C 59.46875 23.277344 60.027344 27.761719 63.65625 27.761719 C 66.558594 27.761719 67.65625 25.371094 67.84375 24.175781 Z M 67.84375 24.175781 "/>
<path style=" stroke:none;fill-rule:evenodd;fill:url(#radial0);" d="M 58.074219 38.222656 L 105.257812 49.578125 L 105.257812 34.335938 C 105.257812 34.335938 104.761719 30.777344 103.582031 28.957031 C 101.960938 26.457031 97.441406 24.773438 97.441406 24.773438 L 81.246094 18.496094 L 70.636719 8.933594 L 63.378906 8.933594 L 33.503906 0.566406 C 37.972656 4.652344 47.019531 12.820312 47.464844 12.820312 C 47.910156 12.820312 70.171875 18.996094 81.246094 22.082031 L 90.179688 33.738281 Z M 92.972656 30.152344 C 92.972656 30.152344 93.980469 32.835938 94.367188 34.636719 C 94.714844 36.242188 94.925781 38.820312 94.925781 38.820312 L 98.835938 35.832031 C 98.835938 35.832031 98.746094 34.09375 98.277344 33.140625 C 98.09375 32.769531 97.964844 32.570312 97.71875 32.246094 C 96.457031 30.578125 92.972656 30.152344 92.972656 30.152344 Z M 92.972656 30.152344 "/>
<path style=" stroke:none;fill-rule:nonzero;fill:url(#radial1);" d="M 39.925781 25.667969 L 39.925781 36.128906 L 51.929688 50.472656 L 92.132812 58.242188 C 92.132812 58.242188 96.332031 58.636719 98.554688 57.347656 C 100.316406 56.324219 102.1875 53.460938 102.1875 53.460938 L 53.328125 41.808594 Z M 39.925781 25.667969 "/>
<path style=" stroke:none;fill-rule:nonzero;fill:url(#radial2);" d="M 12.003906 64.820312 C 12.003906 62.667969 13.214844 58.84375 13.960938 57.050781 C 16.191406 67.808594 23.078125 73.484375 27.082031 75.578125 L 16.191406 74.082031 C 14.796875 71.890625 12.003906 66.96875 12.003906 64.820312 Z M 12.003906 64.820312 "/>
<path style=" stroke:none;fill-rule:nonzero;fill:url(#radial3);" d="M 44.0625 72.835938 C 44.753906 76.097656 49.273438 79.433594 49.273438 79.433594 C 49.273438 79.433594 48.871094 75.144531 49.546875 72.546875 C 50.292969 69.691406 51.148438 68.082031 53.113281 65.949219 C 54.886719 64.027344 55.941406 63.191406 58.324219 62.21875 C 60.554688 61.308594 64.628906 61.074219 64.628906 61.074219 L 73.679688 60.5 C 73.679688 60.5 67.648438 58.777344 63.808594 58.777344 C 59.96875 58.777344 55.03125 59.035156 52.839844 59.925781 C 49.597656 61.242188 46.835938 62.792969 45.433594 65.089844 C 44.382812 66.808594 43.425781 69.808594 44.0625 72.835938 Z M 44.0625 72.835938 "/>
<path style=" stroke:none;fill-rule:nonzero;fill:url(#radial4);" d="M 0 32.84375 C 3.164062 28.0625 10.886719 19.691406 21.496094 15.210938 C 24.011719 16.40625 25.40625 18.199219 25.40625 18.199219 C 25.40625 18.199219 21.320312 21.113281 18.425781 25.371094 C 13.960938 31.945312 12.84375 37.625 12.84375 37.625 L 6.980469 37.625 L 12.285156 29.554688 C 10.144531 29.457031 4.691406 29.972656 0 32.84375 Z M 0 32.84375 "/>
<path style=" stroke:none;fill-rule:nonzero;fill:url(#radial5);" d="M 5.304688 63.625 C 6.699219 59.140625 10.050781 54.058594 12.5625 50.773438 C 12.5625 50.773438 12.339844 48.410156 12.285156 46.886719 C 12.230469 45.371094 12.285156 43.003906 12.285156 43.003906 L 5.023438 42.703125 C 4.46875 45.890625 3.742188 54.539062 5.304688 63.625 Z M 5.304688 63.625 "/>
<path style=" stroke:none;fill-rule:nonzero;fill:url(#radial6);" d="M 11.445312 5.648438 C 18.332031 4.652344 32.386719 5.050781 40.480469 12.222656 C 39.890625 12.402344 39.171875 12.554688 38.347656 12.730469 C 36.449219 13.136719 33.996094 13.660156 31.269531 14.910156 C 27.140625 13.253906 24.5625 11.851562 22.074219 10.5 C 19.175781 8.925781 16.402344 7.414062 11.445312 5.648438 Z M 11.445312 5.648438 "/>
<path style=" stroke:none;fill-rule:nonzero;fill:url(#linear0);" d="M 63.9375 17.300781 L 67.566406 21.1875 L 71.195312 22.382812 L 73.988281 25.667969 L 87.667969 30.453125 L 81.246094 22.082031 Z M 63.9375 17.300781 "/>
<path style=" stroke:none;fill-rule:nonzero;fill:url(#linear1);" d="M 53.046875 20.589844 L 50.253906 29.855469 L 58.351562 38.222656 L 62.539062 37.625 L 63.9375 34.039062 L 67.285156 34.039062 L 70.355469 29.855469 C 65.796875 31.546875 56.675781 31.40625 56.675781 20.886719 C 55.660156 20.625 54.164062 20.589844 53.046875 20.589844 Z M 53.046875 20.589844 "/>
<path style=" stroke:none;fill-rule:nonzero;fill:url(#linear2);" d="M 48.023438 20.289062 C 38.53125 20.289062 22.394531 25.3125 23.734375 51.371094 L 39.367188 51.371094 C 37.136719 52.367188 32.613281 56.273438 32.386719 63.921875 C 30.15625 63.203125 29.410156 61.234375 29.316406 60.335938 L 22.894531 60.335938 C 18.988281 48.082031 14.519531 18.796875 44.113281 15.808594 C 45.175781 17.085938 46.15625 18.179688 46.898438 19.003906 C 47.402344 19.570312 47.796875 20.007812 48.023438 20.289062 Z M 48.023438 20.289062 "/>
<path style=" stroke:none;fill-rule:nonzero;fill:url(#linear3);" d="M 36.855469 66.015625 L 36.855469 63.027344 L 41.601562 59.738281 C 42.105469 59.738281 42.71875 59.980469 43.394531 60.246094 C 44.226562 60.570312 45.148438 60.933594 46.070312 60.933594 C 44.675781 61.53125 43.921875 61.96875 43.277344 63.027344 C 42.910156 63.628906 42.691406 64.371094 42.507812 65 C 42.390625 65.410156 42.285156 65.773438 42.160156 66.015625 Z M 36.855469 66.015625 "/>
<path style=" stroke:none;fill-rule:nonzero;fill:rgb(0%,0%,0%);fill-opacity:1;" d="M 142.949219 17.796875 C 146.296875 17.796875 149.191406 18.246094 151.636719 19.140625 C 154.125 20.039062 156.378906 21.402344 158.394531 23.238281 L 153.503906 28.675781 C 150.457031 26.3125 147.195312 25.132812 143.722656 25.132812 C 141.875 25.132812 140.417969 25.5 139.34375 26.230469 C 138.273438 26.925781 137.734375 27.941406 137.734375 29.289062 C 137.734375 30.226562 137.972656 31 138.445312 31.609375 C 138.917969 32.179688 139.753906 32.730469 140.953125 33.261719 C 142.15625 33.789062 143.957031 34.421875 146.359375 35.15625 C 150.90625 36.539062 154.253906 38.25 156.398438 40.289062 C 158.542969 42.285156 159.617188 45.136719 159.617188 48.84375 C 159.617188 51.492188 158.910156 53.835938 157.492188 55.871094 C 156.078125 57.867188 154.039062 59.4375 151.378906 60.578125 C 148.71875 61.679688 145.566406 62.226562 141.917969 62.226562 C 138.273438 62.226562 135.035156 61.679688 132.203125 60.578125 C 129.414062 59.476562 127.011719 58.011719 124.996094 56.179688 L 130.335938 50.617188 C 132.050781 52 133.808594 53.039062 135.613281 53.734375 C 137.457031 54.425781 139.453125 54.773438 141.597656 54.773438 C 143.785156 54.773438 145.5 54.324219 146.746094 53.429688 C 148.03125 52.492188 148.675781 51.207031 148.675781 49.578125 C 148.675781 48.519531 148.441406 47.640625 147.96875 46.949219 C 147.496094 46.214844 146.679688 45.566406 145.523438 44.992188 C 144.363281 44.421875 142.691406 43.8125 140.503906 43.160156 C 135.570312 41.734375 132.050781 39.984375 129.949219 37.90625 C 127.890625 35.828125 126.859375 33.199219 126.859375 30.019531 C 126.859375 27.578125 127.546875 25.4375 128.917969 23.605469 C 130.292969 21.730469 132.203125 20.304688 134.648438 19.324219 C 137.09375 18.308594 139.859375 17.796875 142.949219 17.796875 Z M 142.949219 17.796875 "/>
<path style=" stroke:none;fill-rule:nonzero;fill:rgb(0%,0%,0%);fill-opacity:1;" d="M 207.835938 28.738281 L 200.753906 61.191406 L 188.59375 61.191406 L 184.023438 37.355469 L 179.519531 61.191406 L 167.484375 61.191406 L 160.210938 28.738281 L 170.507812 28.738281 L 174.046875 53.976562 L 179.390625 28.738281 L 189.300781 28.738281 L 194 53.976562 L 198.117188 28.738281 Z M 207.835938 28.738281 "/>
<path style=" stroke:none;fill-rule:nonzero;fill:rgb(0%,0%,0%);fill-opacity:1;" d="M 237.136719 51.777344 C 237.136719 53 237.308594 53.894531 237.652344 54.46875 C 238.039062 55.039062 238.640625 55.464844 239.453125 55.75 L 237.332031 62.046875 C 235.230469 61.882812 233.511719 61.453125 232.183594 60.761719 C 230.851562 60.027344 229.824219 58.886719 229.09375 57.339844 C 226.863281 60.597656 223.429688 62.226562 218.796875 62.226562 C 215.40625 62.226562 212.703125 61.292969 210.6875 59.417969 C 208.671875 57.542969 207.664062 55.097656 207.664062 52.082031 C 207.664062 48.539062 209.035156 45.828125 211.78125 43.957031 C 214.527344 42.082031 218.496094 41.144531 223.6875 41.144531 L 227.164062 41.144531 L 227.164062 39.738281 C 227.164062 37.824219 226.734375 36.519531 225.875 35.828125 C 225.015625 35.09375 223.515625 34.726562 221.371094 34.726562 C 220.253906 34.726562 218.902344 34.890625 217.316406 35.214844 C 215.730469 35.5 214.097656 35.910156 212.425781 36.4375 L 210.109375 30.082031 C 212.253906 29.308594 214.441406 28.71875 216.671875 28.308594 C 218.945312 27.902344 221.050781 27.699219 222.980469 27.699219 C 227.871094 27.699219 231.453125 28.65625 233.726562 30.570312 C 236 32.484375 237.136719 35.359375 237.136719 39.1875 Z M 221.757812 55.324219 C 224.074219 55.324219 225.875 54.285156 227.164062 52.207031 L 227.164062 46.460938 L 224.652344 46.460938 C 222.335938 46.460938 220.597656 46.847656 219.441406 47.621094 C 218.324219 48.394531 217.765625 49.597656 217.765625 51.226562 C 217.765625 52.53125 218.109375 53.550781 218.796875 54.285156 C 219.527344 54.976562 220.511719 55.324219 221.757812 55.324219 Z M 221.757812 55.324219 "/>
<path style=" stroke:none;fill-rule:nonzero;fill:rgb(0%,0%,0%);fill-opacity:1;" d="M 263.253906 27.699219 C 267.546875 27.699219 270.742188 29.207031 272.84375 32.222656 C 274.945312 35.234375 275.996094 39.453125 275.996094 44.871094 C 275.996094 48.210938 275.441406 51.207031 274.324219 53.855469 C 273.25 56.464844 271.6875 58.519531 269.625 60.027344 C 267.566406 61.496094 265.164062 62.226562 262.417969 62.226562 C 258.988281 62.226562 256.21875 61.109375 254.117188 58.867188 L 254.117188 73.71875 L 243.949219 74.757812 L 243.949219 28.738281 L 252.894531 28.738281 L 253.410156 32.34375 C 254.738281 30.753906 256.261719 29.59375 257.976562 28.859375 C 259.695312 28.085938 261.453125 27.699219 263.253906 27.699219 Z M 259.328125 55.140625 C 263.40625 55.140625 265.445312 51.757812 265.445312 44.992188 C 265.445312 41.164062 264.992188 38.515625 264.09375 37.050781 C 263.191406 35.542969 261.839844 34.789062 260.039062 34.789062 C 258.878906 34.789062 257.785156 35.113281 256.757812 35.765625 C 255.769531 36.417969 254.890625 37.355469 254.117188 38.578125 L 254.117188 52.265625 C 255.492188 54.183594 257.226562 55.140625 259.328125 55.140625 Z M 259.328125 55.140625 "/>
<path style=" stroke:none;fill-rule:nonzero;fill:rgb(0%,0%,0%);fill-opacity:1;" d="M 302.492188 59.660156 C 301.246094 60.476562 299.789062 61.109375 298.113281 61.554688 C 296.484375 62.003906 294.855469 62.226562 293.222656 62.226562 C 285.757812 62.1875 282.027344 58.277344 282.027344 50.496094 L 282.027344 35.460938 L 277.199219 35.460938 L 277.199219 28.738281 L 282.027344 28.738281 L 282.027344 21.710938 L 292.195312 20.609375 L 292.195312 28.738281 L 300.042969 28.738281 L 298.953125 35.460938 L 292.195312 35.460938 L 292.195312 50.371094 C 292.195312 51.878906 292.453125 52.960938 292.964844 53.609375 C 293.480469 54.261719 294.296875 54.589844 295.410156 54.589844 C 296.570312 54.589844 297.792969 54.242188 299.078125 53.550781 Z M 302.492188 59.660156 "/>
<path style=" stroke:none;fill-rule:nonzero;fill:rgb(0%,0%,0%);fill-opacity:1;" d="M 333.261719 44.320312 C 333.261719 45.667969 333.199219 46.828125 333.070312 47.804688 L 311.894531 47.804688 C 312.238281 50.535156 313.054688 52.449219 314.34375 53.550781 C 315.628906 54.648438 317.410156 55.199219 319.683594 55.199219 C 321.054688 55.199219 322.386719 54.976562 323.671875 54.527344 C 324.960938 54.039062 326.355469 53.304688 327.855469 52.328125 L 332.039062 57.707031 C 328.050781 60.722656 323.609375 62.226562 318.71875 62.226562 C 313.183594 62.226562 308.9375 60.679688 305.976562 57.582031 C 303.015625 54.488281 301.535156 50.332031 301.535156 45.117188 C 301.535156 41.816406 302.15625 38.863281 303.402344 36.253906 C 304.644531 33.605469 306.46875 31.527344 308.871094 30.019531 C 311.273438 28.472656 314.148438 27.699219 317.496094 27.699219 C 322.429688 27.699219 326.289062 29.164062 329.078125 32.097656 C 331.867188 35.03125 333.261719 39.105469 333.261719 44.320312 Z M 323.289062 41.570312 C 323.199219 36.601562 321.355469 34.117188 317.753906 34.117188 C 315.996094 34.117188 314.621094 34.726562 313.632812 35.949219 C 312.691406 37.171875 312.113281 39.1875 311.894531 42 L 323.289062 42 Z M 323.289062 41.570312 "/>
<path style=" stroke:none;fill-rule:nonzero;fill:rgb(0%,0%,0%);fill-opacity:1;" d="M 356.222656 27.820312 C 357.464844 27.820312 358.601562 27.964844 359.632812 28.25 L 358.023438 37.597656 C 356.734375 37.3125 355.707031 37.171875 354.933594 37.171875 C 352.917969 37.171875 351.371094 37.84375 350.300781 39.1875 C 349.269531 40.492188 348.457031 42.46875 347.855469 45.117188 L 347.855469 61.191406 L 337.6875 61.191406 L 337.6875 28.738281 L 346.566406 28.738281 L 347.402344 35.03125 C 348.175781 32.792969 349.335938 31.039062 350.878906 29.777344 C 352.464844 28.472656 354.246094 27.820312 356.222656 27.820312 Z M 356.222656 27.820312 "/>
</g>
</svg>
