<?xml version="1.0" encoding="UTF-8"?>
<svg xmlns="http://www.w3.org/2000/svg" xmlns:xlink="http://www.w3.org/1999/xlink" width="171px" height="128px" viewBox="0 0 170 128" version="1.1">
<defs>
<radialGradient id="radial0" gradientUnits="userSpaceOnUse" cx="0" cy="0" fx="0" fy="0" r="1" gradientTransform="matrix(48.812583,-148.925756,199.670934,66.164356,82.898328,157.637168)">
<stop offset="0" style="stop-color:rgb(58.431373%,26.666667%,89.411765%);stop-opacity:0;"/>
<stop offset="0.713542" style="stop-color:rgb(58.431373%,26.666667%,89.411765%);stop-opacity:1;"/>
<stop offset="1" style="stop-color:rgb(80%,32.156863%,99.215686%);stop-opacity:1;"/>
</radialGradient>
<radialGradient id="radial1" gradientUnits="userSpaceOnUse" cx="0" cy="0" fx="0" fy="0" r="1" gradientTransform="matrix(48.812583,-148.925756,199.670934,66.164356,82.898328,157.637168)">
<stop offset="0" style="stop-color:rgb(58.431373%,26.666667%,89.411765%);stop-opacity:0;"/>
<stop offset="0.713542" style="stop-color:rgb(58.431373%,26.666667%,89.411765%);stop-opacity:1;"/>
<stop offset="1" style="stop-color:rgb(80%,32.156863%,99.215686%);stop-opacity:1;"/>
</radialGradient>
<radialGradient id="radial2" gradientUnits="userSpaceOnUse" cx="0" cy="0" fx="0" fy="0" r="1" gradientTransform="matrix(48.812583,-148.925756,199.670934,66.164356,82.898328,157.637168)">
<stop offset="0" style="stop-color:rgb(58.431373%,26.666667%,89.411765%);stop-opacity:0;"/>
<stop offset="0.713542" style="stop-color:rgb(58.431373%,26.666667%,89.411765%);stop-opacity:1;"/>
<stop offset="1" style="stop-color:rgb(80%,32.156863%,99.215686%);stop-opacity:1;"/>
</radialGradient>
<radialGradient id="radial3" gradientUnits="userSpaceOnUse" cx="0" cy="0" fx="0" fy="0" r="1" gradientTransform="matrix(48.812583,-148.925756,199.670934,66.164356,82.898328,157.637168)">
<stop offset="0" style="stop-color:rgb(58.431373%,26.666667%,89.411765%);stop-opacity:0;"/>
<stop offset="0.713542" style="stop-color:rgb(58.431373%,26.666667%,89.411765%);stop-opacity:1;"/>
<stop offset="1" style="stop-color:rgb(80%,32.156863%,99.215686%);stop-opacity:1;"/>
</radialGradient>
<radialGradient id="radial4" gradientUnits="userSpaceOnUse" cx="0" cy="0" fx="0" fy="0" r="1" gradientTransform="matrix(48.812583,-148.925756,199.670934,66.164356,82.898328,157.637168)">
<stop offset="0" style="stop-color:rgb(58.431373%,26.666667%,89.411765%);stop-opacity:0;"/>
<stop offset="0.713542" style="stop-color:rgb(58.431373%,26.666667%,89.411765%);stop-opacity:1;"/>
<stop offset="1" style="stop-color:rgb(80%,32.156863%,99.215686%);stop-opacity:1;"/>
</radialGradient>
<radialGradient id="radial5" gradientUnits="userSpaceOnUse" cx="0" cy="0" fx="0" fy="0" r="1" gradientTransform="matrix(48.812583,-148.925756,199.670934,66.164356,82.898328,157.637168)">
<stop offset="0" style="stop-color:rgb(58.431373%,26.666667%,89.411765%);stop-opacity:0;"/>
<stop offset="0.713542" style="stop-color:rgb(58.431373%,26.666667%,89.411765%);stop-opacity:1;"/>
<stop offset="1" style="stop-color:rgb(80%,32.156863%,99.215686%);stop-opacity:1;"/>
</radialGradient>
<radialGradient id="radial6" gradientUnits="userSpaceOnUse" cx="0" cy="0" fx="0" fy="0" r="1" gradientTransform="matrix(48.812583,-148.925756,199.670934,66.164356,82.898328,157.637168)">
<stop offset="0" style="stop-color:rgb(58.431373%,26.666667%,89.411765%);stop-opacity:0;"/>
<stop offset="0.713542" style="stop-color:rgb(58.431373%,26.666667%,89.411765%);stop-opacity:1;"/>
<stop offset="1" style="stop-color:rgb(80%,32.156863%,99.215686%);stop-opacity:1;"/>
</radialGradient>
<linearGradient id="linear0" gradientUnits="userSpaceOnUse" x1="140.520996" y1="34.599602" x2="137.035004" y2="94.377098" gradientTransform="matrix(0.790698,0,0,0.795031,0,0)">
<stop offset="0" style="stop-color:rgb(18.823529%,14.901961%,23.921569%);stop-opacity:1;"/>
<stop offset="1" style="stop-color:rgb(18.823529%,14.901961%,23.921569%);stop-opacity:0;"/>
</linearGradient>
<linearGradient id="linear1" gradientUnits="userSpaceOnUse" x1="140.520996" y1="34.599602" x2="137.035004" y2="94.377098" gradientTransform="matrix(0.790698,0,0,0.795031,0,0)">
<stop offset="0" style="stop-color:rgb(18.823529%,14.901961%,23.921569%);stop-opacity:1;"/>
<stop offset="1" style="stop-color:rgb(18.823529%,14.901961%,23.921569%);stop-opacity:0;"/>
</linearGradient>
<linearGradient id="linear2" gradientUnits="userSpaceOnUse" x1="69.694199" y1="31.568501" x2="43.6437" y2="170.645004" gradientTransform="matrix(0.790698,0,0,0.795031,0,0)">
<stop offset="0" style="stop-color:rgb(18.823529%,14.901961%,23.921569%);stop-opacity:1;"/>
<stop offset="1" style="stop-color:rgb(18.823529%,14.901961%,23.921569%);stop-opacity:0;"/>
</linearGradient>
<linearGradient id="linear3" gradientUnits="userSpaceOnUse" x1="69.694199" y1="31.568501" x2="43.6437" y2="170.645004" gradientTransform="matrix(0.790698,0,0,0.795031,0,0)">
<stop offset="0" style="stop-color:rgb(18.823529%,14.901961%,23.921569%);stop-opacity:1;"/>
<stop offset="1" style="stop-color:rgb(18.823529%,14.901961%,23.921569%);stop-opacity:0;"/>
</linearGradient>
</defs>
<g id="surface1">
<path style=" stroke:none;fill-rule:nonzero;fill:rgb(0%,0%,0%);fill-opacity:1;" d="M 109.316406 38.59375 L 96.328125 34.253906 C 95.882812 37.148438 96.777344 44.375 102.597656 44.375 C 107.257812 44.375 109.015625 40.519531 109.316406 38.59375 Z M 109.316406 38.59375 "/>
<path style=" stroke:none;fill-rule:evenodd;fill:url(#radial0);" d="M 93.648438 61.246094 L 169.328125 79.558594 L 169.328125 54.980469 C 169.328125 54.980469 168.535156 49.238281 166.640625 46.304688 C 164.039062 42.273438 156.789062 39.558594 156.789062 39.558594 L 130.816406 29.4375 L 113.800781 14.011719 L 102.15625 14.011719 L 54.238281 0.519531 C 61.40625 7.105469 75.914062 20.277344 76.628906 20.277344 C 77.347656 20.277344 113.054688 30.238281 130.816406 35.21875 L 145.144531 54.015625 Z M 149.621094 48.234375 C 149.621094 48.234375 151.238281 52.5625 151.863281 55.460938 C 152.417969 58.054688 152.757812 62.210938 152.757812 62.210938 L 159.027344 57.390625 C 159.027344 57.390625 158.882812 54.585938 158.132812 53.050781 C 157.835938 52.453125 157.632812 52.132812 157.234375 51.605469 C 155.210938 48.917969 149.621094 48.234375 149.621094 48.234375 Z M 149.621094 48.234375 "/>
<path style=" stroke:none;fill-rule:nonzero;fill:url(#radial1);" d="M 64.539062 41.003906 L 64.539062 57.871094 L 83.792969 81.003906 L 148.277344 93.535156 C 148.277344 93.535156 155.011719 94.171875 158.578125 92.089844 C 161.40625 90.441406 164.398438 85.824219 164.398438 85.824219 L 86.03125 67.027344 Z M 64.539062 41.003906 "/>
<path style=" stroke:none;fill-rule:nonzero;fill:url(#radial2);" d="M 19.753906 104.140625 C 19.753906 100.671875 21.695312 94.5 22.886719 91.609375 C 26.472656 108.960938 37.515625 118.117188 43.9375 121.492188 L 26.472656 119.082031 C 24.230469 115.546875 19.753906 107.609375 19.753906 104.140625 Z M 19.753906 104.140625 "/>
<path style=" stroke:none;fill-rule:nonzero;fill:url(#radial3);" d="M 71.175781 117.066406 C 72.28125 122.332031 79.53125 127.710938 79.53125 127.710938 C 79.53125 127.710938 78.882812 120.792969 79.972656 116.605469 C 81.167969 112 82.539062 109.402344 85.691406 105.964844 C 88.53125 102.859375 90.230469 101.515625 94.046875 99.949219 C 97.625 98.480469 104.164062 98.097656 104.164062 98.097656 L 118.679688 97.171875 C 118.679688 97.171875 109.003906 94.398438 102.84375 94.398438 C 96.6875 94.398438 88.769531 94.8125 85.25 96.25 C 80.054688 98.371094 75.621094 100.875 73.375 104.574219 C 71.6875 107.351562 70.148438 112.1875 71.175781 117.066406 Z M 71.175781 117.066406 "/>
<path style=" stroke:none;fill-rule:nonzero;fill:url(#radial4);" d="M 0.5 52.570312 C 5.574219 44.859375 17.964844 31.363281 34.980469 24.132812 C 39.011719 26.0625 41.25 28.953125 41.25 28.953125 C 41.25 28.953125 34.695312 33.652344 30.054688 40.519531 C 22.890625 51.125 21.097656 60.28125 21.097656 60.28125 L 11.695312 60.28125 L 20.203125 47.269531 C 16.769531 47.109375 8.023438 47.941406 0.5 52.570312 Z M 0.5 52.570312 "/>
<path style=" stroke:none;fill-rule:nonzero;fill:url(#radial5);" d="M 9.007812 102.210938 C 11.246094 94.984375 16.621094 86.789062 20.648438 81.488281 C 20.648438 81.488281 20.289062 77.675781 20.203125 75.222656 C 20.117188 72.777344 20.203125 68.957031 20.203125 68.957031 L 8.558594 68.476562 C 7.664062 73.617188 6.5 87.5625 9.007812 102.210938 Z M 9.007812 102.210938 "/>
<path style=" stroke:none;fill-rule:nonzero;fill:url(#radial6);" d="M 18.859375 8.710938 C 29.902344 7.105469 52.445312 7.746094 65.429688 19.316406 C 64.480469 19.605469 63.328125 19.855469 62.007812 20.136719 C 58.960938 20.792969 55.023438 21.636719 50.652344 23.652344 C 44.03125 20.980469 39.894531 18.71875 35.902344 16.535156 C 31.257812 13.996094 26.804688 11.5625 18.859375 8.710938 Z M 18.859375 8.710938 "/>
<path style=" stroke:none;fill-rule:nonzero;fill:url(#linear0);" d="M 103.050781 27.507812 L 108.871094 33.773438 L 114.691406 35.703125 L 119.171875 41.003906 L 141.113281 48.714844 L 130.816406 35.21875 Z M 103.050781 27.507812 "/>
<path style=" stroke:none;fill-rule:nonzero;fill:url(#linear1);" d="M 85.582031 32.808594 L 81.105469 47.75 L 94.089844 61.246094 L 100.808594 60.28125 L 103.046875 54.496094 L 108.421875 54.496094 L 113.347656 47.75 C 106.035156 50.480469 91.40625 50.257812 91.40625 33.292969 C 89.773438 32.867188 87.375 32.808594 85.582031 32.808594 Z M 85.582031 32.808594 "/>
<path style=" stroke:none;fill-rule:nonzero;fill:url(#linear2);" d="M 77.523438 32.328125 C 62.296875 32.328125 36.414062 40.425781 38.566406 82.453125 L 63.640625 82.453125 C 60.058594 84.058594 52.804688 90.355469 52.445312 102.695312 C 48.863281 101.539062 47.671875 98.355469 47.519531 96.910156 L 37.222656 96.910156 C 30.953125 77.148438 23.785156 29.917969 71.253906 25.097656 C 72.957031 27.15625 74.53125 28.921875 75.71875 30.253906 C 76.53125 31.164062 77.160156 31.871094 77.523438 32.328125 Z M 77.523438 32.328125 "/>
<path style=" stroke:none;fill-rule:nonzero;fill:url(#linear3);" d="M 59.613281 106.066406 L 59.613281 101.25 L 67.226562 95.945312 C 68.03125 95.945312 69.015625 96.335938 70.101562 96.765625 C 71.433594 97.289062 72.914062 97.875 74.390625 97.875 C 72.152344 98.839844 70.945312 99.542969 69.914062 101.25 C 69.324219 102.222656 68.976562 103.421875 68.679688 104.433594 C 68.488281 105.09375 68.320312 105.675781 68.121094 106.066406 Z M 59.613281 106.066406 "/>
</g>
</svg>
