<?xml version="1.0" encoding="UTF-8"?>
<svg xmlns="http://www.w3.org/2000/svg" xmlns:xlink="http://www.w3.org/1999/xlink" width="358px" height="80px" viewBox="0 0 357 80" version="1.1">
<defs>
<clipPath id="clip1">
  <path d="M 331 33 L 354.816406 33 L 354.816406 59 L 331 59 Z M 331 33 "/>
</clipPath>
</defs>
<g id="surface1">
<path style=" stroke:none;fill-rule:nonzero;fill:rgb(14.509805%,38.82353%,92.156863%);fill-opacity:1;" d="M 20.976562 5.203125 C 24.128906 3.363281 27.421875 1.964844 30.941406 1.136719 C 33.253906 0.597656 35.585938 0.238281 37.957031 0.0859375 C 44.019531 -0.304688 49.863281 0.660156 55.464844 3.007812 C 58.542969 4.300781 61.382812 6.003906 63.929688 8.179688 C 64.136719 8.359375 64.359375 8.519531 64.574219 8.683594 C 64.785156 8.839844 64.757812 8.984375 64.585938 9.15625 C 62.160156 11.609375 59.726562 14.054688 57.25 16.457031 C 57.019531 16.683594 56.859375 16.636719 56.632812 16.492188 C 55.179688 15.574219 53.734375 14.652344 52.179688 13.914062 C 49.476562 12.636719 46.628906 11.878906 43.664062 11.527344 C 39.125 10.988281 34.710938 11.492188 30.433594 13.082031 C 27.199219 14.28125 24.328125 16.101562 21.734375 18.382812 C 18.410156 21.3125 15.957031 24.863281 14.238281 28.9375 C 13.222656 31.355469 12.679688 33.894531 12.378906 36.496094 C 11.992188 39.835938 12.242188 43.136719 12.921875 46.417969 C 12.929688 46.449219 12.9375 46.480469 12.941406 46.511719 C 13.078125 47.292969 13.078125 47.28125 12.292969 47.28125 C 8.976562 47.273438 5.660156 47.277344 2.34375 47.277344 C 1.632812 47.277344 1.644531 47.273438 1.535156 46.566406 C 1.148438 44 0.988281 41.417969 1.097656 38.824219 C 1.414062 31.40625 3.457031 24.519531 7.457031 18.25 C 10.242188 13.890625 13.78125 10.246094 17.917969 7.179688 C 18.882812 6.460938 19.90625 5.824219 20.976562 5.203125 Z M 20.976562 5.203125 "/>
<path style=" stroke:none;fill-rule:nonzero;fill:rgb(14.509805%,38.82353%,92.156863%);fill-opacity:1;" d="M 69.710938 66.433594 C 66.703125 69.96875 63.226562 72.867188 59.183594 75.085938 C 55.371094 77.179688 51.328125 78.601562 47.050781 79.363281 C 44.933594 79.738281 42.800781 79.972656 40.65625 79.996094 C 38.183594 80.023438 35.730469 79.769531 33.300781 79.328125 C 28.15625 78.386719 23.410156 76.457031 19.082031 73.5 C 18.167969 72.875 17.328125 72.152344 16.53125 71.382812 C 16.40625 71.261719 16.25 71.160156 16.21875 70.972656 C 18.222656 69.046875 20.078125 66.980469 22.097656 65.074219 C 22.597656 64.601562 23.089844 64.109375 23.53125 63.582031 C 23.785156 63.273438 23.953125 63.25 24.269531 63.480469 C 25.777344 64.574219 27.332031 65.59375 29.050781 66.339844 C 32.203125 67.707031 35.496094 68.449219 38.921875 68.59375 C 43.597656 68.789062 48.074219 67.945312 52.304688 65.925781 C 55.089844 64.597656 57.578125 62.820312 59.765625 60.632812 C 64.003906 56.402344 66.683594 51.335938 67.785156 45.4375 C 68.394531 42.175781 68.335938 38.914062 67.753906 35.652344 C 67.597656 34.785156 67.457031 33.917969 67.308594 33.054688 C 67.582031 32.871094 67.835938 33.03125 68.078125 33.027344 C 71.460938 33.011719 74.839844 33.003906 78.222656 32.988281 C 78.558594 32.984375 78.777344 33.050781 78.816406 33.4375 C 79.058594 35.949219 79.375 38.453125 79.300781 40.988281 C 79.074219 48.730469 77.050781 55.925781 72.777344 62.425781 C 71.859375 63.824219 70.835938 65.144531 69.710938 66.433594 Z M 69.710938 66.433594 "/>
<path style=" stroke:none;fill-rule:nonzero;fill:rgb(14.509805%,38.82353%,92.156863%);fill-opacity:1;" d="M 46.46875 32.523438 C 46.019531 32.597656 45.734375 32.886719 45.460938 33.160156 C 43.109375 35.460938 40.78125 37.785156 38.421875 40.078125 C 37.027344 41.441406 35.640625 42.8125 34.269531 44.203125 C 33.144531 45.34375 32.011719 46.476562 30.847656 47.652344 C 31.117188 47.761719 31.375 47.785156 31.636719 47.785156 C 37.808594 47.785156 43.984375 47.785156 50.15625 47.785156 C 51.144531 47.785156 52.132812 47.785156 53.121094 47.789062 C 53.242188 47.789062 53.371094 47.761719 53.46875 47.855469 C 53.488281 48.046875 53.347656 48.125 53.25 48.214844 C 50.929688 50.320312 48.855469 52.675781 46.621094 54.867188 C 45.316406 56.148438 44 57.414062 42.703125 58.699219 C 42.335938 59.066406 41.929688 59.214844 41.402344 59.226562 C 36.957031 59.3125 32.511719 59.28125 28.070312 59.304688 C 27.378906 59.308594 26.839844 59.121094 26.335938 58.640625 C 24.796875 57.171875 23.375 55.59375 21.878906 54.082031 C 20.007812 52.195312 18.214844 50.226562 16.421875 48.261719 C 15.816406 47.597656 15.789062 47.582031 16.453125 46.964844 C 19.28125 44.339844 21.988281 41.59375 24.730469 38.886719 C 28.804688 34.859375 32.867188 30.820312 36.941406 26.796875 C 38.925781 24.839844 40.925781 22.898438 42.914062 20.949219 C 43.09375 20.769531 43.296875 20.722656 43.546875 20.714844 C 48.480469 20.601562 53.414062 20.699219 58.34375 20.640625 C 58.707031 20.632812 58.972656 20.722656 59.261719 20.984375 C 60.980469 22.558594 62.558594 24.273438 64.195312 25.925781 C 64.355469 26.085938 64.480469 26.234375 64.230469 26.425781 C 63.15625 27.257812 62.316406 28.332031 61.335938 29.257812 C 60.316406 30.214844 59.332031 31.214844 58.34375 32.207031 C 58.085938 32.464844 57.78125 32.519531 57.441406 32.519531 C 53.796875 32.53125 50.152344 32.640625 46.46875 32.523438 Z M 46.46875 32.523438 "/>
<path style=" stroke:none;fill-rule:nonzero;fill:rgb(100%,100%,100%);fill-opacity:1;" d="M 105.59375 58.253906 L 105.59375 33.285156 L 95.90625 33.285156 L 95.90625 26.589844 L 123.386719 26.589844 L 123.386719 33.285156 L 113.703125 33.285156 L 113.703125 58.253906 Z M 105.59375 58.253906 "/>
<path style=" stroke:none;fill-rule:nonzero;fill:rgb(100%,100%,100%);fill-opacity:1;" d="M 126.558594 58.253906 L 126.558594 26.589844 L 133.496094 26.589844 L 133.496094 37.308594 C 133.855469 36.796875 134.351562 36.269531 134.980469 35.726562 C 135.613281 35.152344 136.425781 34.671875 137.414062 34.277344 C 138.40625 33.886719 139.5625 33.691406 140.882812 33.691406 C 143.734375 33.691406 145.882812 34.460938 147.324219 35.996094 C 148.796875 37.535156 149.53125 39.722656 149.53125 42.558594 L 149.53125 58.253906 L 142.59375 58.253906 L 142.59375 44.230469 C 142.59375 42.664062 142.25 41.488281 141.558594 40.703125 C 140.898438 39.886719 139.804688 39.480469 138.269531 39.480469 C 137.160156 39.480469 136.246094 39.691406 135.523438 40.113281 C 134.832031 40.535156 134.320312 41.109375 133.992188 41.832031 C 133.660156 42.527344 133.496094 43.328125 133.496094 44.230469 L 133.496094 58.253906 Z M 126.558594 58.253906 "/>
<path style=" stroke:none;fill-rule:nonzero;fill:rgb(100%,100%,100%);fill-opacity:1;" d="M 165.320312 58.84375 C 162.976562 58.84375 160.875 58.40625 159.011719 57.53125 C 157.152344 56.625 155.664062 55.253906 154.554688 53.414062 C 153.472656 51.574219 152.933594 49.265625 152.933594 46.492188 L 152.933594 45.589844 C 152.933594 42.933594 153.457031 40.734375 154.511719 38.984375 C 155.5625 37.234375 156.988281 35.921875 158.789062 35.046875 C 160.621094 34.144531 162.648438 33.691406 164.871094 33.691406 C 168.804688 33.691406 171.777344 34.714844 173.789062 36.765625 C 175.800781 38.789062 176.808594 41.726562 176.808594 45.589844 L 176.808594 48.121094 L 160.050781 48.121094 C 160.109375 49.296875 160.378906 50.277344 160.859375 51.0625 C 161.371094 51.847656 162.015625 52.417969 162.796875 52.78125 C 163.578125 53.113281 164.417969 53.277344 165.320312 53.277344 C 166.640625 53.277344 167.679688 53.082031 168.429688 52.691406 C 169.210938 52.269531 169.722656 51.710938 169.960938 51.015625 L 176.359375 51.015625 C 175.878906 53.640625 174.691406 55.601562 172.800781 56.898438 C 170.90625 58.195312 168.414062 58.84375 165.320312 58.84375 Z M 165.09375 39.253906 C 164.253906 39.253906 163.457031 39.390625 162.707031 39.660156 C 161.957031 39.933594 161.339844 40.386719 160.859375 41.019531 C 160.410156 41.621094 160.15625 42.453125 160.097656 43.507812 L 170.003906 43.507812 C 170.003906 42.390625 169.78125 41.53125 169.332031 40.929688 C 168.878906 40.296875 168.28125 39.859375 167.527344 39.617188 C 166.808594 39.375 165.996094 39.253906 165.09375 39.253906 Z M 165.09375 39.253906 "/>
<path style=" stroke:none;fill-rule:nonzero;fill:rgb(100%,100%,100%);fill-opacity:1;" d="M 206.082031 58.84375 C 203.199219 58.84375 200.644531 58.316406 198.425781 57.257812 C 196.230469 56.175781 194.519531 54.441406 193.289062 52.058594 C 192.058594 49.675781 191.441406 46.523438 191.441406 42.601562 L 191.441406 41.742188 C 191.441406 38.96875 191.816406 36.585938 192.566406 34.59375 C 193.320312 32.605469 194.355469 30.976562 195.675781 29.710938 C 197.027344 28.441406 198.589844 27.507812 200.359375 26.90625 C 202.132812 26.300781 204.039062 26 206.082031 26 C 207.914062 26 209.640625 26.210938 211.261719 26.632812 C 212.882812 27.054688 214.296875 27.71875 215.496094 28.625 C 216.730469 29.527344 217.71875 30.703125 218.46875 32.152344 C 219.222656 33.601562 219.671875 35.363281 219.820312 37.445312 L 211.398438 37.445312 C 211.128906 35.785156 210.496094 34.59375 209.503906 33.871094 C 208.515625 33.148438 207.375 32.785156 206.082031 32.785156 C 204.878906 32.785156 203.800781 33.085938 202.839844 33.691406 C 201.90625 34.261719 201.171875 35.199219 200.632812 36.496094 C 200.089844 37.792969 199.820312 39.542969 199.820312 41.742188 L 199.820312 42.691406 C 199.820312 44.441406 199.984375 45.917969 200.316406 47.125 C 200.644531 48.332031 201.097656 49.296875 201.667969 50.023438 C 202.269531 50.746094 202.945312 51.273438 203.695312 51.605469 C 204.445312 51.90625 205.242188 52.058594 206.082031 52.058594 C 207.613281 52.058594 208.828125 51.695312 209.730469 50.972656 C 210.664062 50.21875 211.21875 49.027344 211.398438 47.398438 L 219.820312 47.398438 C 219.703125 49.507812 219.265625 51.304688 218.515625 52.78125 C 217.796875 54.230469 216.820312 55.40625 215.585938 56.308594 C 214.386719 57.183594 212.972656 57.832031 211.351562 58.253906 C 209.730469 58.648438 207.972656 58.84375 206.082031 58.84375 Z M 206.082031 58.84375 "/>
<path style=" stroke:none;fill-rule:nonzero;fill:rgb(100%,100%,100%);fill-opacity:1;" d="M 223.648438 58.253906 L 223.648438 26.589844 L 230.585938 26.589844 L 230.585938 37.308594 C 230.945312 36.796875 231.441406 36.269531 232.074219 35.726562 C 232.703125 35.152344 233.515625 34.671875 234.503906 34.277344 C 235.496094 33.886719 236.652344 33.691406 237.972656 33.691406 C 240.828125 33.691406 242.976562 34.460938 244.417969 35.996094 C 245.886719 37.535156 246.625 39.722656 246.625 42.558594 L 246.625 58.253906 L 239.6875 58.253906 L 239.6875 44.230469 C 239.6875 42.664062 239.339844 41.488281 238.652344 40.703125 C 237.988281 39.886719 236.894531 39.480469 235.363281 39.480469 C 234.25 39.480469 233.335938 39.691406 232.613281 40.113281 C 231.921875 40.535156 231.414062 41.109375 231.082031 41.832031 C 230.75 42.527344 230.585938 43.328125 230.585938 44.230469 L 230.585938 58.253906 Z M 223.648438 58.253906 "/>
<path style=" stroke:none;fill-rule:nonzero;fill:rgb(100%,100%,100%);fill-opacity:1;" d="M 258.355469 58.84375 C 256.644531 58.84375 255.175781 58.511719 253.941406 57.847656 C 252.742188 57.183594 251.824219 56.28125 251.195312 55.132812 C 250.5625 53.957031 250.25 52.660156 250.25 51.242188 C 250.25 48.859375 250.96875 47.035156 252.410156 45.769531 C 253.882812 44.503906 256.089844 43.867188 259.035156 43.867188 L 265.789062 43.867188 L 265.789062 42.875 C 265.789062 41.425781 265.445312 40.429688 264.753906 39.886719 C 264.09375 39.34375 263.164062 39.074219 261.960938 39.074219 C 260.820312 39.074219 259.980469 39.253906 259.4375 39.617188 C 258.898438 39.949219 258.597656 40.507812 258.539062 41.289062 L 251.601562 41.289062 C 251.691406 39.84375 252.140625 38.546875 252.953125 37.398438 C 253.792969 36.253906 254.980469 35.347656 256.511719 34.6875 C 258.074219 34.023438 259.964844 33.691406 262.1875 33.691406 C 264.289062 33.691406 266.136719 34.007812 267.726562 34.640625 C 269.320312 35.273438 270.550781 36.300781 271.421875 37.714844 C 272.324219 39.105469 272.773438 40.972656 272.773438 43.328125 L 272.773438 52.148438 C 272.773438 53.414062 272.804688 54.53125 272.863281 55.496094 C 272.921875 56.429688 273.011719 57.351562 273.132812 58.253906 L 266.511719 58.253906 C 266.480469 57.742188 266.4375 57.289062 266.375 56.898438 C 266.347656 56.503906 266.332031 56.023438 266.332031 55.449219 C 265.609375 56.414062 264.605469 57.230469 263.3125 57.894531 C 262.050781 58.527344 260.398438 58.84375 258.355469 58.84375 Z M 260.609375 53.910156 C 261.601562 53.910156 262.484375 53.730469 263.265625 53.367188 C 264.050781 53.007812 264.664062 52.464844 265.113281 51.742188 C 265.566406 50.988281 265.789062 50.140625 265.789062 49.207031 L 265.789062 48.210938 L 260.382812 48.210938 C 259.363281 48.210938 258.597656 48.484375 258.085938 49.027344 C 257.605469 49.570312 257.367188 50.1875 257.367188 50.882812 C 257.367188 51.785156 257.605469 52.523438 258.085938 53.097656 C 258.597656 53.640625 259.4375 53.910156 260.609375 53.910156 Z M 260.609375 53.910156 "/>
<path style=" stroke:none;fill-rule:nonzero;fill:rgb(100%,100%,100%);fill-opacity:1;" d="M 277.054688 58.253906 L 277.054688 34.277344 L 283.453125 34.277344 L 283.453125 37.535156 C 284.054688 36.449219 284.984375 35.546875 286.246094 34.820312 C 287.539062 34.066406 289.25 33.691406 291.378906 33.691406 C 294.234375 33.691406 296.382812 34.460938 297.824219 35.996094 C 299.292969 37.535156 300.03125 39.753906 300.03125 42.648438 L 300.03125 58.253906 L 293.09375 58.253906 L 293.09375 44.230469 C 293.09375 42.664062 292.746094 41.488281 292.058594 40.703125 C 291.394531 39.886719 290.300781 39.480469 288.769531 39.480469 C 287.65625 39.480469 286.742188 39.707031 286.019531 40.160156 C 285.328125 40.582031 284.820312 41.15625 284.488281 41.878906 C 284.160156 42.570312 283.992188 43.355469 283.992188 44.230469 L 283.992188 58.253906 Z M 277.054688 58.253906 "/>
<path style=" stroke:none;fill-rule:nonzero;fill:rgb(100%,100%,100%);fill-opacity:1;" d="M 315.140625 67.890625 C 312.558594 67.890625 310.488281 67.574219 308.925781 66.941406 C 307.394531 66.335938 306.269531 65.460938 305.546875 64.316406 C 304.855469 63.171875 304.449219 61.828125 304.332031 60.289062 L 311.402344 60.289062 C 311.554688 60.832031 311.882812 61.347656 312.394531 61.828125 C 312.933594 62.3125 313.851562 62.550781 315.140625 62.550781 C 316.945312 62.550781 318.296875 62.128906 319.195312 61.285156 C 320.128906 60.472656 320.59375 59.160156 320.59375 57.351562 L 320.59375 54.773438 C 319.78125 55.949219 318.761719 56.851562 317.53125 57.484375 C 316.328125 58.089844 315.050781 58.390625 313.699219 58.390625 C 311.628906 58.390625 309.8125 57.9375 308.25 57.035156 C 306.71875 56.128906 305.53125 54.785156 304.691406 53.007812 C 303.851562 51.226562 303.429688 48.980469 303.429688 46.265625 L 303.429688 45.363281 C 303.429688 42.828125 303.835938 40.703125 304.644531 38.984375 C 305.488281 37.234375 306.671875 35.921875 308.203125 35.046875 C 309.765625 34.144531 311.597656 33.691406 313.699219 33.691406 C 315.5625 33.691406 317.109375 34.097656 318.339844 34.910156 C 319.601562 35.695312 320.535156 36.570312 321.132812 37.535156 L 321.132812 34.277344 L 327.53125 34.277344 L 327.53125 56.671875 C 327.53125 60.410156 326.523438 63.214844 324.511719 65.085938 C 322.53125 66.957031 319.40625 67.890625 315.140625 67.890625 Z M 315.367188 52.644531 C 316.359375 52.644531 317.246094 52.417969 318.027344 51.964844 C 318.804688 51.515625 319.421875 50.867188 319.871094 50.023438 C 320.351562 49.148438 320.59375 48.121094 320.59375 46.945312 L 320.59375 44.683594 C 320.59375 43.539062 320.351562 42.585938 319.871094 41.832031 C 319.421875 41.050781 318.804688 40.460938 318.027344 40.070312 C 317.246094 39.648438 316.359375 39.4375 315.367188 39.4375 C 313.957031 39.4375 312.800781 39.933594 311.898438 40.929688 C 311 41.894531 310.546875 43.371094 310.546875 45.363281 L 310.546875 46.265625 C 310.546875 48.347656 311 49.929688 311.898438 51.015625 C 312.828125 52.101562 313.988281 52.644531 315.367188 52.644531 Z M 315.367188 52.644531 "/>
<g clip-path="url(#clip1)" clip-rule="nonzero">
<path style=" stroke:none;fill-rule:nonzero;fill:rgb(100%,100%,100%);fill-opacity:1;" d="M 343.535156 58.84375 C 341.191406 58.84375 339.089844 58.40625 337.226562 57.53125 C 335.363281 56.625 333.878906 55.253906 332.765625 53.414062 C 331.683594 51.574219 331.144531 49.265625 331.144531 46.492188 L 331.144531 45.589844 C 331.144531 42.933594 331.671875 40.734375 332.722656 38.984375 C 333.773438 37.234375 335.199219 35.921875 337 35.046875 C 338.832031 34.144531 340.859375 33.691406 343.082031 33.691406 C 347.015625 33.691406 349.988281 34.714844 352.003906 36.765625 C 354.015625 38.789062 355.019531 41.726562 355.019531 45.589844 L 355.019531 48.121094 L 338.261719 48.121094 C 338.324219 49.296875 338.59375 50.277344 339.074219 51.0625 C 339.585938 51.847656 340.230469 52.417969 341.011719 52.78125 C 341.792969 53.113281 342.632812 53.277344 343.535156 53.277344 C 344.855469 53.277344 345.890625 53.082031 346.640625 52.691406 C 347.421875 52.269531 347.933594 51.710938 348.171875 51.015625 L 354.570312 51.015625 C 354.089844 53.640625 352.902344 55.601562 351.011719 56.898438 C 349.121094 58.195312 346.628906 58.84375 343.535156 58.84375 Z M 343.308594 39.253906 C 342.464844 39.253906 341.671875 39.390625 340.921875 39.660156 C 340.167969 39.933594 339.554688 40.386719 339.074219 41.019531 C 338.625 41.621094 338.367188 42.453125 338.308594 43.507812 L 348.21875 43.507812 C 348.21875 42.390625 347.992188 41.53125 347.542969 40.929688 C 347.09375 40.296875 346.492188 39.859375 345.742188 39.617188 C 345.019531 39.375 344.210938 39.253906 343.308594 39.253906 Z M 343.308594 39.253906 "/>
</g>
</g>
</svg>
