<?xml version="1.0" encoding="UTF-8"?>
<svg xmlns="http://www.w3.org/2000/svg" xmlns:xlink="http://www.w3.org/1999/xlink" width="358px" height="80px" viewBox="0 0 357 80" version="1.1">
<defs>
<clipPath id="clip1">
  <path d="M 331 33 L 355.441406 33 L 355.441406 59 L 331 59 Z M 331 33 "/>
</clipPath>
</defs>
<g id="surface1">
<path style=" stroke:none;fill-rule:nonzero;fill:rgb(14.509805%,38.82353%,92.156863%);fill-opacity:1;" d="M 21.601562 5.203125 C 24.753906 3.363281 28.042969 1.964844 31.566406 1.136719 C 33.875 0.597656 36.210938 0.238281 38.582031 0.0859375 C 44.644531 -0.304688 50.488281 0.660156 56.089844 3.007812 C 59.167969 4.300781 62.007812 6.003906 64.554688 8.179688 C 64.761719 8.359375 64.980469 8.519531 65.199219 8.683594 C 65.40625 8.839844 65.382812 8.984375 65.210938 9.15625 C 62.785156 11.609375 60.351562 14.054688 57.875 16.457031 C 57.644531 16.683594 57.484375 16.636719 57.253906 16.492188 C 55.804688 15.574219 54.359375 14.652344 52.804688 13.914062 C 50.101562 12.636719 47.253906 11.878906 44.289062 11.527344 C 39.75 10.988281 35.335938 11.492188 31.058594 13.082031 C 27.824219 14.28125 24.953125 16.101562 22.359375 18.382812 C 19.035156 21.3125 16.578125 24.863281 14.863281 28.9375 C 13.847656 31.355469 13.300781 33.894531 13 36.496094 C 12.613281 39.835938 12.867188 43.136719 13.546875 46.417969 C 13.554688 46.449219 13.558594 46.480469 13.566406 46.511719 C 13.699219 47.292969 13.699219 47.28125 12.917969 47.28125 C 9.601562 47.273438 6.285156 47.277344 2.96875 47.277344 C 2.257812 47.277344 2.269531 47.273438 2.160156 46.566406 C 1.769531 44 1.613281 41.417969 1.722656 38.824219 C 2.039062 31.40625 4.082031 24.519531 8.082031 18.25 C 10.867188 13.890625 14.40625 10.246094 18.542969 7.179688 C 19.507812 6.460938 20.527344 5.824219 21.601562 5.203125 Z M 21.601562 5.203125 "/>
<path style=" stroke:none;fill-rule:nonzero;fill:rgb(14.509805%,38.82353%,92.156863%);fill-opacity:1;" d="M 70.335938 66.433594 C 67.328125 69.96875 63.847656 72.867188 59.808594 75.085938 C 55.996094 77.179688 51.953125 78.601562 47.675781 79.363281 C 45.558594 79.738281 43.425781 79.972656 41.28125 79.996094 C 38.808594 80.023438 36.355469 79.769531 33.925781 79.328125 C 28.78125 78.386719 24.03125 76.457031 19.707031 73.5 C 18.792969 72.875 17.953125 72.152344 17.152344 71.382812 C 17.03125 71.261719 16.875 71.160156 16.84375 70.972656 C 18.847656 69.046875 20.703125 66.980469 22.722656 65.074219 C 23.222656 64.601562 23.714844 64.109375 24.152344 63.582031 C 24.410156 63.273438 24.574219 63.25 24.894531 63.480469 C 26.402344 64.574219 27.957031 65.59375 29.675781 66.339844 C 32.824219 67.707031 36.121094 68.449219 39.546875 68.59375 C 44.21875 68.789062 48.699219 67.945312 52.929688 65.925781 C 55.714844 64.597656 58.199219 62.820312 60.390625 60.632812 C 64.628906 56.402344 67.308594 51.335938 68.410156 45.4375 C 69.019531 42.175781 68.960938 38.914062 68.375 35.652344 C 68.222656 34.785156 68.082031 33.917969 67.933594 33.054688 C 68.207031 32.871094 68.457031 33.03125 68.703125 33.027344 C 72.085938 33.011719 75.464844 33.003906 78.84375 32.988281 C 79.183594 32.984375 79.402344 33.050781 79.4375 33.4375 C 79.679688 35.949219 80 38.453125 79.925781 40.988281 C 79.699219 48.730469 77.671875 55.925781 73.402344 62.425781 C 72.484375 63.824219 71.460938 65.144531 70.335938 66.433594 Z M 70.335938 66.433594 "/>
<path style=" stroke:none;fill-rule:nonzero;fill:rgb(14.509805%,38.82353%,92.156863%);fill-opacity:1;" d="M 47.09375 32.523438 C 46.640625 32.597656 46.359375 32.886719 46.082031 33.160156 C 43.734375 35.460938 41.40625 37.785156 39.046875 40.078125 C 37.648438 41.441406 36.261719 42.8125 34.894531 44.203125 C 33.769531 45.34375 32.636719 46.476562 31.472656 47.652344 C 31.742188 47.761719 32 47.785156 32.257812 47.785156 C 38.433594 47.785156 44.605469 47.785156 50.78125 47.785156 C 51.769531 47.785156 52.757812 47.785156 53.746094 47.789062 C 53.867188 47.789062 53.996094 47.761719 54.089844 47.855469 C 54.113281 48.046875 53.972656 48.125 53.875 48.214844 C 51.554688 50.320312 49.480469 52.675781 47.242188 54.867188 C 45.941406 56.148438 44.625 57.414062 43.328125 58.699219 C 42.957031 59.066406 42.554688 59.214844 42.027344 59.226562 C 37.582031 59.3125 33.136719 59.28125 28.691406 59.304688 C 28.003906 59.308594 27.464844 59.121094 26.960938 58.640625 C 25.421875 57.171875 24 55.59375 22.503906 54.082031 C 20.628906 52.195312 18.839844 50.226562 17.046875 48.261719 C 16.4375 47.597656 16.410156 47.582031 17.078125 46.964844 C 19.902344 44.339844 22.609375 41.59375 25.351562 38.886719 C 29.429688 34.859375 33.492188 30.820312 37.566406 26.796875 C 39.550781 24.839844 41.546875 22.898438 43.535156 20.949219 C 43.71875 20.769531 43.921875 20.722656 44.171875 20.714844 C 49.105469 20.601562 54.035156 20.699219 58.96875 20.640625 C 59.332031 20.632812 59.597656 20.722656 59.882812 20.984375 C 61.605469 22.558594 63.183594 24.273438 64.820312 25.925781 C 64.980469 26.085938 65.105469 26.234375 64.855469 26.425781 C 63.78125 27.257812 62.941406 28.332031 61.957031 29.257812 C 60.9375 30.214844 59.957031 31.214844 58.964844 32.207031 C 58.707031 32.464844 58.40625 32.519531 58.0625 32.519531 C 54.421875 32.53125 50.777344 32.640625 47.09375 32.523438 Z M 47.09375 32.523438 "/>
<path style=" stroke:none;fill-rule:nonzero;fill:rgb(7.450981%,8.627451%,12.941177%);fill-opacity:1;" d="M 106.21875 58.253906 L 106.21875 33.285156 L 96.53125 33.285156 L 96.53125 26.589844 L 124.011719 26.589844 L 124.011719 33.285156 L 114.328125 33.285156 L 114.328125 58.253906 Z M 106.21875 58.253906 "/>
<path style=" stroke:none;fill-rule:nonzero;fill:rgb(7.450981%,8.627451%,12.941177%);fill-opacity:1;" d="M 127.183594 58.253906 L 127.183594 26.589844 L 134.121094 26.589844 L 134.121094 37.308594 C 134.480469 36.796875 134.976562 36.269531 135.605469 35.726562 C 136.238281 35.152344 137.046875 34.671875 138.039062 34.277344 C 139.03125 33.886719 140.1875 33.691406 141.507812 33.691406 C 144.359375 33.691406 146.507812 34.460938 147.949219 35.996094 C 149.421875 37.535156 150.15625 39.722656 150.15625 42.558594 L 150.15625 58.253906 L 143.21875 58.253906 L 143.21875 44.230469 C 143.21875 42.664062 142.875 41.488281 142.183594 40.703125 C 141.523438 39.886719 140.425781 39.480469 138.894531 39.480469 C 137.785156 39.480469 136.867188 39.691406 136.148438 40.113281 C 135.457031 40.535156 134.945312 41.109375 134.613281 41.832031 C 134.285156 42.527344 134.121094 43.328125 134.121094 44.230469 L 134.121094 58.253906 Z M 127.183594 58.253906 "/>
<path style=" stroke:none;fill-rule:nonzero;fill:rgb(7.450981%,8.627451%,12.941177%);fill-opacity:1;" d="M 165.945312 58.84375 C 163.601562 58.84375 161.5 58.40625 159.636719 57.53125 C 157.777344 56.625 156.289062 55.253906 155.179688 53.414062 C 154.097656 51.574219 153.554688 49.265625 153.554688 46.492188 L 153.554688 45.589844 C 153.554688 42.933594 154.082031 40.734375 155.132812 38.984375 C 156.183594 37.234375 157.609375 35.921875 159.414062 35.046875 C 161.246094 34.144531 163.273438 33.691406 165.496094 33.691406 C 169.429688 33.691406 172.402344 34.714844 174.414062 36.765625 C 176.425781 38.789062 177.433594 41.726562 177.433594 45.589844 L 177.433594 48.121094 L 160.671875 48.121094 C 160.734375 49.296875 161.003906 50.277344 161.484375 51.0625 C 161.996094 51.847656 162.640625 52.417969 163.421875 52.78125 C 164.203125 53.113281 165.042969 53.277344 165.945312 53.277344 C 167.265625 53.277344 168.304688 53.082031 169.054688 52.691406 C 169.835938 52.269531 170.34375 51.710938 170.585938 51.015625 L 176.980469 51.015625 C 176.5 53.640625 175.316406 55.601562 173.421875 56.898438 C 171.53125 58.195312 169.039062 58.84375 165.945312 58.84375 Z M 165.71875 39.253906 C 164.878906 39.253906 164.082031 39.390625 163.332031 39.660156 C 162.582031 39.933594 161.964844 40.386719 161.484375 41.019531 C 161.035156 41.621094 160.78125 42.453125 160.71875 43.507812 L 170.628906 43.507812 C 170.628906 42.390625 170.40625 41.53125 169.953125 40.929688 C 169.503906 40.296875 168.902344 39.859375 168.152344 39.617188 C 167.433594 39.375 166.621094 39.253906 165.71875 39.253906 Z M 165.71875 39.253906 "/>
<path style=" stroke:none;fill-rule:nonzero;fill:rgb(7.450981%,8.627451%,12.941177%);fill-opacity:1;" d="M 206.707031 58.84375 C 203.824219 58.84375 201.269531 58.316406 199.046875 57.257812 C 196.855469 56.175781 195.144531 54.441406 193.914062 52.058594 C 192.679688 49.675781 192.066406 46.523438 192.066406 42.601562 L 192.066406 41.742188 C 192.066406 38.96875 192.441406 36.585938 193.191406 34.59375 C 193.945312 32.605469 194.980469 30.976562 196.300781 29.710938 C 197.652344 28.441406 199.214844 27.507812 200.984375 26.90625 C 202.757812 26.300781 204.664062 26 206.707031 26 C 208.539062 26 210.265625 26.210938 211.886719 26.632812 C 213.507812 27.054688 214.921875 27.71875 216.121094 28.625 C 217.351562 29.527344 218.34375 30.703125 219.09375 32.152344 C 219.847656 33.601562 220.296875 35.363281 220.445312 37.445312 L 212.023438 37.445312 C 211.753906 35.785156 211.121094 34.59375 210.128906 33.871094 C 209.140625 33.148438 207.996094 32.785156 206.707031 32.785156 C 205.503906 32.785156 204.421875 33.085938 203.460938 33.691406 C 202.53125 34.261719 201.796875 35.199219 201.253906 36.496094 C 200.714844 37.792969 200.445312 39.542969 200.445312 41.742188 L 200.445312 42.691406 C 200.445312 44.441406 200.609375 45.917969 200.941406 47.125 C 201.269531 48.332031 201.722656 49.296875 202.292969 50.023438 C 202.890625 50.746094 203.570312 51.273438 204.320312 51.605469 C 205.070312 51.90625 205.867188 52.058594 206.707031 52.058594 C 208.238281 52.058594 209.453125 51.695312 210.355469 50.972656 C 211.285156 50.21875 211.84375 49.027344 212.023438 47.398438 L 220.445312 47.398438 C 220.328125 49.507812 219.890625 51.304688 219.140625 52.78125 C 218.417969 54.230469 217.441406 55.40625 216.210938 56.308594 C 215.011719 57.183594 213.597656 57.832031 211.976562 58.253906 C 210.355469 58.648438 208.597656 58.84375 206.707031 58.84375 Z M 206.707031 58.84375 "/>
<path style=" stroke:none;fill-rule:nonzero;fill:rgb(7.450981%,8.627451%,12.941177%);fill-opacity:1;" d="M 224.273438 58.253906 L 224.273438 26.589844 L 231.210938 26.589844 L 231.210938 37.308594 C 231.570312 36.796875 232.066406 36.269531 232.699219 35.726562 C 233.328125 35.152344 234.136719 34.671875 235.128906 34.277344 C 236.121094 33.886719 237.277344 33.691406 238.597656 33.691406 C 241.453125 33.691406 243.597656 34.460938 245.039062 35.996094 C 246.511719 37.535156 247.246094 39.722656 247.246094 42.558594 L 247.246094 58.253906 L 240.3125 58.253906 L 240.3125 44.230469 C 240.3125 42.664062 239.964844 41.488281 239.273438 40.703125 C 238.613281 39.886719 237.515625 39.480469 235.984375 39.480469 C 234.875 39.480469 233.957031 39.691406 233.238281 40.113281 C 232.546875 40.535156 232.035156 41.109375 231.707031 41.832031 C 231.375 42.527344 231.210938 43.328125 231.210938 44.230469 L 231.210938 58.253906 Z M 224.273438 58.253906 "/>
<path style=" stroke:none;fill-rule:nonzero;fill:rgb(7.450981%,8.627451%,12.941177%);fill-opacity:1;" d="M 258.980469 58.84375 C 257.269531 58.84375 255.796875 58.511719 254.566406 57.847656 C 253.363281 57.183594 252.449219 56.28125 251.820312 55.132812 C 251.1875 53.957031 250.871094 52.660156 250.871094 51.242188 C 250.871094 48.859375 251.59375 47.035156 253.035156 45.769531 C 254.507812 44.503906 256.714844 43.867188 259.65625 43.867188 L 266.414062 43.867188 L 266.414062 42.875 C 266.414062 41.425781 266.070312 40.429688 265.378906 39.886719 C 264.71875 39.34375 263.785156 39.074219 262.585938 39.074219 C 261.445312 39.074219 260.605469 39.253906 260.0625 39.617188 C 259.523438 39.949219 259.222656 40.507812 259.160156 41.289062 L 252.222656 41.289062 C 252.3125 39.84375 252.765625 38.546875 253.574219 37.398438 C 254.417969 36.253906 255.601562 35.347656 257.136719 34.6875 C 258.695312 34.023438 260.585938 33.691406 262.8125 33.691406 C 264.914062 33.691406 266.761719 34.007812 268.351562 34.640625 C 269.941406 35.273438 271.175781 36.300781 272.046875 37.714844 C 272.945312 39.105469 273.398438 40.972656 273.398438 43.328125 L 273.398438 52.148438 C 273.398438 53.414062 273.425781 54.53125 273.488281 55.496094 C 273.546875 56.429688 273.636719 57.351562 273.757812 58.253906 L 267.132812 58.253906 C 267.105469 57.742188 267.058594 57.289062 267 56.898438 C 266.96875 56.503906 266.953125 56.023438 266.953125 55.449219 C 266.234375 56.414062 265.230469 57.230469 263.9375 57.894531 C 262.675781 58.527344 261.023438 58.84375 258.980469 58.84375 Z M 261.234375 53.910156 C 262.226562 53.910156 263.109375 53.730469 263.890625 53.367188 C 264.671875 53.007812 265.289062 52.464844 265.738281 51.742188 C 266.191406 50.988281 266.414062 50.140625 266.414062 49.207031 L 266.414062 48.210938 L 261.007812 48.210938 C 259.988281 48.210938 259.222656 48.484375 258.710938 49.027344 C 258.230469 49.570312 257.988281 50.1875 257.988281 50.882812 C 257.988281 51.785156 258.230469 52.523438 258.710938 53.097656 C 259.222656 53.640625 260.0625 53.910156 261.234375 53.910156 Z M 261.234375 53.910156 "/>
<path style=" stroke:none;fill-rule:nonzero;fill:rgb(7.450981%,8.627451%,12.941177%);fill-opacity:1;" d="M 277.679688 58.253906 L 277.679688 34.277344 L 284.078125 34.277344 L 284.078125 37.535156 C 284.675781 36.449219 285.609375 35.546875 286.871094 34.820312 C 288.160156 34.066406 289.871094 33.691406 292.003906 33.691406 C 294.859375 33.691406 297.003906 34.460938 298.445312 35.996094 C 299.917969 37.535156 300.652344 39.753906 300.652344 42.648438 L 300.652344 58.253906 L 293.71875 58.253906 L 293.71875 44.230469 C 293.71875 42.664062 293.371094 41.488281 292.679688 40.703125 C 292.019531 39.886719 290.921875 39.480469 289.390625 39.480469 C 288.28125 39.480469 287.363281 39.707031 286.644531 40.160156 C 285.953125 40.582031 285.441406 41.15625 285.113281 41.878906 C 284.78125 42.570312 284.617188 43.355469 284.617188 44.230469 L 284.617188 58.253906 Z M 277.679688 58.253906 "/>
<path style=" stroke:none;fill-rule:nonzero;fill:rgb(7.450981%,8.627451%,12.941177%);fill-opacity:1;" d="M 315.765625 67.890625 C 313.183594 67.890625 311.113281 67.574219 309.550781 66.941406 C 308.019531 66.335938 306.894531 65.460938 306.171875 64.316406 C 305.480469 63.171875 305.074219 61.828125 304.957031 60.289062 L 312.027344 60.289062 C 312.179688 60.832031 312.507812 61.347656 313.019531 61.828125 C 313.558594 62.3125 314.476562 62.550781 315.765625 62.550781 C 317.570312 62.550781 318.917969 62.128906 319.820312 61.285156 C 320.753906 60.472656 321.21875 59.160156 321.21875 57.351562 L 321.21875 54.773438 C 320.40625 55.949219 319.386719 56.851562 318.15625 57.484375 C 316.953125 58.089844 315.675781 58.390625 314.324219 58.390625 C 312.253906 58.390625 310.4375 57.9375 308.875 57.035156 C 307.34375 56.128906 306.15625 54.785156 305.316406 53.007812 C 304.476562 51.226562 304.054688 48.980469 304.054688 46.265625 L 304.054688 45.363281 C 304.054688 42.828125 304.460938 40.703125 305.269531 38.984375 C 306.109375 37.234375 307.296875 35.921875 308.828125 35.046875 C 310.390625 34.144531 312.222656 33.691406 314.324219 33.691406 C 316.1875 33.691406 317.734375 34.097656 318.964844 34.910156 C 320.226562 35.695312 321.15625 36.570312 321.757812 37.535156 L 321.757812 34.277344 L 328.152344 34.277344 L 328.152344 56.671875 C 328.152344 60.410156 327.148438 63.214844 325.136719 65.085938 C 323.15625 66.957031 320.03125 67.890625 315.765625 67.890625 Z M 315.992188 52.644531 C 316.980469 52.644531 317.867188 52.417969 318.648438 51.964844 C 319.429688 51.515625 320.046875 50.867188 320.496094 50.023438 C 320.976562 49.148438 321.21875 48.121094 321.21875 46.945312 L 321.21875 44.683594 C 321.21875 43.539062 320.976562 42.585938 320.496094 41.832031 C 320.046875 41.050781 319.429688 40.460938 318.648438 40.070312 C 317.867188 39.648438 316.980469 39.4375 315.992188 39.4375 C 314.582031 39.4375 313.421875 39.933594 312.523438 40.929688 C 311.621094 41.894531 311.171875 43.371094 311.171875 45.363281 L 311.171875 46.265625 C 311.171875 48.347656 311.621094 49.929688 312.523438 51.015625 C 313.453125 52.101562 314.609375 52.644531 315.992188 52.644531 Z M 315.992188 52.644531 "/>
<g clip-path="url(#clip1)" clip-rule="nonzero">
<path style=" stroke:none;fill-rule:nonzero;fill:rgb(7.450981%,8.627451%,12.941177%);fill-opacity:1;" d="M 344.15625 58.84375 C 341.816406 58.84375 339.714844 58.40625 337.851562 57.53125 C 335.988281 56.625 334.5 55.253906 333.390625 53.414062 C 332.308594 51.574219 331.769531 49.265625 331.769531 46.492188 L 331.769531 45.589844 C 331.769531 42.933594 332.292969 40.734375 333.34375 38.984375 C 334.398438 37.234375 335.824219 35.921875 337.625 35.046875 C 339.457031 34.144531 341.484375 33.691406 343.707031 33.691406 C 347.640625 33.691406 350.613281 34.714844 352.625 36.765625 C 354.636719 38.789062 355.644531 41.726562 355.644531 45.589844 L 355.644531 48.121094 L 338.886719 48.121094 C 338.945312 49.296875 339.21875 50.277344 339.699219 51.0625 C 340.207031 51.847656 340.855469 52.417969 341.636719 52.78125 C 342.414062 53.113281 343.257812 53.277344 344.15625 53.277344 C 345.480469 53.277344 346.515625 53.082031 347.265625 52.691406 C 348.046875 52.269531 348.558594 51.710938 348.796875 51.015625 L 355.195312 51.015625 C 354.714844 53.640625 353.527344 55.601562 351.636719 56.898438 C 349.742188 58.195312 347.25 58.84375 344.15625 58.84375 Z M 343.933594 39.253906 C 343.089844 39.253906 342.296875 39.390625 341.542969 39.660156 C 340.792969 39.933594 340.179688 40.386719 339.699219 41.019531 C 339.246094 41.621094 338.992188 42.453125 338.929688 43.507812 L 348.84375 43.507812 C 348.84375 42.390625 348.617188 41.53125 348.167969 40.929688 C 347.714844 40.296875 347.113281 39.859375 346.363281 39.617188 C 345.644531 39.375 344.832031 39.253906 343.933594 39.253906 Z M 343.933594 39.253906 "/>
</g>
</g>
</svg>
