<?xml version="1.0" encoding="UTF-8"?>
<svg xmlns="http://www.w3.org/2000/svg" xmlns:xlink="http://www.w3.org/1999/xlink" width="128px" height="128px" viewBox="0 0 128 128" version="1.1">
<g id="surface1">
<path style=" stroke:none;fill-rule:nonzero;fill:rgb(14.509805%,38.82353%,92.156863%);fill-opacity:1;" d="M 33.640625 8.324219 C 38.707031 5.378906 43.996094 3.140625 49.652344 1.820312 C 53.363281 0.957031 57.117188 0.378906 60.925781 0.132812 C 70.667969 -0.488281 80.054688 1.054688 89.054688 4.816406 C 94 6.878906 98.5625 9.609375 102.65625 13.089844 C 102.992188 13.371094 103.34375 13.632812 103.691406 13.894531 C 104.027344 14.148438 103.984375 14.375 103.710938 14.652344 C 99.8125 18.578125 95.902344 22.488281 91.925781 26.332031 C 91.550781 26.695312 91.296875 26.621094 90.929688 26.386719 C 88.597656 24.917969 86.273438 23.441406 83.777344 22.265625 C 79.433594 20.21875 74.859375 19.007812 70.09375 18.445312 C 62.804688 17.582031 55.710938 18.390625 48.835938 20.929688 C 43.640625 22.851562 39.027344 25.761719 34.859375 29.414062 C 29.515625 34.101562 25.574219 39.777344 22.816406 46.300781 C 21.183594 50.167969 20.308594 54.230469 19.824219 58.390625 C 19.203125 63.738281 19.609375 69.019531 20.699219 74.265625 C 20.710938 74.316406 20.722656 74.367188 20.730469 74.417969 C 20.949219 75.667969 20.949219 75.652344 19.6875 75.648438 C 14.359375 75.640625 9.03125 75.644531 3.703125 75.640625 C 2.558594 75.640625 2.578125 75.640625 2.40625 74.507812 C 1.777344 70.398438 1.523438 66.265625 1.703125 62.117188 C 2.207031 50.25 5.492188 39.230469 11.921875 29.203125 C 16.390625 22.226562 22.078125 16.394531 28.726562 11.488281 C 30.277344 10.339844 31.917969 9.316406 33.640625 8.324219 Z M 33.640625 8.324219 "/>
<path style=" stroke:none;fill-rule:nonzero;fill:rgb(14.509805%,38.82353%,92.156863%);fill-opacity:1;" d="M 111.949219 106.292969 C 107.117188 111.949219 101.523438 116.59375 95.035156 120.140625 C 88.90625 123.492188 82.410156 125.765625 75.535156 126.980469 C 72.136719 127.582031 68.710938 127.957031 65.261719 127.996094 C 61.292969 128.039062 57.347656 127.632812 53.445312 126.925781 C 45.179688 125.421875 37.550781 122.332031 30.601562 117.605469 C 29.128906 116.601562 27.777344 115.445312 26.496094 114.210938 C 26.300781 114.019531 26.046875 113.855469 25.996094 113.558594 C 29.21875 110.476562 32.199219 107.167969 35.445312 104.121094 C 36.25 103.363281 37.039062 102.578125 37.746094 101.730469 C 38.15625 101.238281 38.421875 101.203125 38.933594 101.570312 C 41.359375 103.320312 43.855469 104.953125 46.613281 106.144531 C 51.679688 108.332031 56.972656 109.519531 62.476562 109.753906 C 69.984375 110.066406 77.179688 108.714844 83.980469 105.484375 C 88.457031 103.359375 92.449219 100.511719 95.96875 97.011719 C 102.78125 90.242188 107.082031 82.140625 108.855469 72.703125 C 109.832031 67.484375 109.738281 62.261719 108.800781 57.046875 C 108.550781 55.660156 108.324219 54.269531 108.089844 52.886719 C 108.527344 52.59375 108.929688 52.847656 109.324219 52.847656 C 114.757812 52.816406 120.1875 52.808594 125.621094 52.78125 C 126.164062 52.777344 126.515625 52.882812 126.574219 53.5 C 126.964844 57.515625 127.476562 61.527344 127.355469 65.578125 C 126.992188 77.972656 123.738281 89.484375 116.875 99.882812 C 115.398438 102.121094 113.753906 104.234375 111.949219 106.292969 Z M 111.949219 106.292969 "/>
<path style=" stroke:none;fill-rule:nonzero;fill:rgb(14.509805%,38.82353%,92.156863%);fill-opacity:1;" d="M 74.601562 52.039062 C 73.875 52.160156 73.421875 52.621094 72.976562 53.058594 C 69.203125 56.742188 65.460938 60.457031 61.675781 64.128906 C 59.425781 66.304688 57.199219 68.503906 55 70.726562 C 53.191406 72.550781 51.375 74.367188 49.503906 76.242188 C 49.933594 76.421875 50.347656 76.453125 50.765625 76.453125 C 60.6875 76.457031 70.605469 76.453125 80.523438 76.453125 C 82.113281 76.453125 83.703125 76.457031 85.292969 76.460938 C 85.484375 76.460938 85.691406 76.421875 85.84375 76.574219 C 85.878906 76.878906 85.652344 77 85.496094 77.144531 C 81.765625 80.515625 78.433594 84.28125 74.84375 87.792969 C 72.75 89.835938 70.636719 91.863281 68.554688 93.921875 C 67.957031 94.507812 67.304688 94.746094 66.460938 94.761719 C 59.320312 94.898438 52.179688 94.847656 45.035156 94.886719 C 43.929688 94.894531 43.0625 94.59375 42.253906 93.824219 C 39.78125 91.476562 37.492188 88.949219 35.089844 86.535156 C 32.082031 83.511719 29.203125 80.363281 26.320312 77.21875 C 25.347656 76.15625 25.304688 76.132812 26.375 75.144531 C 30.914062 70.949219 35.261719 66.554688 39.667969 62.21875 C 46.21875 55.777344 52.746094 49.316406 59.292969 42.875 C 62.480469 39.742188 65.691406 36.640625 68.886719 33.519531 C 69.179688 33.234375 69.503906 33.15625 69.910156 33.148438 C 77.832031 32.964844 85.757812 33.121094 93.679688 33.023438 C 94.265625 33.015625 94.691406 33.160156 95.152344 33.578125 C 97.917969 36.097656 100.453125 38.839844 103.085938 41.484375 C 103.339844 41.742188 103.542969 41.976562 103.140625 42.285156 C 101.414062 43.613281 100.066406 45.332031 98.484375 46.8125 C 96.847656 48.347656 95.269531 49.949219 93.679688 51.53125 C 93.265625 51.945312 92.777344 52.035156 92.230469 52.035156 C 86.375 52.050781 80.523438 52.222656 74.601562 52.039062 Z M 74.601562 52.039062 "/>
</g>
</svg>
