<?xml version="1.0" encoding="UTF-8"?>
<svg xmlns="http://www.w3.org/2000/svg" xmlns:xlink="http://www.w3.org/1999/xlink" width="128px" height="128px" viewBox="0 0 128 128" version="1.1">
<g id="surface1">
<path style=" stroke:none;fill-rule:nonzero;fill:rgb(57.647061%,56.862748%,96.862745%);fill-opacity:1;" d="M 128 64.035156 C 128 28.625 99.375 0 64.035156 0 C 28.691406 0 0 28.625 0 64.035156 C 0 99.445312 28.625 128.066406 64.035156 128.066406 C 99.445312 128.066406 128 99.375 128 64.035156 Z M 128 64.035156 "/>
<path style=" stroke:none;fill-rule:nonzero;fill:rgb(100%,100%,100%);fill-opacity:1;" d="M 52.074219 67.125 C 57.582031 66.25 61.277344 61.078125 60.40625 55.566406 C 59.53125 50.058594 54.359375 46.363281 48.847656 47.234375 C 43.339844 48.109375 39.644531 53.28125 40.515625 58.792969 C 41.457031 64.300781 46.632812 67.996094 52.074219 67.125 Z M 78.414062 67.125 C 83.921875 66.25 87.617188 61.078125 86.746094 55.566406 C 85.871094 50.058594 80.695312 46.363281 75.1875 47.234375 C 69.675781 48.109375 65.980469 53.28125 66.855469 58.792969 C 67.730469 64.300781 72.902344 67.996094 78.414062 67.125 Z M 78.414062 67.125 "/>
<path style=" stroke:none;fill-rule:nonzero;fill:rgb(100%,100%,100%);fill-opacity:1;" d="M 63.628906 15.65625 C 36.285156 15.65625 14.109375 38.230469 14.109375 66.050781 L 26.742188 66.050781 C 26.742188 45.152344 43.136719 28.289062 63.5625 28.289062 C 84.058594 28.289062 100.382812 45.21875 100.382812 66.050781 L 113.015625 66.050781 C 113.152344 38.230469 90.976562 15.65625 63.628906 15.65625 Z M 63.628906 15.65625 "/>
</g>
</svg>
