<?xml version="1.0" encoding="UTF-8"?>
<svg xmlns="http://www.w3.org/2000/svg" xmlns:xlink="http://www.w3.org/1999/xlink" width="127px" height="128px" viewBox="0 0 127 127" version="1.1">
<g id="surface1">
<path style=" stroke:none;fill-rule:nonzero;fill:rgb(0%,0%,0%);fill-opacity:1;" d="M 98.355469 42.496094 L 87.121094 42.496094 C 85.824219 42.496094 84.578125 41.941406 83.703125 40.964844 L 79.144531 35.847656 C 78.457031 35.082031 77.503906 34.632812 76.46875 34.632812 C 75.4375 34.632812 74.484375 35.082031 73.792969 35.847656 L 69.871094 40.253906 C 68.601562 41.679688 66.746094 42.523438 64.839844 42.523438 L 3.339844 42.523438 C 1.589844 47.457031 0.449219 52.707031 0 58.167969 L 58.054688 58.167969 C 59.089844 58.167969 60.042969 57.746094 60.757812 57.007812 L 66.164062 51.386719 C 66.824219 50.675781 67.777344 50.28125 68.734375 50.28125 L 68.945312 50.28125 C 69.976562 50.28125 70.933594 50.730469 71.621094 51.492188 L 76.179688 56.613281 C 77.054688 57.589844 78.296875 58.144531 79.597656 58.144531 L 126.972656 58.144531 C 126.523438 52.707031 125.382812 47.429688 123.636719 42.46875 Z M 98.355469 42.496094 "/>
<path style=" stroke:none;fill-rule:nonzero;fill:rgb(0%,0%,0%);fill-opacity:1;" d="M 35.136719 91.101562 C 36.167969 91.101562 37.121094 90.679688 37.835938 89.941406 L 43.242188 84.320312 C 43.933594 83.605469 44.859375 83.210938 45.839844 83.210938 L 46.050781 83.210938 C 47.085938 83.210938 48.066406 83.660156 48.726562 84.398438 L 53.285156 89.515625 C 54.160156 90.492188 55.40625 91.046875 56.703125 91.046875 L 120.933594 91.046875 C 123.34375 86.085938 125.09375 80.785156 126.152344 75.214844 L 64.492188 75.214844 C 63.195312 75.214844 61.949219 74.660156 61.074219 73.683594 L 56.519531 68.617188 C 55.828125 67.855469 54.875 67.429688 53.84375 67.429688 C 52.808594 67.429688 51.828125 67.878906 51.164062 68.617188 L 47.242188 73.027344 C 45.972656 74.476562 44.117188 75.292969 42.183594 75.292969 L 0.875 75.292969 C 1.933594 80.863281 3.683594 86.167969 6.09375 91.128906 Z M 35.136719 91.101562 "/>
<path style=" stroke:none;fill-rule:nonzero;fill:rgb(0%,0%,0%);fill-opacity:1;" d="M 80.683594 25.371094 C 81.714844 25.371094 82.671875 24.949219 83.386719 24.210938 L 88.792969 18.589844 C 89.453125 17.878906 90.40625 17.480469 91.386719 17.480469 L 91.601562 17.480469 C 92.632812 17.480469 93.585938 17.929688 94.277344 18.695312 L 98.832031 23.839844 C 99.707031 24.816406 100.953125 25.371094 102.25 25.371094 L 114.46875 25.371094 C 102.835938 9.960938 84.339844 0.0117188 63.511719 0.0117188 C 42.6875 0.0117188 24.164062 9.960938 12.53125 25.371094 Z M 80.683594 25.371094 "/>
<path style=" stroke:none;fill-rule:nonzero;fill:rgb(0%,0%,0%);fill-opacity:1;" d="M 56.171875 106.800781 L 39.480469 106.800781 C 38.183594 106.800781 36.9375 106.246094 36.0625 105.269531 L 31.503906 100.152344 C 30.816406 99.386719 29.863281 98.964844 28.828125 98.964844 C 27.796875 98.964844 26.816406 99.414062 26.152344 100.152344 L 22.230469 104.558594 C 20.960938 106.007812 19.105469 106.828125 17.171875 106.828125 L 16.90625 106.828125 C 28.539062 119.230469 45.097656 127.011719 63.511719 127.011719 C 81.929688 127.011719 98.460938 119.230469 110.121094 106.828125 Z M 56.171875 106.800781 "/>
</g>
</svg>
