<?xml version="1.0" encoding="UTF-8"?>
<svg xmlns="http://www.w3.org/2000/svg" xmlns:xlink="http://www.w3.org/1999/xlink" width="128px" height="128px" viewBox="0 0 128 127" version="1.1">
<g id="surface1">
<path style=" stroke:none;fill-rule:nonzero;fill:rgb(3.921569%,75.686276%,55.686277%);fill-opacity:1;" d="M 128 63.5 C 128 28.429688 99.347656 0 64 0 C 28.652344 0 0 28.429688 0 63.5 C 0 98.570312 28.652344 127 64 127 C 99.347656 127 128 98.570312 128 63.5 Z M 128 63.5 "/>
<path style=" stroke:none;fill-rule:nonzero;fill:rgb(100%,100%,100%);fill-opacity:1;" d="M 83.964844 42.175781 C 80.746094 34.941406 73.355469 33.394531 64.308594 34.894531 L 61.402344 23.707031 L 54.546875 25.464844 L 57.40625 36.617188 C 55.601562 37.070312 53.75 37.457031 51.914062 37.972656 L 49.054688 26.882812 L 42.199219 28.640625 L 45.109375 39.824219 C 43.628906 40.242188 31.269531 43.386719 31.269531 43.386719 L 33.152344 50.671875 C 33.152344 50.671875 38.1875 49.269531 38.140625 49.382812 C 40.933594 48.65625 42.25 50.042969 42.867188 51.347656 L 50.859375 82.003906 C 50.957031 82.886719 50.792969 84.402344 48.878906 84.917969 C 48.992188 84.984375 43.890625 86.191406 43.890625 86.191406 L 44.636719 94.6875 C 44.636719 94.6875 56.886719 91.574219 58.492188 91.171875 L 61.433594 102.488281 L 68.289062 100.730469 L 65.347656 89.335938 C 67.234375 88.898438 69.066406 88.449219 70.855469 87.980469 L 73.777344 99.3125 L 80.632812 97.554688 L 77.695312 86.257812 C 88.25 83.710938 95.707031 77.101562 94.179688 66.996094 C 93.207031 60.90625 86.496094 55.910156 80.925781 55.34375 C 84.351562 52.332031 86.089844 47.929688 83.964844 42.175781 Z M 80.664062 68.851562 C 82.03125 78.859375 68.011719 80.085938 63.382812 81.292969 L 59.355469 66.320312 C 64 65.113281 78.359375 60.035156 80.664062 68.851562 Z M 72.21875 48.464844 C 73.664062 57.359375 61.675781 58.390625 57.8125 59.375 L 54.140625 45.789062 C 58.023438 44.835938 69.277344 40.226562 72.21875 48.464844 Z M 72.21875 48.464844 "/>
</g>
</svg>
