<?xml version="1.0" encoding="UTF-8"?>
<svg xmlns="http://www.w3.org/2000/svg" xmlns:xlink="http://www.w3.org/1999/xlink" width="128px" height="128px" viewBox="0 0 128 128" version="1.1">
<g id="surface1">
<path style=" stroke:none;fill-rule:nonzero;fill:rgb(96.862745%,57.647061%,10.196079%);fill-opacity:1;" d="M 126.074219 79.484375 C 117.527344 113.769531 82.800781 134.636719 48.511719 126.085938 C 14.234375 117.539062 -6.632812 82.808594 1.921875 48.523438 C 10.464844 14.234375 45.191406 -6.632812 79.472656 1.914062 C 113.757812 10.460938 134.621094 45.195312 126.074219 79.484375 Z M 126.074219 79.484375 "/>
<path style=" stroke:none;fill-rule:nonzero;fill:rgb(100%,100%,100%);fill-opacity:1;" d="M 42.941406 74.777344 C 42.59375 75.640625 41.710938 76.9375 39.722656 76.445312 C 39.792969 76.546875 34.617188 75.171875 34.617188 75.171875 L 31.132812 83.210938 L 40.269531 85.488281 C 41.972656 85.914062 43.636719 86.359375 45.277344 86.78125 L 42.371094 98.449219 L 49.386719 100.199219 L 52.261719 88.65625 C 54.179688 89.175781 56.039062 89.65625 57.859375 90.105469 L 54.992188 101.597656 L 62.011719 103.347656 L 64.917969 91.699219 C 76.894531 93.96875 85.898438 93.054688 89.6875 82.222656 C 92.742188 73.503906 89.535156 68.472656 83.234375 65.191406 C 87.824219 64.132812 91.277344 61.117188 92.199219 54.882812 C 93.476562 46.367188 86.992188 41.789062 78.125 38.734375 L 81 27.199219 L 73.976562 25.449219 L 71.179688 36.679688 C 69.332031 36.222656 67.4375 35.785156 65.550781 35.355469 L 68.371094 24.050781 L 61.355469 22.300781 L 58.476562 33.832031 C 56.949219 33.484375 55.449219 33.140625 53.992188 32.777344 L 54 32.742188 L 44.316406 30.324219 L 42.449219 37.824219 C 42.449219 37.824219 47.65625 39.019531 47.546875 39.09375 C 50.390625 39.804688 50.90625 41.683594 50.820312 43.175781 M 76.15625 77.382812 C 73.988281 86.101562 59.304688 81.386719 54.546875 80.203125 L 58.402344 64.746094 C 63.160156 65.933594 78.425781 68.289062 76.15625 77.382812 Z M 78.328125 54.757812 C 76.347656 62.6875 64.128906 58.660156 60.164062 57.671875 L 63.660156 43.652344 C 67.625 44.640625 80.390625 46.484375 78.328125 54.757812 Z M 78.328125 54.757812 "/>
</g>
</svg>
