<?xml version="1.0" encoding="UTF-8"?>
<svg xmlns="http://www.w3.org/2000/svg" xmlns:xlink="http://www.w3.org/1999/xlink" width="128px" height="128px" viewBox="0 0 128 128" version="1.1">
<g id="surface1">
<path style=" stroke:none;fill-rule:evenodd;fill:rgb(94.117647%,72.549021%,4.313726%);fill-opacity:1;" d="M 64 0 C 99.347656 0 128 28.652344 128 64 C 128 99.347656 99.347656 128 64 128 C 28.652344 128 0 99.347656 0 64 C 0 28.652344 28.652344 0 64 0 Z M 64 0 "/>
<path style=" stroke:none;fill-rule:nonzero;fill:rgb(100%,100%,100%);fill-opacity:1;" d="M 35.175781 64 L 35.21875 80.921875 L 49.601562 89.382812 L 49.601562 99.292969 L 26.804688 85.921875 L 26.804688 59.050781 Z M 35.175781 47.078125 L 35.175781 56.9375 L 26.800781 51.984375 L 26.800781 42.125 L 35.175781 37.167969 L 43.589844 42.125 Z M 55.605469 42.125 L 63.980469 37.167969 L 72.394531 42.125 L 63.980469 47.078125 Z M 55.605469 42.125 "/>
<path style=" stroke:none;fill-rule:nonzero;fill:rgb(100%,100%,100%);fill-opacity:1;" d="M 41.226562 77.414062 L 41.226562 67.507812 L 49.601562 72.460938 L 49.601562 82.324219 Z M 55.605469 92.933594 L 63.980469 97.886719 L 72.394531 92.933594 L 72.394531 102.792969 L 63.980469 107.75 L 55.605469 102.792969 Z M 84.40625 42.125 L 92.78125 37.167969 L 101.195312 42.125 L 101.195312 51.984375 L 92.78125 56.9375 L 92.78125 47.078125 Z M 92.78125 80.921875 L 92.824219 64 L 101.199219 59.046875 L 101.199219 85.917969 L 78.40625 99.289062 L 78.40625 89.378906 Z M 92.78125 80.921875 "/>
<path style=" stroke:none;fill-rule:nonzero;fill:rgb(100%,100%,100%);fill-opacity:1;" d="M 86.773438 77.414062 L 78.398438 82.324219 L 78.398438 72.460938 L 86.773438 67.507812 Z M 86.773438 77.414062 "/>
<path style=" stroke:none;fill-rule:nonzero;fill:rgb(100%,100%,100%);fill-opacity:1;" d="M 86.773438 50.585938 L 86.820312 60.492188 L 72.398438 68.953125 L 72.398438 85.917969 L 64.027344 90.824219 L 55.652344 85.917969 L 55.652344 68.953125 L 41.230469 60.492188 L 41.230469 50.585938 L 49.640625 45.628906 L 63.972656 54.132812 L 78.394531 45.628906 L 86.808594 50.585938 Z M 41.226562 33.667969 L 63.980469 20.25 L 86.773438 33.667969 L 78.398438 38.621094 L 63.980469 30.117188 L 49.601562 38.621094 Z M 41.226562 33.667969 "/>
</g>
</svg>
