<?xml version="1.0" encoding="UTF-8"?>
<svg xmlns="http://www.w3.org/2000/svg" xmlns:xlink="http://www.w3.org/1999/xlink" width="138px" height="128px" viewBox="0 0 138 128" version="1.1">
<g id="surface1">
<path style=" stroke:none;fill-rule:nonzero;fill:rgb(0%,20%,67.843139%);fill-opacity:1;" d="M 37.832031 63.539062 C 37.535156 68.667969 41.472656 73.054688 46.589844 73.351562 C 46.773438 73.351562 46.957031 73.351562 47.140625 73.351562 C 52.292969 73.351562 56.453125 69.183594 56.414062 64.019531 C 56.414062 58.855469 52.257812 54.6875 47.105469 54.722656 C 42.171875 54.722656 38.089844 58.597656 37.832031 63.539062 Z M 37.832031 63.539062 "/>
<path style=" stroke:none;fill-rule:nonzero;fill:rgb(0%,20%,67.843139%);fill-opacity:1;" d="M 3.164062 61.140625 C 1.507812 61.03125 0.0742188 62.320312 0 63.980469 C -0.0742188 65.640625 1.175781 67.082031 2.832031 67.152344 C 4.488281 67.265625 5.886719 65.972656 6 64.3125 C 6.109375 62.652344 4.820312 61.25 3.164062 61.140625 Z M 3.164062 61.140625 "/>
<path style=" stroke:none;fill-rule:nonzero;fill:rgb(0%,20%,67.843139%);fill-opacity:1;" d="M 37.242188 9.460938 C 38.714844 8.722656 39.300781 6.878906 38.566406 5.402344 C 37.832031 3.929688 35.992188 3.339844 34.519531 4.074219 C 33.046875 4.8125 32.457031 6.621094 33.195312 8.097656 C 33.929688 9.609375 35.734375 10.234375 37.242188 9.460938 C 37.203125 9.460938 37.242188 9.460938 37.242188 9.460938 Z M 37.242188 9.460938 "/>
<path style=" stroke:none;fill-rule:nonzero;fill:rgb(0%,20%,67.843139%);fill-opacity:1;" d="M 46.664062 25.949219 C 48.945312 24.808594 49.863281 22.003906 48.722656 19.714844 C 47.582031 17.429688 44.785156 16.507812 42.503906 17.652344 C 40.222656 18.792969 39.300781 21.597656 40.441406 23.882812 C 41.585938 26.171875 44.378906 27.09375 46.664062 25.949219 Z M 46.664062 25.949219 "/>
<path style=" stroke:none;fill-rule:nonzero;fill:rgb(0%,20%,67.843139%);fill-opacity:1;" d="M 14.941406 37.273438 C 16.707031 38.417969 19.0625 37.9375 20.238281 36.167969 C 21.378906 34.398438 20.902344 32.035156 19.136719 30.855469 C 17.371094 29.714844 15.015625 30.191406 13.835938 31.964844 C 12.660156 33.734375 13.175781 36.132812 14.941406 37.273438 Z M 14.941406 37.273438 "/>
<path style=" stroke:none;fill-rule:nonzero;fill:rgb(0%,20%,67.843139%);fill-opacity:1;" d="M 20.570312 59.480469 C 17.996094 59.332031 15.824219 61.289062 15.675781 63.871094 C 15.53125 66.453125 17.480469 68.628906 20.054688 68.777344 C 22.632812 68.925781 24.804688 66.96875 24.949219 64.386719 C 25.097656 61.84375 23.148438 59.628906 20.570312 59.480469 Z M 20.570312 59.480469 "/>
<path style=" stroke:none;fill-rule:nonzero;fill:rgb(0%,20%,67.843139%);fill-opacity:1;" d="M 15.457031 90.726562 C 13.578125 91.683594 12.804688 93.972656 13.761719 95.890625 C 14.71875 97.769531 17 98.546875 18.914062 97.585938 C 20.792969 96.628906 21.566406 94.339844 20.609375 92.421875 C 19.652344 90.539062 17.332031 89.765625 15.457031 90.726562 Z M 15.457031 90.726562 "/>
<path style=" stroke:none;fill-rule:nonzero;fill:rgb(0%,20%,67.843139%);fill-opacity:1;" d="M 33.488281 49.855469 C 36.027344 51.511719 39.414062 50.8125 41.03125 48.265625 C 42.6875 45.722656 41.988281 42.328125 39.449219 40.707031 C 36.910156 39.046875 33.523438 39.746094 31.90625 42.292969 C 30.25 44.800781 30.949219 48.195312 33.488281 49.855469 Z M 33.488281 49.855469 "/>
<path style=" stroke:none;fill-rule:nonzero;fill:rgb(0%,20%,67.843139%);fill-opacity:1;" d="M 90.710938 25.582031 C 92.847656 26.984375 95.753906 26.394531 97.152344 24.253906 C 98.550781 22.113281 97.960938 19.199219 95.828125 17.796875 C 93.691406 16.398438 90.785156 16.988281 89.386719 19.125 C 87.953125 21.300781 88.539062 24.179688 90.710938 25.582031 Z M 90.710938 25.582031 "/>
<path style=" stroke:none;fill-rule:nonzero;fill:rgb(0%,20%,67.843139%);fill-opacity:1;" d="M 100.207031 9.167969 C 101.605469 10.089844 103.445312 9.683594 104.363281 8.28125 C 105.285156 6.878906 104.878906 5.035156 103.480469 4.113281 C 102.082031 3.191406 100.242188 3.597656 99.324219 4.960938 C 98.441406 6.363281 98.84375 8.246094 100.207031 9.167969 Z M 100.207031 9.167969 "/>
<path style=" stroke:none;fill-rule:nonzero;fill:rgb(0%,20%,67.843139%);fill-opacity:1;" d="M 91.410156 54.648438 C 86.296875 54.355469 81.878906 58.300781 81.621094 63.429688 C 81.328125 68.554688 85.265625 72.980469 90.378906 73.242188 C 90.566406 73.242188 90.75 73.242188 90.894531 73.242188 C 96.011719 73.242188 100.167969 69.070312 100.167969 63.90625 C 100.207031 59 96.34375 54.90625 91.410156 54.648438 Z M 91.410156 54.648438 "/>
<path style=" stroke:none;fill-rule:nonzero;fill:rgb(0%,20%,67.843139%);fill-opacity:1;" d="M 49.71875 49.191406 C 51.300781 52.324219 54.5 54.316406 58.035156 54.316406 C 63.148438 54.316406 67.308594 50.148438 67.308594 44.984375 C 67.308594 43.546875 66.976562 42.105469 66.3125 40.777344 C 63.996094 36.167969 58.402344 34.324219 53.839844 36.648438 C 49.238281 39.007812 47.398438 44.617188 49.71875 49.191406 Z M 49.71875 49.191406 "/>
<path style=" stroke:none;fill-rule:nonzero;fill:rgb(0%,20%,67.843139%);fill-opacity:1;" d="M 122.542969 37.273438 C 124.421875 36.316406 125.15625 33.992188 124.199219 32.109375 C 123.242188 30.230469 120.925781 29.492188 119.046875 30.449219 C 117.171875 31.410156 116.433594 33.695312 117.355469 35.578125 C 118.347656 37.460938 120.628906 38.234375 122.542969 37.273438 Z M 122.542969 37.273438 "/>
<path style=" stroke:none;fill-rule:nonzero;fill:rgb(0%,20%,67.843139%);fill-opacity:1;" d="M 98.992188 40.226562 C 96.304688 41.589844 95.203125 44.875 96.5625 47.566406 C 97.925781 50.257812 101.199219 51.367188 103.886719 50 C 106.574219 48.636719 107.675781 45.351562 106.316406 42.660156 C 104.953125 39.96875 101.679688 38.898438 98.992188 40.226562 Z M 98.992188 40.226562 "/>
<path style=" stroke:none;fill-rule:nonzero;fill:rgb(0%,20%,67.843139%);fill-opacity:1;" d="M 68.632812 7.765625 C 70.730469 7.875 72.53125 6.253906 72.679688 4.148438 C 72.828125 2.046875 71.171875 0.238281 69.074219 0.09375 C 66.976562 -0.0195312 65.171875 1.566406 65.027344 3.671875 C 64.914062 5.808594 66.535156 7.617188 68.632812 7.765625 Z M 68.632812 7.765625 "/>
<path style=" stroke:none;fill-rule:nonzero;fill:rgb(0%,20%,67.843139%);fill-opacity:1;" d="M 68.59375 31.851562 C 71.613281 32.035156 74.1875 29.714844 74.335938 26.6875 C 74.519531 23.664062 72.203125 21.082031 69.183594 20.933594 C 66.167969 20.75 63.589844 23.074219 63.441406 26.097656 C 63.296875 29.121094 65.578125 31.703125 68.59375 31.851562 Z M 68.59375 31.851562 "/>
<path style=" stroke:none;fill-rule:nonzero;fill:rgb(0%,20%,67.843139%);fill-opacity:1;" d="M 39.007812 87.773438 C 41.695312 86.410156 42.796875 83.125 41.4375 80.433594 C 40.074219 77.742188 36.800781 76.632812 34.113281 78 C 31.425781 79.363281 30.324219 82.648438 31.683594 85.339844 C 33.046875 88.03125 36.320312 89.140625 39.007812 87.773438 Z M 39.007812 87.773438 "/>
<path style=" stroke:none;fill-rule:nonzero;fill:rgb(0%,20%,67.843139%);fill-opacity:1;" d="M 72.128906 39.855469 C 69.332031 44.171875 70.507812 49.925781 74.8125 52.730469 C 79.121094 55.535156 84.859375 54.355469 87.65625 50.039062 C 90.453125 45.722656 89.277344 39.96875 84.972656 37.164062 C 83.460938 36.167969 81.695312 35.652344 79.894531 35.652344 C 76.765625 35.652344 73.859375 37.238281 72.128906 39.855469 Z M 72.128906 39.855469 "/>
<path style=" stroke:none;fill-rule:nonzero;fill:rgb(0%,20%,67.843139%);fill-opacity:1;" d="M 88.28125 78.808594 C 85.964844 74.199219 80.371094 72.355469 75.808594 74.679688 C 71.207031 77.003906 69.367188 82.609375 71.6875 87.183594 C 74.003906 91.792969 79.597656 93.640625 84.160156 91.316406 C 88.726562 89.027344 90.601562 83.496094 88.320312 78.882812 C 88.320312 78.847656 88.320312 78.847656 88.28125 78.808594 Z M 88.28125 78.808594 "/>
<path style=" stroke:none;fill-rule:nonzero;fill:rgb(0%,20%,67.843139%);fill-opacity:1;" d="M 104.511719 78.144531 C 101.972656 76.488281 98.585938 77.1875 96.96875 79.734375 C 95.3125 82.277344 96.011719 85.671875 98.550781 87.292969 C 101.089844 88.953125 104.476562 88.253906 106.09375 85.707031 C 107.75 83.199219 107.050781 79.804688 104.511719 78.144531 Z M 104.511719 78.144531 "/>
<path style=" stroke:none;fill-rule:nonzero;fill:rgb(0%,20%,67.843139%);fill-opacity:1;" d="M 122.324219 64.164062 C 122.46875 61.582031 120.519531 59.40625 117.945312 59.261719 C 115.367188 59.113281 113.195312 61.066406 113.050781 63.648438 C 112.902344 66.230469 114.851562 68.40625 117.429688 68.554688 C 119.96875 68.703125 122.175781 66.710938 122.324219 64.164062 Z M 122.324219 64.164062 "/>
<path style=" stroke:none;fill-rule:nonzero;fill:rgb(0%,20%,67.843139%);fill-opacity:1;" d="M 135.167969 60.847656 C 133.511719 60.734375 132.074219 62.027344 132 63.6875 C 131.929688 65.347656 133.179688 66.785156 134.835938 66.859375 C 136.492188 66.96875 137.890625 65.679688 138 64.019531 C 138.074219 62.359375 136.824219 60.957031 135.167969 60.847656 Z M 135.167969 60.847656 "/>
<path style=" stroke:none;fill-rule:nonzero;fill:rgb(0%,20%,67.843139%);fill-opacity:1;" d="M 123.058594 90.726562 C 121.292969 89.582031 118.9375 90.0625 117.761719 91.832031 C 116.621094 93.601562 117.097656 95.964844 118.863281 97.144531 C 120.628906 98.285156 122.984375 97.808594 124.164062 96.035156 C 125.339844 94.265625 124.824219 91.867188 123.058594 90.726562 Z M 123.058594 90.726562 "/>
<path style=" stroke:none;fill-rule:nonzero;fill:rgb(0%,20%,67.843139%);fill-opacity:1;" d="M 37.757812 118.832031 C 36.359375 117.910156 34.519531 118.316406 33.597656 119.683594 C 32.679688 121.082031 33.082031 122.929688 34.445312 123.851562 C 35.84375 124.773438 37.683594 124.367188 38.601562 123 C 39.558594 121.636719 39.15625 119.753906 37.757812 118.832031 Z M 37.757812 118.832031 "/>
<path style=" stroke:none;fill-rule:nonzero;fill:rgb(0%,20%,67.843139%);fill-opacity:1;" d="M 100.757812 118.539062 C 99.285156 119.277344 98.699219 121.121094 99.433594 122.597656 C 100.167969 124.070312 102.007812 124.660156 103.480469 123.925781 C 104.953125 123.1875 105.542969 121.378906 104.804688 119.902344 C 104.070312 118.390625 102.265625 117.765625 100.757812 118.539062 C 100.796875 118.539062 100.757812 118.539062 100.757812 118.539062 Z M 100.757812 118.539062 "/>
<path style=" stroke:none;fill-rule:nonzero;fill:rgb(0%,20%,67.843139%);fill-opacity:1;" d="M 65.871094 88.144531 C 68.667969 83.828125 67.492188 78.074219 63.1875 75.230469 C 58.878906 72.429688 53.140625 73.609375 50.304688 77.925781 C 47.472656 82.242188 48.6875 87.996094 52.992188 90.835938 C 54.5 91.832031 56.265625 92.347656 58.070312 92.347656 C 61.234375 92.386719 64.140625 90.800781 65.871094 88.144531 Z M 65.871094 88.144531 "/>
<path style=" stroke:none;fill-rule:nonzero;fill:rgb(0%,20%,67.843139%);fill-opacity:1;" d="M 47.289062 102.417969 C 45.152344 101.015625 42.246094 101.605469 40.847656 103.746094 C 39.449219 105.886719 40.039062 108.800781 42.171875 110.203125 C 44.308594 111.601562 47.214844 111.011719 48.613281 108.875 C 50.046875 106.734375 49.460938 103.820312 47.289062 102.417969 Z M 47.289062 102.417969 "/>
<path style=" stroke:none;fill-rule:nonzero;fill:rgb(0%,20%,67.843139%);fill-opacity:1;" d="M 68.964844 120.234375 C 66.867188 120.125 65.0625 121.746094 64.914062 123.851562 C 64.769531 125.953125 66.425781 127.761719 68.523438 127.90625 C 70.621094 128.019531 72.421875 126.433594 72.570312 124.328125 C 72.679688 122.191406 71.0625 120.382812 68.964844 120.234375 Z M 68.964844 120.234375 "/>
<path style=" stroke:none;fill-rule:nonzero;fill:rgb(0%,20%,67.843139%);fill-opacity:1;" d="M 69 96.148438 C 65.980469 95.964844 63.40625 98.285156 63.257812 101.3125 C 63.074219 104.335938 65.394531 106.917969 68.410156 107.066406 C 71.429688 107.214844 74.003906 104.925781 74.152344 101.902344 C 74.335938 98.914062 72.019531 96.296875 69 96.148438 Z M 69 96.148438 "/>
<path style=" stroke:none;fill-rule:nonzero;fill:rgb(0%,20%,67.843139%);fill-opacity:1;" d="M 91.335938 102.050781 C 89.054688 103.230469 88.136719 106.035156 89.3125 108.320312 C 90.492188 110.609375 93.289062 111.53125 95.570312 110.347656 C 97.851562 109.207031 98.769531 106.402344 97.628906 104.117188 C 96.453125 101.828125 93.65625 100.871094 91.335938 102.050781 Z M 91.335938 102.050781 "/>
</g>
</svg>
