<?xml version="1.0" encoding="UTF-8"?>
<svg xmlns="http://www.w3.org/2000/svg" xmlns:xlink="http://www.w3.org/1999/xlink" width="128px" height="128px" viewBox="0 0 128 128" version="1.1">
<g id="surface1">
<path style=" stroke:none;fill-rule:nonzero;fill:rgb(80.392158%,0.392157%,14.117648%);fill-opacity:1;" d="M 75.945312 66.988281 C 75.945312 66.132812 75.945312 65.707031 75.09375 65.28125 C 72.105469 63.148438 68.691406 61.011719 65.707031 58.878906 C 65.0625 58.449219 64.21875 58.449219 63.574219 58.878906 L 54.1875 65.707031 C 53.386719 66.113281 52.890625 66.941406 52.90625 67.839844 C 52.886719 68.761719 52.589844 69.652344 52.054688 70.398438 C 51.621094 71.046875 51.621094 71.886719 52.054688 72.535156 C 55.464844 79.359375 58.453125 86.1875 61.867188 93.011719 C 63.148438 95.148438 64 97.707031 65.28125 100.265625 C 65.707031 99.839844 65.707031 99.414062 66.132812 98.988281 C 69.972656 90.453125 73.386719 81.921875 77.226562 73.386719 C 77.652344 72.535156 77.652344 72.105469 76.800781 71.679688 C 75.828125 70.320312 75.515625 68.601562 75.945312 66.988281 Z M 75.945312 66.988281 "/>
<path style=" stroke:none;fill-rule:nonzero;fill:rgb(80.392158%,0.392157%,14.117648%);fill-opacity:1;" d="M 61.441406 55.894531 C 52.90625 49.921875 44.375 43.945312 36.265625 38.398438 L 35.839844 38.828125 C 36.265625 39.679688 36.265625 40.105469 36.691406 40.960938 L 45.652344 60.160156 C 46.507812 61.867188 46.933594 63.574219 49.492188 64 C 50.230469 64.066406 50.972656 63.917969 51.625 63.574219 C 54.1875 61.441406 57.171875 59.734375 59.734375 57.601562 Z M 61.441406 55.894531 "/>
<path style=" stroke:none;fill-rule:nonzero;fill:rgb(80.392158%,0.392157%,14.117648%);fill-opacity:1;" d="M 64 0 C 28.652344 0 0 28.652344 0 64 C 0 99.347656 28.652344 128 64 128 C 99.347656 128 128 99.347656 128 64 C 128 28.652344 99.347656 0 64 0 Z M 98.558594 37.121094 C 97.707031 37.121094 97.28125 37.546875 96.851562 38.398438 C 93.441406 46.933594 89.601562 55.464844 86.1875 64 L 86.1875 65.707031 C 86.875 67.167969 86.894531 68.855469 86.242188 70.328125 C 85.585938 71.804688 84.320312 72.921875 82.773438 73.386719 C 82.347656 73.386719 81.921875 73.8125 81.492188 74.667969 C 77.652344 83.199219 73.8125 92.160156 70.398438 100.691406 C 69.96875 101.339844 69.96875 102.179688 70.398438 102.828125 C 72.054688 105.097656 71.683594 108.257812 69.546875 110.078125 C 67.695312 111.90625 64.78125 112.089844 62.71875 110.507812 C 61.644531 109.773438 60.90625 108.640625 60.664062 107.359375 C 60.425781 106.078125 60.703125 104.753906 61.441406 103.679688 C 61.863281 102.878906 61.863281 101.921875 61.441406 101.121094 C 57.171875 92.585938 53.332031 84.054688 49.066406 75.519531 C 48.671875 74.640625 47.878906 74.003906 46.933594 73.8125 C 45.167969 73.519531 43.660156 72.378906 42.894531 70.765625 C 42.128906 69.148438 42.203125 67.257812 43.09375 65.707031 C 43.523438 65.0625 43.523438 64.21875 43.09375 63.574219 C 39.253906 55.039062 35.414062 46.933594 31.148438 38.398438 C 31.148438 37.972656 30.71875 37.546875 29.441406 37.546875 C 26.851562 37.183594 24.882812 35.035156 24.746094 32.425781 C 24.90625 30.011719 26.382812 27.878906 28.585938 26.878906 C 30.957031 25.960938 33.640625 26.859375 34.988281 29.011719 C 35.414062 29.867188 35.839844 29.867188 37.121094 29.867188 L 91.308594 29.867188 C 92.160156 29.867188 93.011719 29.867188 93.441406 28.585938 C 94.640625 26.511719 97.167969 25.609375 99.414062 26.453125 C 101.578125 27.273438 103.074219 29.265625 103.253906 31.574219 C 103.285156 34.332031 101.285156 36.695312 98.558594 37.121094 Z M 98.558594 37.121094 "/>
<path style=" stroke:none;fill-rule:nonzero;fill:rgb(80.392158%,0.392157%,14.117648%);fill-opacity:1;" d="M 64 52.90625 C 64.644531 53.339844 65.488281 53.339844 66.132812 52.90625 C 74.238281 46.933594 82.347656 41.386719 90.027344 35.414062 C 90.453125 34.988281 90.878906 34.988281 90.878906 34.558594 L 90.878906 34.132812 L 37.121094 34.132812 C 37.609375 34.3125 38.046875 34.605469 38.398438 34.988281 Z M 64 52.90625 "/>
<path style=" stroke:none;fill-rule:nonzero;fill:rgb(80.392158%,0.392157%,14.117648%);fill-opacity:1;" d="M 68.265625 55.894531 C 71.679688 58.453125 75.09375 60.585938 78.507812 62.71875 C 79.359375 63.148438 80.640625 62.71875 81.921875 62.71875 C 82.347656 62.71875 82.773438 61.867188 82.773438 61.441406 C 85.761719 54.613281 88.746094 47.359375 91.734375 40.535156 C 91.734375 40.105469 92.160156 39.679688 92.160156 39.253906 L 91.734375 39.253906 C 84.480469 44.375 76.375 49.921875 68.265625 55.894531 Z M 68.265625 55.894531 "/>
</g>
</svg>
