<?xml version="1.0" encoding="UTF-8"?>
<svg xmlns="http://www.w3.org/2000/svg" xmlns:xlink="http://www.w3.org/1999/xlink" width="158px" height="128px" viewBox="0 0 157 128" version="1.1">
<g id="surface1">
<path style=" stroke:none;fill-rule:nonzero;fill:rgb(0%,55.29412%,89.411765%);fill-opacity:1;" d="M 102.828125 0.0820312 L 45.671875 0.0820312 L 40.933594 26.640625 L 92.519531 26.703125 C 117.933594 26.703125 125.425781 35.964844 125.210938 51.300781 C 125.089844 59.152344 121.695312 72.464844 120.226562 76.789062 C 116.3125 88.292969 108.269531 101.386719 78.117188 101.359375 L 27.964844 101.328125 L 23.242188 127.917969 L 80.273438 127.917969 C 100.394531 127.917969 108.925781 125.558594 118.011719 121.386719 C 138.101562 112.03125 150.058594 92.15625 154.859375 66.207031 C 161.96875 27.5625 153.101562 0.0820312 102.828125 0.0820312 "/>
<path style=" stroke:none;fill-rule:nonzero;fill:rgb(0%,55.29412%,89.411765%);fill-opacity:1;" d="M 21.007812 50.65625 C 6.023438 50.65625 3.882812 60.441406 2.476562 66.363281 C 0.613281 74.089844 0 77.25 0 77.25 L 58.53125 77.25 C 73.515625 77.25 75.65625 67.464844 77.0625 61.546875 C 78.929688 53.816406 79.539062 50.65625 79.539062 50.65625 Z M 21.007812 50.65625 "/>
</g>
</svg>
