<?xml version="1.0" encoding="UTF-8"?>
<svg xmlns="http://www.w3.org/2000/svg" xmlns:xlink="http://www.w3.org/1999/xlink" width="128px" height="206px" viewBox="0 0 128 207" version="1.1">
<g id="surface1">
<path style=" stroke:none;fill-rule:nonzero;fill:rgb(22.745098%,72.156864%,22.745098%);fill-opacity:1;" d="M 0.00390625 112.730469 C 22.554688 124.691406 46.089844 137.207031 64.261719 146.894531 L 127.996094 112.730469 C 104.917969 146.960938 85.691406 175.460938 64.261719 207 C 42.796875 175.53125 19.089844 140.804688 0.00390625 112.730469 Z M 2.457031 103.289062 L 64.332031 70.320312 L 125.402344 103.046875 L 64.367188 136.054688 Z M 64.261719 59.757812 L 0.00390625 93.535156 L 63.984375 0 L 127.996094 93.742188 Z M 64.261719 59.757812 "/>
<path style=" stroke:none;fill-rule:nonzero;fill:rgb(4.313726%,51.372552%,6.666667%);fill-opacity:1;" d="M 64.261719 146.894531 L 127.996094 112.730469 C 104.917969 146.960938 64.261719 207 64.261719 207 Z M 64.332031 70.320312 L 125.402344 103.046875 L 64.367188 136.054688 Z M 64.261719 59.757812 L 63.984375 0 L 127.996094 93.742188 Z M 64.261719 59.757812 "/>
<path style=" stroke:none;fill-rule:nonzero;fill:rgb(4.313726%,51.372552%,6.666667%);fill-opacity:1;" d="M 2.457031 103.289062 L 64.335938 108.359375 L 125.40625 103.078125 L 64.367188 136.089844 Z M 2.457031 103.289062 "/>
<path style=" stroke:none;fill-rule:nonzero;fill:rgb(7.843138%,40.392157%,7.843138%);fill-opacity:1;" d="M 64.332031 108.359375 L 125.402344 103.078125 L 64.367188 136.089844 Z M 64.332031 108.359375 "/>
</g>
</svg>
