<?xml version="1.0" encoding="UTF-8"?>
<svg xmlns="http://www.w3.org/2000/svg" xmlns:xlink="http://www.w3.org/1999/xlink" width="191px" height="128px" viewBox="0 0 191 128" version="1.1">
<g id="surface1">
<path style=" stroke:none;fill-rule:nonzero;fill:rgb(0%,0%,0%);fill-opacity:1;" d="M 0.0976562 64 C 0.0976562 52.21875 9.613281 42.679688 21.371094 42.679688 C 33.125 42.679688 42.644531 33.140625 42.644531 21.359375 C 42.644531 9.578125 52.199219 0 63.957031 0 C 75.710938 0 85.230469 9.539062 85.230469 21.320312 C 85.230469 33.101562 75.710938 42.640625 63.957031 42.640625 C 52.199219 42.640625 42.683594 52.179688 42.683594 63.960938 C 42.683594 75.742188 52.199219 85.28125 63.957031 85.28125 C 75.710938 85.28125 85.230469 94.820312 85.230469 106.601562 C 85.230469 118.382812 75.710938 127.921875 63.957031 127.921875 C 52.199219 127.921875 42.683594 118.382812 42.683594 106.601562 C 42.683594 94.820312 33.164062 85.28125 21.410156 85.28125 C 9.652344 85.28125 0.0976562 75.78125 0.0976562 64 "/>
<path style=" stroke:none;fill-rule:nonzero;fill:rgb(0%,0%,0%);fill-opacity:1;" d="M 190.902344 64 C 190.902344 75.78125 181.386719 85.320312 169.628906 85.320312 C 157.875 85.320312 148.355469 94.859375 148.355469 106.640625 C 148.355469 118.421875 138.835938 127.960938 127.082031 127.960938 C 115.328125 127.960938 105.808594 118.421875 105.808594 106.640625 C 105.808594 94.859375 115.328125 85.320312 127.082031 85.320312 C 138.835938 85.320312 148.355469 75.78125 148.355469 64 C 148.355469 52.21875 138.835938 42.679688 127.082031 42.679688 C 115.328125 42.679688 105.808594 33.140625 105.808594 21.359375 C 105.808594 9.578125 115.289062 0 127.042969 0 C 138.800781 0 148.316406 9.539062 148.316406 21.320312 C 148.316406 33.101562 157.835938 42.640625 169.589844 42.640625 C 181.386719 42.679688 190.902344 52.21875 190.902344 64 "/>
<path style=" stroke:none;fill-rule:nonzero;fill:rgb(0%,0%,0%);fill-opacity:1;" d="M 116.40625 64 C 116.40625 75.433594 107.15625 84.742188 95.710938 84.742188 C 84.265625 84.742188 75.015625 75.472656 75.015625 64 C 75.015625 52.566406 84.265625 43.257812 95.710938 43.257812 C 107.121094 43.257812 116.40625 52.527344 116.40625 64 "/>
</g>
</svg>
