<?xml version="1.0" encoding="UTF-8"?>
<svg xmlns="http://www.w3.org/2000/svg" xmlns:xlink="http://www.w3.org/1999/xlink" width="128px" height="128px" viewBox="0 0 128 128" version="1.1">
<g id="surface1">
<path style=" stroke:none;fill-rule:nonzero;fill:rgb(100%,100%,100%);fill-opacity:1;" d="M 121.074219 64 C 121.074219 32.480469 95.519531 6.925781 64 6.925781 C 32.480469 6.925781 6.925781 32.480469 6.925781 64 C 6.925781 95.519531 32.480469 121.074219 64 121.074219 C 95.519531 121.074219 121.074219 95.519531 121.074219 64 Z M 121.074219 64 "/>
<path style=" stroke:none;fill-rule:nonzero;fill:rgb(20.392157%,36.470589%,61.56863%);fill-opacity:1;" d="M 64 0 C 28.652344 0 0 28.652344 0 64 C 0 99.347656 28.652344 128 64 128 C 99.347656 128 128 99.347656 128 64 C 128.101562 28.757812 99.617188 0.101562 64.371094 0 Z M 65.085938 66.167969 L 58.421875 88.640625 L 94.0625 88.640625 C 94.539062 88.621094 95.003906 88.796875 95.351562 89.121094 C 95.703125 89.445312 95.90625 89.898438 95.921875 90.375 L 95.921875 90.964844 L 92.824219 101.65625 C 92.542969 102.699219 91.578125 103.40625 90.5 103.359375 L 35.953125 103.359375 L 45.09375 72.214844 L 34.867188 75.3125 L 37.191406 68.183594 L 47.417969 65.085938 L 60.28125 21.386719 C 60.570312 20.351562 61.53125 19.648438 62.605469 19.679688 L 76.398438 19.679688 C 76.875 19.664062 77.335938 19.835938 77.6875 20.164062 C 78.035156 20.488281 78.242188 20.9375 78.257812 21.414062 L 78.257812 22.003906 L 67.410156 58.886719 L 77.636719 55.785156 L 75.46875 63.226562 Z M 65.085938 66.167969 "/>
</g>
</svg>
