<?xml version="1.0" encoding="UTF-8"?>
<svg xmlns="http://www.w3.org/2000/svg" xmlns:xlink="http://www.w3.org/1999/xlink" width="128px" height="128px" viewBox="0 0 128 128" version="1.1">
<g id="surface1">
<path style=" stroke:none;fill-rule:nonzero;fill:rgb(100%,100%,100%);fill-opacity:1;" d="M 127.992188 63.992188 C 127.992188 99.335938 99.34375 127.988281 64 127.988281 C 28.65625 127.988281 0.0078125 99.335938 0.0078125 63.992188 C 0.0078125 28.652344 28.65625 0 64 0 C 99.34375 0 127.992188 28.648438 127.992188 63.992188 Z M 127.992188 63.992188 "/>
<path style=" stroke:none;fill-rule:nonzero;fill:rgb(94.901961%,40.784314%,13.333334%);fill-opacity:1;" d="M 64 0 C 28.667969 0 -0.03125 28.691406 0.015625 63.992188 C 0.0234375 71.054688 1.148438 77.847656 3.261719 84.203125 L 22.410156 84.203125 L 22.410156 30.367188 L 64 71.957031 L 105.589844 30.367188 L 105.589844 84.203125 L 124.738281 84.203125 C 126.855469 77.847656 127.976562 71.054688 127.988281 63.992188 C 128.046875 28.65625 99.335938 0.0078125 64 0.0078125 Z M 64 0 "/>
<path style=" stroke:none;fill-rule:nonzero;fill:rgb(30.19608%,30.19608%,30.19608%);fill-opacity:1;" d="M 54.433594 81.519531 L 36.285156 63.367188 L 36.285156 97.242188 L 22.40625 97.242188 L 9.3125 97.246094 C 20.546875 115.671875 40.84375 128 64 128 C 87.15625 128 107.457031 115.671875 118.6875 97.242188 L 91.710938 97.242188 L 91.710938 63.367188 L 63.996094 91.082031 L 54.4375 81.519531 Z M 54.433594 81.519531 "/>
</g>
</svg>
