<?xml version="1.0" encoding="UTF-8"?>
<svg xmlns="http://www.w3.org/2000/svg" xmlns:xlink="http://www.w3.org/1999/xlink" width="128px" height="128px" viewBox="0 0 128 128" version="1.1">
<g id="surface1">
<path style=" stroke:none;fill-rule:nonzero;fill:rgb(0%,0%,0%);fill-opacity:1;" d="M 102.570312 6.605469 L 75.863281 46.242188 C 74.015625 48.941406 77.566406 52.207031 80.125 49.9375 L 106.40625 27.0625 C 107.117188 26.496094 108.109375 26.921875 108.109375 27.914062 L 108.109375 99.375 C 108.109375 100.367188 106.832031 100.792969 106.265625 100.085938 L 26.707031 4.902344 C 24.152344 1.777344 20.457031 0.0703125 16.335938 0.0703125 L 13.496094 0.0703125 C 6.109375 0.0703125 0 6.179688 0 13.710938 L 0 114.289062 C 0 121.820312 6.109375 127.929688 13.636719 127.929688 C 18.328125 127.929688 22.730469 125.515625 25.289062 121.394531 L 51.996094 81.757812 C 53.84375 79.058594 50.289062 75.792969 47.734375 78.0625 L 21.453125 100.792969 C 20.742188 101.363281 19.746094 100.9375 19.746094 99.941406 L 19.746094 28.625 C 19.746094 27.632812 21.027344 27.207031 21.59375 27.914062 L 101.148438 123.097656 C 103.707031 126.222656 107.542969 127.929688 111.519531 127.929688 L 114.363281 127.929688 C 121.890625 127.929688 128 121.820312 128 114.289062 L 128 13.710938 C 128 6.179688 121.890625 0.0703125 114.363281 0.0703125 C 109.53125 0.0703125 105.128906 2.484375 102.570312 6.605469 Z M 102.570312 6.605469 "/>
</g>
</svg>
