<?xml version="1.0" encoding="UTF-8"?>
<svg xmlns="http://www.w3.org/2000/svg" xmlns:xlink="http://www.w3.org/1999/xlink" width="128px" height="128px" viewBox="0 0 128 128" version="1.1">
<g id="surface1">
<path style=" stroke:none;fill-rule:evenodd;fill:rgb(2.352941%,2.745098%,3.921569%);fill-opacity:1;" d="M 64 9.144531 C 33.714844 9.144531 9.144531 33.714844 9.144531 64 C 9.144531 94.285156 33.714844 118.855469 64 118.855469 L 96.855469 118.855469 C 87.144531 124.570312 76 128 64 128 C 28.570312 128 0 99.144531 0 64 C 0 28.570312 28.570312 0 64 0 C 99.429688 0 128 28.570312 128 64 C 128 67.144531 127.714844 70.285156 127.429688 73.144531 L 118.285156 73.144531 C 118.855469 70.285156 119.144531 67.144531 119.144531 64 C 118.855469 33.714844 94.285156 9.144531 64 9.144531 Z M 64 9.144531 "/>
<path style=" stroke:none;fill-rule:evenodd;fill:rgb(2.352941%,2.745098%,3.921569%);fill-opacity:1;" d="M 116.570312 100.570312 C 114.285156 103.714844 111.429688 106.855469 108.570312 109.714844 L 64 109.714844 C 38.855469 109.714844 18.285156 89.144531 18.285156 64 C 18.285156 38.855469 38.855469 18.285156 64 18.285156 C 89.144531 18.285156 109.714844 38.855469 109.714844 64 C 109.714844 67.144531 109.429688 70.285156 108.855469 73.144531 L 99.429688 73.144531 C 100.285156 70.285156 100.570312 67.144531 100.570312 64 C 100.570312 43.714844 84.285156 27.429688 64 27.429688 C 43.714844 27.429688 27.429688 43.714844 27.429688 64 C 27.429688 84.285156 43.714844 100.570312 64 100.570312 Z M 116.570312 100.570312 "/>
<path style=" stroke:none;fill-rule:evenodd;fill:rgb(2.352941%,2.745098%,3.921569%);fill-opacity:1;" d="M 121.714844 91.429688 C 123.144531 88.570312 124.285156 85.429688 125.144531 82.285156 L 63.714844 82.285156 C 53.714844 82.285156 45.429688 74 45.429688 64 C 45.429688 54 53.714844 45.714844 63.714844 45.714844 C 73.714844 45.714844 82 54 82 64 C 82 67.429688 81.144531 70.570312 79.429688 73.144531 L 89.429688 73.144531 C 90.570312 70.285156 90.855469 67.144531 90.855469 64 C 90.855469 48.855469 78.570312 36.570312 63.429688 36.570312 C 48.285156 36.570312 36 48.855469 36 64 C 36 79.144531 48.285156 91.429688 63.429688 91.429688 Z M 121.714844 91.429688 "/>
</g>
</svg>
