<?xml version="1.0" encoding="UTF-8"?>
<svg xmlns="http://www.w3.org/2000/svg" xmlns:xlink="http://www.w3.org/1999/xlink" width="128px" height="128px" viewBox="0 0 128 128" version="1.1">
<g id="surface1">
<path style=" stroke:none;fill-rule:nonzero;fill:rgb(23.921569%,50.588238%,18.82353%);fill-opacity:1;" d="M 128 64 C 128 28.652344 99.347656 0 64 0 C 28.652344 0 0 28.652344 0 64 C 0 99.347656 28.652344 128 64 128 C 99.347656 128 128 99.347656 128 64 Z M 128 64 "/>
<path style=" stroke:none;fill-rule:nonzero;fill:rgb(23.921569%,50.588238%,18.82353%);fill-opacity:1;" d="M 88.375 84.851562 L 88.351562 84.824219 Z M 88.375 84.851562 "/>
<path style=" stroke:none;fill-rule:nonzero;fill:rgb(23.921569%,50.588238%,18.82353%);fill-opacity:1;" d="M 38.023438 50.75 L 35.148438 56.351562 L 32.175781 62.226562 L 30.074219 67.726562 L 28.675781 73.574219 L 27.800781 79.976562 L 27.273438 85.5 L 26.675781 89.125 L 27.273438 91.949219 L 28.300781 94.375 L 30.199219 97.726562 L 34.601562 100.476562 L 37.851562 101.75 C 38.648438 102 39.5 102.25 40.226562 102.476562 L 44.074219 103.175781 L 49.574219 103.425781 L 54.125 103.425781 C 54.648438 103.425781 59.25 103.175781 59.273438 103.148438 L 65.125 103.25 L 70.773438 102.550781 L 73.226562 101.523438 L 74.898438 99.523438 L 74.976562 96.875 C 74.875 96.648438 74.550781 95.800781 74.449219 95.476562 C 74.375 95.25 73.25 93.925781 72.226562 92.773438 L 72.199219 92.75 C 71.75 92.101562 71.023438 90.976562 71.023438 90.601562 C 71.023438 90.226562 71.476562 89.125 71.574219 88.925781 L 71.625 88.824219 L 73.976562 88.148438 L 75.523438 89.273438 L 76.925781 88.5 L 78.5 86.925781 L 81.25 84.898438 L 83.75 83.476562 L 85.726562 83.101562 L 88.324219 84.875 L 88.148438 84.675781 L 89.226562 83.726562 L 90.226562 82.074219 L 90.226562 80.351562 L 90.023438 79.851562 L 88.75 80.875 L 86.476562 81.523438 L 86.425781 81.523438 L 82.925781 81.449219 L 77.851562 81.976562 L 76.25 82.148438 L 75.023438 81.976562 L 71.75 81.523438 L 68.050781 80.824219 L 62.074219 79.851562 L 62.050781 79.851562 L 56.324219 77.476562 L 51.300781 74.574219 L 48.226562 72.5 L 47.925781 71.023438 L 48.324219 69.648438 L 49.550781 68.75 L 52.398438 69.398438 L 58.625 71.324219 C 61.675781 71.949219 66.324219 72.875 66.625 72.898438 C 66.773438 72.898438 67.375 73 68.875 73.25 C 70.476562 73.5 72.675781 73.875 73.125 73.875 C 73.898438 73.875 79.875 74.199219 80.226562 74.226562 C 80.550781 74.226562 85.398438 74.125 85.925781 74.125 C 86.273438 74.125 88.148438 73.5 89.273438 73.101562 L 90.976562 71.074219 L 92.601562 68.25 C 92.699219 67.425781 92.601562 66.601562 92.300781 65.824219 C 91.898438 64.773438 91.148438 63.875 90.199219 63.273438 C 89.699219 64.226562 89.050781 64.824219 88.300781 65.101562 C 88.023438 65.199219 87.699219 65.25 87.398438 65.25 C 86.949219 65.25 86.5 65.148438 86.125 64.949219 L 86.375 64.5 C 86.925781 64.773438 87.550781 64.824219 88.148438 64.625 C 88.824219 64.375 89.398438 63.773438 89.851562 62.851562 C 89.300781 63.050781 88.699219 63.175781 88.101562 63.175781 C 87.726562 63.175781 87.351562 63.148438 86.976562 63.050781 L 87.023438 62.800781 L 87.074219 62.550781 C 87.101562 62.550781 89.023438 63.023438 90.476562 61.898438 C 91.5 61.125 92.074219 59.726562 92.175781 57.800781 L 90.5 59.773438 L 88.476562 60.699219 C 87.574219 60.925781 84.574219 61.675781 84.300781 61.675781 C 84.199219 61.675781 83.800781 61.625 82.824219 61.449219 C 81.601562 61.25 79.773438 60.976562 79.300781 60.976562 C 78.449219 60.976562 77.25 60.050781 77.125 59.949219 L 76.976562 59.851562 L 77.925781 57.074219 L 80.550781 54.101562 L 83.324219 52.125 L 86.773438 52.125 L 90.023438 52.476562 L 91.425781 54.074219 L 92.101562 55.074219 L 92.101562 52.375 L 89.398438 51.398438 C 89.101562 51.351562 86.425781 50.976562 85.773438 50.976562 C 85.148438 50.976562 82.75 51.351562 82.351562 51.398438 L 78.875 53.648438 L 78.601562 53.226562 L 82.148438 50.925781 L 82.199219 50.925781 C 82.324219 50.898438 85.023438 50.476562 85.75 50.476562 C 86.449219 50.476562 89.351562 50.898438 89.476562 50.925781 L 89.523438 50.949219 L 92.449219 52.023438 L 92.726562 52.175781 L 92.75 51.976562 L 91.375 50.773438 L 88.898438 49.574219 L 85.898438 49.324219 L 82.449219 49.925781 L 81.074219 50.523438 L 80.875 50.050781 L 82.324219 49.425781 L 85.875 48.800781 L 89.023438 49.074219 L 89.148438 49.148438 L 88.199219 47.675781 L 85.523438 45.324219 L 85.550781 45.300781 L 75.148438 45.601562 C 75.148438 45.601562 73.800781 45.773438 72.25 45.976562 L 73.726562 48.101562 L 74.476562 49.425781 L 74.101562 50.75 L 73.601562 50.601562 L 73.925781 49.476562 L 73.273438 48.351562 L 71.699219 46.074219 L 71.800781 46 C 69.851562 46.25 67.773438 46.5 67.648438 46.5 C 67.425781 46.5 59.074219 47.125 58.726562 47.125 C 58.023438 47.074219 57.324219 47 56.648438 46.851562 C 56.523438 46.773438 50.949219 44.75 50.75 44.625 C 50.550781 44.5 48.601562 42.625 48.601562 42.625 L 44.800781 41.449219 L 41.476562 45.550781 Z M 78.601562 62.226562 C 79.101562 62.449219 79.550781 62.726562 80.023438 63 L 82.875 63.324219 L 84.5 62.976562 L 84.601562 63.476562 L 82.898438 63.824219 L 80.925781 63.601562 C 81.773438 64.226562 82.550781 64.925781 83.25 65.726562 C 83.75 66.300781 84.199219 66.925781 84.574219 67.574219 L 84.125 67.824219 C 83.675781 67.074219 83.148438 66.351562 82.523438 65.726562 C 81.699219 64.875 80.773438 64.101562 79.773438 63.476562 L 78.324219 62.648438 Z M 50.023438 52.875 L 52.300781 50.699219 L 54.273438 49.074219 L 57.101562 48.523438 L 60.074219 48.425781 L 63.25 48.425781 L 65.875 48.523438 L 71.199219 48.625 L 72.875 49.648438 L 74.925781 51.523438 L 76.101562 52.976562 L 76.648438 55.925781 L 76.148438 56.023438 L 75.625 53.199219 L 74.550781 51.851562 L 72.574219 50.050781 L 71.074219 49.125 L 66.898438 49.050781 L 68.726562 50.050781 C 69.699219 50.550781 71.375 51.449219 71.550781 51.824219 C 71.675781 52.023438 73 53.324219 74.226562 54.476562 L 74.25 54.5 L 76.125 56.925781 L 76.398438 58.925781 L 75.898438 59 L 75.648438 57.148438 L 73.875 54.851562 C 73.25 54.273438 71.300781 52.425781 71.125 52.074219 C 70.976562 51.875 69.675781 51.125 68.523438 50.523438 L 65.851562 49.050781 L 63.273438 48.976562 L 60.125 48.976562 L 57.175781 49.050781 L 54.550781 49.550781 L 52.675781 51.074219 L 50.550781 53.125 L 50.324219 54.476562 L 50.773438 54.875 L 51.898438 54.273438 L 53.75 51.976562 L 57.101562 50.699219 L 61.449219 50.25 L 65.125 50.601562 L 69.898438 53.074219 L 71.875 54.25 L 73.773438 56.773438 L 74.648438 59.523438 L 75.925781 60.351562 L 75.925781 61.476562 L 74.75 62.550781 L 72.648438 63.425781 L 71.75 64.175781 L 70.800781 65.726562 L 70.324219 66.5 L 70.273438 66.523438 C 69.648438 66.851562 68.550781 67.425781 68.25 67.425781 C 68.023438 67.476562 66.625 68.101562 65.375 68.726562 L 65.25 68.75 C 65.148438 68.773438 62.949219 69.449219 62.398438 69.550781 L 62.324219 69.050781 C 62.800781 68.976562 64.875 68.351562 65.074219 68.273438 C 66.324219 67.675781 67.875 66.949219 68.148438 66.949219 C 68.75 66.726562 69.324219 66.449219 69.898438 66.125 L 70.125 65.75 L 71.273438 63.875 L 71.550781 63.648438 C 70.75 63.574219 69.699219 63.449219 69.425781 63.300781 C 69.300781 63.25 68.550781 63.148438 64.625 63.148438 C 63.648438 63.148438 61.351562 62.625 61.023438 62.523438 C 60.773438 62.449219 58.425781 61.75 58.398438 61.75 L 58.351562 61.726562 L 58.300781 61.675781 C 58.273438 61.648438 56.101562 59.574219 54.5 58.648438 L 54.75 58.199219 C 56.300781 59.101562 58.273438 60.949219 58.625 61.273438 C 59 61.375 60.949219 61.976562 61.199219 62.050781 C 61.476562 62.148438 63.726562 62.648438 64.625 62.648438 C 69.351562 62.648438 69.550781 62.773438 69.675781 62.875 C 69.851562 62.976562 70.976562 63.101562 71.925781 63.175781 L 71.898438 63.351562 L 72.273438 63.023438 L 74.375 62.148438 L 75.300781 61.300781 L 75.300781 60.675781 L 74.648438 60.25 L 74.675781 60.324219 L 72.5 61.125 L 69.5 61.476562 C 69.351562 61.476562 68.699219 61.5 67.976562 61.5 C 67.125 61.5 66.199219 61.476562 65.925781 61.375 C 65.523438 61.25 63 60.699219 61.75 60.425781 L 61.726562 60.425781 L 61.699219 60.398438 C 60.125 59.550781 58.175781 58.476562 58.023438 58.199219 C 57.898438 58.050781 56.925781 57.550781 56.101562 57.148438 L 56.074219 57.148438 L 53.300781 55.523438 L 52.925781 55.601562 L 52.875 55.273438 L 52 54.773438 L 50.648438 55.5 L 49.699219 54.675781 Z M 51.175781 64.851562 L 51.300781 65.351562 L 49.601562 65.75 L 48.75 65.949219 L 48.699219 65.75 L 48.625 65.449219 Z M 52.25 67.226562 L 52.125 67.726562 C 51.550781 67.601562 50.949219 67.625 50.375 67.726562 C 49.425781 67.898438 48.023438 68.449219 46.675781 70 L 46.300781 69.675781 C 49.074219 66.425781 52.125 67.175781 52.25 67.226562 Z M 52.25 67.226562 "/>
<path style=" stroke:none;fill-rule:nonzero;fill:rgb(23.921569%,50.588238%,18.82353%);fill-opacity:1;" d="M 55.675781 54.574219 C 55.824219 54.550781 59.375 54.125 59.824219 54.125 C 60 54.125 60.5 54.175781 61.148438 54.226562 C 62.023438 54.300781 63.5 54.425781 63.726562 54.398438 C 64.074219 54.300781 67.574219 54 67.976562 53.949219 L 70.050781 53.800781 L 69.625 53.550781 L 64.949219 51.125 L 61.425781 50.773438 L 57.175781 51.199219 L 54.023438 52.398438 L 52.425781 54.398438 L 53.449219 55 Z M 55.675781 54.574219 "/>
<path style=" stroke:none;fill-rule:nonzero;fill:rgb(23.921569%,50.588238%,18.82353%);fill-opacity:1;" d="M 68 54.476562 C 66.449219 54.625 64.074219 54.851562 63.824219 54.898438 C 63.601562 54.949219 62.800781 54.898438 61.101562 54.75 C 60.523438 54.699219 59.976562 54.648438 59.824219 54.648438 C 59.476562 54.648438 56.773438 54.976562 55.75 55.074219 L 54.101562 55.375 L 56.351562 56.699219 C 57.050781 57.023438 58.25 57.625 58.449219 57.925781 C 58.648438 58.125 60.351562 59.101562 61.925781 59.949219 C 62.324219 60.023438 65.625 60.75 66.125 60.925781 C 66.476562 61.050781 68.398438 61.023438 69.523438 61 L 72.476562 60.648438 L 74.25 59.976562 L 74.148438 59.925781 L 73.25 57.074219 L 71.476562 54.699219 L 70.425781 54.074219 L 70.449219 54.324219 Z M 68 54.476562 "/>
<path style=" stroke:none;fill-rule:nonzero;fill:rgb(23.921569%,50.588238%,18.82353%);fill-opacity:1;" d="M 91.101562 54.273438 L 89.851562 52.875 L 86.800781 52.523438 L 83.550781 52.523438 L 80.925781 54.398438 L 78.425781 57.226562 L 77.625 59.550781 C 78.023438 59.851562 78.824219 60.351562 79.351562 60.351562 C 79.875 60.351562 81.574219 60.625 82.949219 60.851562 C 83.601562 60.949219 84.25 61.050781 84.351562 61.050781 C 84.574219 61.023438 86.925781 60.449219 88.375 60.101562 L 90.226562 59.25 L 91.699219 57.550781 L 91.574219 56.75 L 87.023438 54.898438 L 81.199219 54.726562 L 81.226562 54.226562 L 87.148438 54.398438 L 92.050781 56.398438 L 92.25 57.675781 C 92.25 57.601562 92.25 57.523438 92.25 57.449219 L 92.25 56.050781 Z M 91.101562 54.273438 "/>
<path style=" stroke:none;fill-rule:nonzero;fill:rgb(23.921569%,50.588238%,18.82353%);fill-opacity:1;" d="M 85.648438 83.601562 L 83.949219 83.925781 L 81.550781 85.300781 L 78.851562 87.300781 L 78.101562 88.050781 L 79.800781 89.25 L 79.925781 90.199219 L 78.773438 91.351562 L 78.425781 91 L 79.398438 90.023438 L 79.351562 89.550781 L 77.75 88.425781 L 77.273438 88.898438 L 76.273438 89.449219 L 76 90.800781 L 77.398438 92.023438 L 79.425781 91.949219 C 79.800781 91.675781 80.425781 91.273438 80.726562 91.25 C 81.023438 91.074219 81.324219 90.875 81.601562 90.648438 C 82.273438 90.125 82.550781 89.949219 82.75 89.949219 C 83.351562 89.648438 83.925781 89.324219 84.476562 88.949219 L 84.550781 88.898438 L 87 89.175781 L 87.851562 90.023438 L 87.675781 90.199219 C 87.148438 90.773438 86.550781 91.523438 86.523438 91.699219 C 86.523438 91.824219 86.5 91.949219 86.449219 92.050781 L 87.023438 91.726562 L 89.726562 89.800781 L 90.023438 90.226562 L 87.273438 92.175781 L 86 92.875 C 85.949219 92.949219 85.898438 93.023438 85.875 93.050781 L 85.773438 92.976562 L 83.824219 94.050781 L 82.476562 96 L 82 97.148438 L 82.976562 98.523438 L 84.050781 99.75 L 85.324219 99.898438 L 86.5 99.648438 L 86.476562 99.398438 L 87.773438 97.351562 L 90.226562 94.976562 L 90.574219 95.351562 L 88.148438 97.699219 L 86.976562 99.523438 L 87.050781 100.898438 L 88.300781 101.75 L 89.949219 101.925781 L 90.875 101.648438 L 90.699219 101.375 L 90.824219 101.226562 C 90.875 101.148438 92.226562 99.625 92.5 99.375 C 92.699219 99.175781 93.851562 97.851562 94.425781 97.199219 L 94.800781 97.523438 C 94.726562 97.601562 93.125 99.476562 92.851562 99.726562 C 92.648438 99.925781 91.675781 101 91.324219 101.398438 L 92.199219 102.699219 L 93.675781 102.699219 L 94.949219 102.125 L 96 100.574219 L 97.398438 99.074219 L 97.773438 99.425781 L 96.375 100.898438 L 95.300781 102.523438 L 93.773438 103.199219 L 91.925781 103.199219 L 91.148438 102.050781 L 89.976562 102.398438 L 88.101562 102.226562 L 86.550781 101.148438 L 86.5 100.148438 L 85.324219 100.398438 L 83.773438 100.199219 L 82.601562 98.851562 L 80.851562 97.800781 L 79.023438 95.773438 L 78.574219 92.625 L 79.074219 92.550781 L 79.449219 95.25 L 81.625 93.523438 L 83.976562 91.273438 L 85.324219 89.425781 L 84.675781 89.351562 C 83.949219 89.824219 83.101562 90.351562 82.800781 90.398438 C 82.5 90.574219 82.199219 90.773438 81.925781 91 C 81.226562 91.523438 80.949219 91.699219 80.773438 91.699219 C 80.398438 91.875 80.023438 92.101562 79.699219 92.351562 L 79.625 92.398438 L 77.25 92.5 L 75.476562 90.925781 L 75.726562 89.726562 L 75.550781 89.824219 L 73.949219 88.675781 L 72.074219 89.226562 C 71.875 89.675781 71.726562 90.125 71.625 90.601562 C 71.648438 90.800781 72.199219 91.726562 72.699219 92.449219 C 73.375 93.199219 74.925781 94.976562 75.023438 95.351562 C 75.101562 95.625 75.425781 96.425781 75.550781 96.726562 L 75.574219 96.773438 L 75.5 100.175781 L 76.476562 101.625 C 76.976562 101.925781 80.648438 104.074219 81.074219 104.324219 C 81.375 104.5 84.023438 105.25 85.648438 105.699219 L 91.125 106.226562 L 95.523438 105.625 L 99.300781 103.898438 L 101.351562 101.925781 L 100.875 100.175781 L 98.351562 95.476562 L 96.523438 92.699219 L 93.351562 89.25 L 88.675781 86.675781 L 87.976562 85.175781 Z M 85.648438 83.601562 "/>
<path style=" stroke:none;fill-rule:nonzero;fill:rgb(59.607846%,23.137255%,12.156863%);fill-opacity:1;" d="M 89.625 73.476562 L 89.550781 73.5 C 89.050781 73.675781 86.5 74.574219 85.949219 74.574219 C 85.425781 74.574219 80.300781 74.648438 80.25 74.675781 C 80.175781 74.675781 73.925781 74.324219 73.148438 74.324219 C 72.648438 74.324219 70.625 74 68.824219 73.699219 C 67.824219 73.523438 66.800781 73.375 66.648438 73.375 C 66.300781 73.375 59.824219 72.050781 58.523438 71.800781 L 58.5 71.800781 L 52.273438 69.875 L 49.675781 69.300781 L 48.773438 69.976562 L 48.476562 71.050781 L 48.699219 72.199219 L 51.601562 74.148438 L 56.574219 77.023438 L 62.226562 79.375 L 68.148438 80.324219 L 71.851562 81.023438 L 76.273438 81.625 L 82.925781 80.925781 L 82.949219 80.925781 L 86.425781 81 L 88.523438 80.398438 L 90.300781 78.976562 L 91.75 76.75 L 92.074219 75.726562 L 91.601562 74.574219 C 89.5 76.476562 89.273438 76.550781 89.148438 76.574219 L 87 77.101562 L 81.023438 77.375 L 81 77.375 L 74.75 77.023438 L 68.550781 75.898438 L 63.550781 76 L 63.523438 76 L 58.324219 74.675781 L 53.726562 73.074219 L 51.273438 71.574219 L 51.550781 71.148438 L 53.976562 72.625 L 58.5 74.199219 L 63.625 75.5 L 68.625 75.398438 L 68.648438 75.398438 L 74.851562 76.523438 L 81.050781 76.875 L 86.976562 76.625 L 89.050781 76.101562 C 89.175781 76.050781 89.875 75.5 91.351562 74.148438 C 91.550781 73.976562 91.675781 73.851562 91.726562 73.800781 L 93.625 71.199219 L 94.273438 69.976562 C 94.175781 69.550781 94.074219 69.148438 94.023438 68.726562 C 93.773438 68.324219 93.5 67.976562 93.175781 67.625 C 93.175781 67.851562 93.175781 68.074219 93.125 68.300781 L 93.125 68.351562 L 91.398438 71.324219 Z M 89.625 73.476562 "/>
<path style=" stroke:none;fill-rule:nonzero;fill:rgb(0%,0%,0%);fill-opacity:1;" d="M 101.273438 100 L 98.726562 95.25 L 96.875 92.425781 L 93.675781 88.851562 L 89.050781 86.324219 L 88.375 84.875 L 88.25 84.949219 C 88.25 84.949219 88.675781 86.5 88.976562 86.648438 C 89.273438 86.800781 93.273438 88.851562 93.476562 88.949219 C 93.675781 89.050781 97.148438 93.199219 97.148438 93.199219 L 99.949219 98.074219 L 101.625 101.824219 C 101.625 101.824219 99.476562 104.023438 99.351562 104.050781 C 99.226562 104.074219 95.074219 106.101562 94.949219 106.101562 C 94.824219 106.101562 90.800781 106.550781 90.574219 106.5 C 90.351562 106.425781 85.398438 106 85.023438 105.976562 C 84.625 105.949219 80.050781 104.125 80.050781 104.125 L 76.101562 101.75 L 74.976562 100 L 73.398438 101.773438 C 73.398438 101.773438 71.175781 102.898438 70.875 102.898438 C 70.574219 102.898438 65.125 103.625 64.699219 103.625 L 53.726562 103.625 C 53.726562 103.625 42.875 103.425781 42.398438 103.199219 C 42.25 103.125 41.375 102.851562 40.226562 102.476562 L 39.300781 102.300781 L 37.851562 101.75 C 36.074219 101.199219 34.476562 100.726562 34.476562 100.726562 L 30 97.824219 C 30 97.824219 28.125 94.574219 28.050781 94.398438 C 27.976562 94.226562 26.824219 91.5 26.824219 91.375 C 26.824219 91.25 26.425781 89.074219 26.425781 89.074219 L 27.226562 84.101562 L 27.574219 78.875 L 28.425781 73.175781 C 28.425781 73.175781 29.851562 67.449219 29.875 67.199219 C 29.898438 66.925781 32.199219 61.273438 32.199219 61.273438 L 34.625 56.898438 L 37.824219 50.300781 L 41.351562 45.324219 L 44.773438 41.25 L 45 41.324219 L 44.601562 41 L 41.273438 45.125 L 37.574219 50.5 L 34.675781 56.148438 L 31.699219 62 L 29.574219 67.550781 L 28.148438 73.449219 L 27.273438 79.898438 L 26.75 85.425781 L 26.125 89.148438 L 26.75 92.101562 L 27.824219 94.601562 L 29.800781 98.101562 L 34.324219 100.949219 L 39.101562 102.824219 L 43.976562 103.726562 L 49.550781 104 L 54.101562 104 C 54.625 104 59 103.75 59.273438 103.726562 L 65.148438 103.824219 L 65.175781 103.824219 L 70.898438 103.125 L 70.925781 103.125 L 73.550781 102.023438 L 74.898438 100.398438 L 76.023438 102.074219 L 76.074219 102.101562 C 76.125 102.125 80.300781 104.550781 80.726562 104.824219 C 81.175781 105.101562 85 106.148438 85.449219 106.25 L 91.050781 106.773438 L 95.550781 106.148438 L 95.574219 106.148438 L 99.476562 104.375 L 99.523438 104.351562 L 101.851562 102.101562 Z M 101.273438 100 "/>
<path style=" stroke:none;fill-rule:nonzero;fill:rgb(0%,0%,0%);fill-opacity:1;" d="M 41.351562 45.324219 L 37.824219 50.300781 L 34.625 56.898438 L 32.199219 61.273438 C 32.199219 61.273438 29.898438 66.925781 29.875 67.199219 C 29.851562 67.476562 28.425781 73.175781 28.425781 73.175781 L 27.574219 78.875 L 27.226562 84.101562 L 26.425781 89.074219 C 26.425781 89.074219 26.824219 91.25 26.824219 91.375 C 26.824219 91.5 27.976562 94.226562 28.050781 94.398438 C 28.125 94.574219 30 97.824219 30 97.824219 L 34.476562 100.726562 C 34.476562 100.726562 36.074219 101.199219 37.851562 101.75 L 34.601562 100.476562 L 30.199219 97.726562 L 28.300781 94.375 L 27.273438 91.949219 L 26.675781 89.125 L 27.273438 85.5 L 27.800781 79.976562 L 28.675781 73.574219 L 30.074219 67.726562 L 32.175781 62.226562 L 35.148438 56.351562 L 38.023438 50.75 L 41.699219 45.425781 L 45.023438 41.324219 L 44.800781 41.25 Z M 41.351562 45.324219 "/>
<path style=" stroke:none;fill-rule:nonzero;fill:rgb(0%,0%,0%);fill-opacity:1;" d="M 85.75 83.074219 L 83.773438 83.449219 L 81.273438 84.875 L 78.523438 86.898438 L 76.949219 88.476562 L 75.550781 89.25 L 74 88.125 L 71.648438 88.800781 L 71.601562 88.898438 C 71.5 89.125 71.050781 90.199219 71.050781 90.574219 C 71.050781 90.949219 71.800781 92.101562 72.226562 92.726562 L 72.25 92.75 C 73.273438 93.898438 74.398438 95.226562 74.476562 95.449219 C 74.550781 95.773438 74.898438 96.625 75 96.851562 L 74.925781 99.5 L 73.25 101.5 L 70.800781 102.523438 L 65.148438 103.226562 L 59.300781 103.125 C 59.25 103.125 54.648438 103.398438 54.148438 103.398438 L 49.601562 103.398438 L 44.101562 103.148438 L 40.25 102.449219 C 41.375 102.800781 42.273438 103.101562 42.425781 103.175781 C 42.875 103.398438 53.75 103.601562 53.75 103.601562 L 64.726562 103.601562 C 65.148438 103.601562 70.625 102.875 70.898438 102.875 C 71.199219 102.875 73.425781 101.75 73.425781 101.75 L 75 99.976562 L 76.125 101.726562 L 80.074219 104.101562 C 80.074219 104.101562 84.648438 105.898438 85.050781 105.949219 C 85.449219 105.976562 90.375 106.398438 90.601562 106.476562 C 90.824219 106.550781 94.851562 106.074219 94.976562 106.074219 C 95.101562 106.074219 99.25 104.074219 99.375 104.023438 C 99.5 104 101.648438 101.800781 101.648438 101.800781 L 99.976562 98.050781 L 97.175781 93.175781 C 97.175781 93.175781 93.699219 89.023438 93.5 88.925781 C 93.300781 88.824219 89.300781 86.773438 89 86.625 C 88.699219 86.476562 88.273438 84.925781 88.273438 84.925781 L 88.398438 84.851562 L 88.398438 84.824219 Z M 88.648438 86.675781 L 93.324219 89.25 L 96.449219 92.699219 L 98.273438 95.476562 L 100.800781 100.175781 L 101.273438 101.925781 L 99.226562 103.898438 L 95.449219 105.625 L 91.050781 106.226562 L 85.574219 105.699219 C 83.949219 105.25 81.300781 104.5 81 104.324219 C 80.574219 104.074219 76.898438 101.925781 76.398438 101.625 L 75.425781 100.175781 L 75.5 96.773438 L 75.5 96.75 C 75.375 96.449219 75.050781 95.648438 74.976562 95.375 C 74.875 95 73.324219 93.226562 72.648438 92.476562 C 72.148438 91.726562 71.574219 90.800781 71.574219 90.625 C 71.675781 90.148438 71.824219 89.699219 72.023438 89.25 L 73.898438 88.699219 L 75.5 89.851562 L 75.675781 89.75 L 75.425781 90.949219 L 77.199219 92.523438 L 79.574219 92.425781 L 79.648438 92.375 C 79.976562 92.125 80.351562 91.898438 80.726562 91.726562 C 80.925781 91.726562 81.175781 91.550781 81.875 91.023438 C 82.148438 90.800781 82.449219 90.601562 82.75 90.425781 C 83.050781 90.398438 83.925781 89.851562 84.625 89.375 L 85.273438 89.449219 L 83.925781 91.300781 L 81.574219 93.550781 L 79.398438 95.273438 L 79.023438 92.574219 L 78.523438 92.648438 L 78.976562 95.800781 L 80.800781 97.824219 L 82.550781 98.875 L 83.726562 100.226562 L 85.273438 100.425781 L 86.449219 100.175781 L 86.5 101.175781 L 88.050781 102.25 L 89.925781 102.425781 L 91.101562 102.074219 L 91.875 103.226562 L 93.726562 103.226562 L 95.25 102.550781 L 96.324219 100.925781 L 97.726562 99.449219 L 97.351562 99.101562 L 95.949219 100.601562 L 94.898438 102.148438 L 93.625 102.726562 L 92.148438 102.726562 L 91.273438 101.425781 C 91.625 101.023438 92.601562 99.949219 92.800781 99.75 C 93.074219 99.476562 94.675781 97.625 94.75 97.550781 L 94.375 97.226562 C 93.800781 97.898438 92.648438 99.199219 92.449219 99.398438 C 92.175781 99.675781 90.824219 101.199219 90.773438 101.25 L 90.648438 101.398438 L 90.824219 101.675781 L 89.898438 101.949219 L 88.25 101.773438 L 87 100.925781 L 86.925781 99.550781 L 88.101562 97.726562 L 90.523438 95.375 L 90.175781 95 L 87.726562 97.375 L 86.425781 99.425781 L 86.449219 99.675781 L 85.273438 99.925781 L 84 99.773438 L 82.925781 98.550781 L 81.949219 97.175781 L 82.425781 96.023438 L 83.773438 94.074219 L 85.726562 93 L 85.824219 93.074219 C 85.851562 93.023438 85.898438 92.976562 85.949219 92.898438 L 87.226562 92.199219 L 89.976562 90.25 L 89.675781 89.824219 L 86.976562 91.75 L 86.398438 92.074219 C 86.449219 91.976562 86.476562 91.851562 86.476562 91.726562 C 86.5 91.523438 87.101562 90.800781 87.625 90.226562 L 87.800781 90.050781 L 86.949219 89.199219 L 84.5 88.925781 L 84.425781 88.976562 C 83.875 89.351562 83.300781 89.699219 82.699219 89.976562 C 82.5 89.976562 82.226562 90.175781 81.550781 90.675781 C 81.273438 90.898438 80.976562 91.101562 80.675781 91.273438 C 80.375 91.300781 79.773438 91.699219 79.375 91.976562 L 77.351562 92.050781 L 75.949219 90.824219 L 76.226562 89.476562 L 77.226562 88.925781 L 77.699219 88.449219 L 79.300781 89.574219 L 79.351562 90.050781 L 78.375 91.023438 L 78.726562 91.375 L 79.875 90.226562 L 79.75 89.273438 L 78.050781 88.074219 L 78.800781 87.324219 L 81.5 85.324219 L 83.898438 83.949219 L 85.601562 83.625 L 87.898438 85.199219 Z M 81.800781 97.851562 L 81.125 97.449219 L 79.625 95.800781 L 81.925781 94 L 84.300781 91.699219 L 85.851562 89.550781 L 86.726562 89.648438 L 87.101562 90.023438 C 86.625 90.550781 85.976562 91.324219 85.976562 91.675781 C 85.898438 91.976562 85.75 92.25 85.574219 92.476562 L 83.398438 93.675781 L 81.949219 95.75 L 81.351562 97.25 Z M 81.800781 97.851562 "/>
<path style=" stroke:none;fill-rule:nonzero;fill:rgb(0%,0%,0%);fill-opacity:1;" d="M 87.925781 46.898438 L 89.199219 48.574219 C 89.199219 48.574219 89.824219 49.550781 90.050781 49.625 C 90.273438 49.699219 92.351562 50.898438 92.351562 50.898438 L 93.199219 51.851562 L 93.023438 52.398438 L 92.375 52.199219 L 92.476562 55.425781 L 92.675781 55.425781 L 92.675781 52.523438 L 93.25 52.851562 L 93.398438 51.625 L 91.773438 50.199219 L 90.023438 49.351562 L 90.101562 49.300781 L 88.75 47.175781 L 86.023438 44.773438 L 85.726562 45.125 L 86 45.125 Z M 87.925781 46.898438 "/>
<path style=" stroke:none;fill-rule:nonzero;fill:rgb(0%,0%,0%);fill-opacity:1;" d="M 92.175781 60.074219 C 92.175781 60.074219 91.25 61.925781 91.148438 61.976562 C 91.050781 62.050781 90.226562 62.398438 90.226562 62.398438 L 90.300781 62.851562 C 90.675781 63.125 91.050781 63.425781 91.375 63.75 C 91.425781 63.824219 91.976562 64.925781 92.425781 65.75 L 92.875 65.75 C 92.449219 64.5 91.601562 63.425781 90.476562 62.75 C 90.523438 62.648438 90.574219 62.523438 90.625 62.425781 C 90.699219 62.375 90.800781 62.324219 90.875 62.25 C 92.101562 61.324219 92.726562 59.726562 92.800781 57.476562 L 92.800781 55.898438 L 92.5 55.449219 L 92.574219 57.875 Z M 92.175781 60.074219 "/>
<path style=" stroke:none;fill-rule:nonzero;fill:rgb(0%,0%,0%);fill-opacity:1;" d="M 88.375 47.550781 L 89.324219 49.023438 L 89.199219 48.949219 L 86.050781 48.675781 L 82.5 49.300781 L 81.050781 49.925781 L 81.25 50.398438 L 82.625 49.800781 L 86.074219 49.199219 L 89.074219 49.449219 L 91.550781 50.648438 L 92.925781 51.851562 L 92.898438 52.050781 L 92.625 51.898438 L 89.699219 50.824219 L 89.648438 50.800781 C 89.523438 50.773438 86.648438 50.351562 85.925781 50.351562 C 85.199219 50.351562 82.5 50.773438 82.375 50.800781 L 82.324219 50.800781 L 78.773438 53.101562 L 79.050781 53.523438 L 82.523438 51.273438 C 82.925781 51.226562 85.324219 50.851562 85.949219 50.851562 C 86.601562 50.851562 89.273438 51.25 89.574219 51.273438 L 92.273438 52.25 L 92.273438 55 L 91.601562 54 L 90.199219 52.398438 L 86.949219 52.050781 L 83.5 52.050781 L 80.726562 54.023438 L 78.101562 57 L 77.148438 59.773438 L 77.300781 59.875 C 77.425781 59.976562 78.625 60.898438 79.476562 60.898438 C 79.949219 60.898438 81.800781 61.199219 83 61.375 C 83.976562 61.523438 84.375 61.601562 84.476562 61.601562 C 84.75 61.601562 87.75 60.851562 88.648438 60.625 L 90.675781 59.699219 L 92.351562 57.726562 C 92.25 59.648438 91.675781 61.050781 90.648438 61.824219 C 89.175781 62.949219 87.25 62.476562 87.25 62.476562 L 87.148438 62.976562 C 87.523438 63.050781 87.898438 63.101562 88.273438 63.101562 C 88.875 63.101562 89.476562 63 90.023438 62.773438 C 89.574219 63.699219 89 64.300781 88.324219 64.550781 C 87.75 64.75 87.101562 64.699219 86.550781 64.425781 L 86.300781 64.875 C 86.699219 65.074219 87.148438 65.175781 87.574219 65.175781 C 87.875 65.175781 88.175781 65.125 88.476562 65.023438 C 89.226562 64.75 89.851562 64.148438 90.375 63.199219 C 91.324219 63.800781 92.074219 64.699219 92.476562 65.75 L 92.550781 65.75 C 92.125 64.925781 91.550781 63.824219 91.5 63.75 C 91.148438 63.425781 90.800781 63.125 90.425781 62.851562 L 90.351562 62.398438 C 90.351562 62.398438 91.175781 62.050781 91.273438 61.976562 C 91.375 61.898438 92.300781 60.074219 92.300781 60.074219 L 92.699219 57.898438 L 92.625 55.476562 L 92.523438 52.25 L 93.175781 52.449219 L 93.351562 51.898438 L 92.5 50.949219 C 92.5 50.949219 90.425781 49.726562 90.199219 49.675781 C 89.976562 49.601562 89.351562 48.625 89.351562 48.625 L 88.074219 46.949219 L 86.125 45.199219 L 85.851562 45.199219 L 85.824219 45.226562 Z M 92.273438 57.675781 L 92.074219 56.398438 L 87.175781 54.398438 L 81.25 54.226562 L 81.226562 54.726562 L 87.050781 54.898438 L 91.601562 56.75 L 91.726562 57.550781 L 90.25 59.25 L 88.398438 60.101562 C 86.949219 60.449219 84.601562 61.023438 84.375 61.050781 C 84.273438 61.050781 83.625 60.949219 82.976562 60.851562 C 81.601562 60.625 79.898438 60.351562 79.375 60.351562 C 78.875 60.351562 78.074219 59.851562 77.648438 59.550781 L 78.449219 57.226562 L 80.949219 54.398438 L 83.574219 52.523438 L 86.824219 52.523438 L 89.875 52.875 L 91.125 54.273438 L 92.300781 56.050781 L 92.300781 57.449219 C 92.273438 57.523438 92.273438 57.601562 92.273438 57.675781 Z M 92.273438 57.675781 "/>
<path style=" stroke:none;fill-rule:nonzero;fill:rgb(0%,0%,0%);fill-opacity:1;" d="M 76.300781 82.101562 L 77.898438 81.925781 L 75.074219 81.925781 Z M 76.300781 82.101562 "/>
<path style=" stroke:none;fill-rule:nonzero;fill:rgb(0%,0%,0%);fill-opacity:1;" d="M 90.523438 82.023438 C 90.449219 82.148438 89 84.5 89 84.5 L 88.351562 84.851562 L 88.5 85.023438 L 89.648438 84.023438 L 90.75 82.175781 L 90.75 81.925781 L 90.523438 81.925781 C 90.550781 81.976562 90.550781 82 90.523438 82.023438 Z M 90.523438 82.023438 "/>
<path style=" stroke:none;fill-rule:nonzero;fill:rgb(0%,0%,0%);fill-opacity:1;" d="M 90.523438 82.023438 C 90.523438 82 90.550781 81.949219 90.550781 81.925781 L 90.273438 81.925781 L 90.273438 82.023438 L 89.273438 83.675781 L 88.199219 84.625 L 88.375 84.824219 L 88.398438 84.851562 L 89.050781 84.5 C 89.023438 84.5 90.476562 82.175781 90.523438 82.023438 Z M 90.523438 82.023438 "/>
<path style=" stroke:none;fill-rule:nonzero;fill:rgb(0%,0%,0%);fill-opacity:1;" d="M 92.925781 66.699219 L 93.148438 67.023438 C 93.101562 66.601562 93.023438 66.175781 92.875 65.75 L 92.425781 65.75 C 92.699219 66.273438 92.925781 66.699219 92.925781 66.699219 Z M 92.925781 66.699219 "/>
<path style=" stroke:none;fill-rule:nonzero;fill:rgb(0%,0%,0%);fill-opacity:1;" d="M 94.550781 69.5 C 94.523438 69.625 94.226562 70.625 94.148438 70.773438 C 94.074219 70.949219 91.726562 74.175781 91.726562 74.175781 L 92.273438 75.300781 C 92.273438 75.300781 92.375 76.101562 92.300781 76.226562 C 92.226562 76.351562 90.148438 79.574219 90.148438 79.574219 L 90.476562 80.476562 C 90.476562 80.476562 90.550781 81.601562 90.523438 81.949219 L 90.75 81.949219 L 90.75 80.226562 L 90.476562 79.476562 L 90.699219 79.300781 L 92.226562 76.949219 L 92.625 75.675781 L 92.023438 74.199219 C 92.074219 74.148438 92.101562 74.125 92.101562 74.125 L 94.050781 71.449219 L 94.824219 70.023438 L 94.800781 69.925781 C 94.699219 69.523438 94.601562 69.101562 94.550781 68.675781 C 94.550781 68.574219 94.550781 68.300781 93.25 66.925781 L 93.148438 67.023438 L 93.925781 68.125 C 93.925781 68.125 94.574219 69.375 94.550781 69.5 Z M 94.550781 69.5 "/>
<path style=" stroke:none;fill-rule:nonzero;fill:rgb(0%,0%,0%);fill-opacity:1;" d="M 92.425781 65.75 L 92.351562 65.75 C 92.648438 66.523438 92.75 67.351562 92.648438 68.175781 L 91 71 L 89.300781 73.023438 C 88.148438 73.425781 86.273438 74.050781 85.949219 74.050781 C 85.425781 74.050781 80.574219 74.125 80.25 74.148438 C 79.875 74.125 73.925781 73.800781 73.148438 73.800781 C 72.699219 73.800781 70.5 73.449219 68.898438 73.175781 C 67.425781 72.925781 66.800781 72.824219 66.648438 72.824219 C 66.324219 72.800781 61.699219 71.875 58.648438 71.25 L 52.425781 69.324219 L 49.574219 68.675781 L 48.351562 69.574219 L 47.949219 70.949219 L 48.25 72.425781 L 51.324219 74.5 L 56.351562 77.398438 L 62.074219 79.773438 L 62.101562 79.773438 L 68.074219 80.75 L 71.773438 81.449219 L 75.050781 81.898438 L 77.898438 81.898438 L 82.976562 81.375 L 86.476562 81.449219 L 86.523438 81.449219 L 88.800781 80.800781 L 90.074219 79.773438 L 90.273438 80.273438 L 90.273438 81.898438 L 90.550781 81.898438 C 90.574219 81.550781 90.5 80.425781 90.5 80.425781 L 90.175781 79.523438 C 90.175781 79.523438 92.25 76.300781 92.324219 76.175781 C 92.398438 76.050781 92.300781 75.25 92.300781 75.25 L 91.75 74.125 C 91.75 74.125 94.125 70.898438 94.175781 70.726562 C 94.25 70.550781 94.523438 69.574219 94.574219 69.449219 C 94.601562 69.324219 93.949219 68.074219 93.949219 68.074219 L 93.175781 66.976562 L 92.949219 66.648438 C 92.925781 66.699219 92.699219 66.273438 92.425781 65.75 Z M 93.148438 68.300781 C 93.175781 68.074219 93.199219 67.851562 93.199219 67.625 C 93.523438 67.949219 93.800781 68.324219 94.050781 68.726562 C 94.101562 69.148438 94.175781 69.574219 94.300781 69.976562 L 93.648438 71.199219 L 91.75 73.800781 C 91.699219 73.851562 91.550781 73.976562 91.375 74.148438 C 89.898438 75.5 89.226562 76.023438 89.074219 76.101562 L 87 76.625 L 81.074219 76.875 L 74.875 76.523438 L 68.675781 75.398438 L 68.648438 75.398438 L 63.648438 75.5 L 58.523438 74.199219 L 54 72.625 L 51.574219 71.148438 L 51.300781 71.574219 L 53.75 73.074219 L 58.351562 74.675781 L 63.550781 76 L 63.574219 76 L 68.574219 75.898438 L 74.773438 77.023438 L 81.023438 77.375 L 81.050781 77.375 L 87.023438 77.101562 L 89.175781 76.574219 C 89.273438 76.550781 89.523438 76.476562 91.625 74.574219 L 92.101562 75.726562 L 91.773438 76.75 L 90.324219 78.976562 L 88.550781 80.398438 L 86.449219 81 L 82.976562 80.925781 L 82.949219 80.925781 L 76.300781 81.625 L 71.875 81.023438 L 68.175781 80.324219 L 62.25 79.375 L 56.601562 77.023438 L 51.625 74.148438 L 48.726562 72.199219 L 48.5 71.050781 L 48.800781 69.976562 L 49.699219 69.300781 L 52.300781 69.875 L 58.523438 71.800781 L 58.550781 71.800781 C 59.851562 72.074219 66.300781 73.375 66.675781 73.375 C 66.800781 73.375 67.851562 73.550781 68.851562 73.699219 C 70.648438 74 72.675781 74.324219 73.175781 74.324219 C 73.949219 74.324219 80.199219 74.675781 80.273438 74.675781 C 80.324219 74.675781 85.449219 74.574219 85.976562 74.574219 C 86.523438 74.574219 89.074219 73.675781 89.574219 73.5 L 89.648438 73.476562 L 91.449219 71.324219 L 93.175781 68.351562 Z M 93.148438 68.300781 "/>
<path style=" stroke:none;fill-rule:nonzero;fill:rgb(0%,0%,0%);fill-opacity:1;" d="M 50.375 67.726562 C 50.949219 67.601562 51.550781 67.601562 52.125 67.726562 L 52.25 67.226562 C 52.125 67.199219 49.074219 66.425781 46.300781 69.675781 L 46.675781 70 C 48.023438 68.425781 49.425781 67.898438 50.375 67.726562 Z M 50.375 67.726562 "/>
<path style=" stroke:none;fill-rule:nonzero;fill:rgb(0%,0%,0%);fill-opacity:1;" d="M 49.574219 65.75 L 51.273438 65.351562 L 51.175781 64.851562 L 48.625 65.449219 L 48.699219 65.75 Z M 49.574219 65.75 "/>
<path style=" stroke:none;fill-rule:nonzero;fill:rgb(0%,0%,0%);fill-opacity:1;" d="M 48.75 65.949219 L 49.574219 65.75 L 48.699219 65.75 Z M 48.75 65.949219 "/>
<path style=" stroke:none;fill-rule:nonzero;fill:rgb(0%,0%,0%);fill-opacity:1;" d="M 79.824219 63.5 C 80.824219 64.148438 81.75 64.898438 82.574219 65.75 L 83.273438 65.75 C 82.574219 64.949219 81.800781 64.25 80.949219 63.625 L 82.925781 63.851562 L 84.625 63.5 L 84.523438 63 L 82.898438 63.351562 L 80.050781 63.023438 C 79.601562 62.726562 79.125 62.476562 78.625 62.25 L 78.398438 62.699219 Z M 79.824219 63.5 "/>
<path style=" stroke:none;fill-rule:nonzero;fill:rgb(0%,0%,0%);fill-opacity:1;" d="M 84.148438 67.851562 L 84.601562 67.601562 C 84.226562 66.949219 83.773438 66.324219 83.273438 65.75 L 82.574219 65.75 C 83.175781 66.398438 83.699219 67.101562 84.148438 67.851562 Z M 84.148438 67.851562 "/>
<path style=" stroke:none;fill-rule:nonzero;fill:rgb(0%,0%,0%);fill-opacity:1;" d="M 52 54.773438 L 52.875 55.273438 L 52.925781 55.601562 L 53.300781 55.523438 L 56.074219 57.148438 L 56.101562 57.148438 C 56.925781 57.550781 57.898438 58.050781 58.023438 58.199219 C 58.199219 58.449219 60.125 59.523438 61.699219 60.398438 L 61.726562 60.425781 L 61.75 60.425781 C 63.023438 60.699219 65.523438 61.25 65.925781 61.375 C 66.226562 61.476562 67.148438 61.5 67.976562 61.5 C 68.699219 61.5 69.375 61.476562 69.5 61.476562 L 72.5 61.125 L 74.675781 60.324219 L 74.648438 60.25 L 75.300781 60.675781 L 75.300781 61.300781 L 74.375 62.148438 L 72.273438 63.023438 L 71.898438 63.351562 L 71.925781 63.175781 C 70.976562 63.101562 69.851562 62.949219 69.675781 62.875 C 69.550781 62.800781 69.351562 62.648438 64.625 62.648438 C 63.726562 62.648438 61.476562 62.148438 61.199219 62.050781 C 60.949219 61.976562 59 61.375 58.625 61.273438 C 58.300781 60.949219 56.324219 59.125 54.75 58.199219 L 54.5 58.648438 C 56.125 59.601562 58.300781 61.648438 58.300781 61.675781 L 58.351562 61.726562 L 58.398438 61.75 C 58.425781 61.75 60.773438 62.449219 61.023438 62.523438 C 61.324219 62.625 63.625 63.148438 64.625 63.148438 C 68.550781 63.148438 69.273438 63.25 69.425781 63.300781 C 69.699219 63.449219 70.75 63.574219 71.550781 63.648438 L 71.273438 63.875 L 70.125 65.75 L 70.726562 65.75 L 71.675781 64.199219 L 72.574219 63.449219 L 74.675781 62.574219 L 75.851562 61.5 L 75.851562 60.375 L 74.574219 59.550781 L 73.699219 56.800781 L 71.800781 54.273438 L 69.824219 53.101562 L 65.050781 50.625 L 61.375 50.273438 L 57.023438 50.726562 L 53.675781 52 L 51.824219 54.300781 L 50.699219 54.898438 L 50.25 54.5 L 50.476562 53.148438 L 52.601562 51.101562 L 54.476562 49.574219 L 57.101562 49.074219 L 60.050781 49 L 63.199219 49 L 65.773438 49.074219 L 68.449219 50.550781 C 69.601562 51.148438 70.925781 51.898438 71.050781 52.101562 C 71.226562 52.449219 73.175781 54.300781 73.800781 54.875 L 75.574219 57.175781 L 75.824219 59.023438 L 76.324219 58.949219 L 76.050781 56.949219 L 74.175781 54.523438 L 74.148438 54.5 C 72.925781 53.375 71.601562 52.074219 71.476562 51.851562 C 71.300781 51.476562 69.625 50.574219 68.648438 50.074219 L 66.824219 49.074219 L 71 49.148438 L 72.5 50.074219 L 74.476562 51.875 L 75.550781 53.226562 L 76.074219 56.050781 L 76.574219 55.949219 L 76.023438 53 L 74.851562 51.550781 L 72.800781 49.675781 L 71.125 48.648438 L 65.800781 48.550781 L 63.175781 48.449219 L 60 48.449219 L 57.023438 48.550781 L 54.199219 49.101562 L 52.226562 50.726562 L 49.949219 52.898438 L 49.648438 54.699219 L 50.601562 55.523438 Z M 71.5 54.675781 L 73.273438 57.050781 L 74.175781 59.898438 L 74.273438 59.949219 L 72.5 60.625 L 69.550781 60.976562 C 68.425781 61 66.5 61.023438 66.148438 60.898438 C 65.648438 60.726562 62.351562 60.023438 61.949219 59.925781 C 60.375 59.074219 58.648438 58.101562 58.476562 57.898438 C 58.273438 57.625 57.074219 57.023438 56.375 56.675781 L 54.125 55.351562 L 55.773438 55.050781 C 56.800781 54.925781 59.5 54.625 59.851562 54.625 C 60 54.625 60.550781 54.675781 61.125 54.726562 C 62.824219 54.875 63.625 54.925781 63.851562 54.875 C 64.101562 54.824219 66.476562 54.574219 68.023438 54.449219 L 70.476562 54.273438 L 70.449219 54.023438 Z M 54 52.425781 L 57.148438 51.226562 L 61.398438 50.800781 L 64.925781 51.148438 L 69.601562 53.574219 L 70.023438 53.824219 L 67.949219 53.976562 C 67.550781 54 64.050781 54.324219 63.699219 54.425781 C 63.476562 54.476562 62.023438 54.324219 61.125 54.25 C 60.476562 54.199219 59.976562 54.148438 59.800781 54.148438 C 59.351562 54.148438 55.800781 54.574219 55.648438 54.601562 L 53.398438 55.023438 L 52.375 54.425781 Z M 54 52.425781 "/>
<path style=" stroke:none;fill-rule:nonzero;fill:rgb(0%,0%,0%);fill-opacity:1;" d="M 69.898438 66.125 C 69.324219 66.449219 68.75 66.699219 68.148438 66.949219 C 67.875 66.949219 66.324219 67.675781 65.074219 68.273438 C 64.851562 68.351562 62.800781 68.976562 62.324219 69.050781 L 62.398438 69.550781 C 62.925781 69.449219 65.148438 68.773438 65.25 68.75 L 65.273438 68.726562 C 66.523438 68.125 67.949219 67.476562 68.148438 67.425781 C 68.449219 67.398438 69.550781 66.851562 70.175781 66.523438 L 70.226562 66.5 L 70.699219 65.726562 L 70.101562 65.726562 Z M 69.898438 66.125 "/>
<path style=" stroke:none;fill-rule:nonzero;fill:rgb(0%,0%,0%);fill-opacity:1;" d="M 72.300781 45.648438 L 71.976562 45.875 C 72.125 45.851562 72.273438 45.851562 72.425781 45.824219 Z M 72.300781 45.648438 "/>
<path style=" stroke:none;fill-rule:nonzero;fill:rgb(0%,0%,0%);fill-opacity:1;" d="M 73.476562 48.226562 L 74.125 49.351562 L 73.800781 50.476562 L 74.300781 50.625 L 74.675781 49.300781 L 73.925781 47.976562 L 72.449219 45.851562 C 72.300781 45.875 72.148438 45.875 72 45.898438 L 71.898438 45.976562 Z M 73.476562 48.226562 "/>
<path style=" stroke:none;fill-rule:nonzero;fill:rgb(78.431374%,15.294118%,15.294118%);fill-opacity:1;" d="M 88.773438 47.625 L 91 47.398438 C 91 47.398438 96.550781 49.050781 96.773438 49.273438 C 97 49.5 99.800781 50.726562 99.800781 50.726562 L 101.449219 50.875 L 101.675781 49.375 L 100.449219 47.625 L 96.925781 45.023438 L 92.898438 43.074219 L 90.375 42.199219 L 89.476562 29.449219 L 87.351562 26.273438 L 84.175781 23.675781 L 80.074219 21.648438 L 75.824219 21.574219 L 67.824219 22.574219 L 60.476562 24.023438 L 60.050781 22.773438 C 59.476562 22.625 58.898438 22.523438 58.324219 22.449219 C 57.898438 22.449219 54 23.648438 54 23.648438 L 51.625 24.898438 L 51.125 26.351562 L 47.726562 28.226562 L 44.976562 31.675781 L 43.398438 35 C 43.398438 35 42.601562 38.324219 42.601562 38.523438 C 42.601562 38.726562 43.023438 40.550781 43.324219 40.675781 C 43.625 40.800781 45.851562 41.398438 45.851562 41.398438 L 48.773438 42.851562 L 53 45.300781 L 58.25 47.023438 C 58.25 47.023438 63.226562 46.675781 63.726562 46.675781 C 64.226562 46.675781 71.726562 45.875 72.148438 45.875 C 72.574219 45.875 80.800781 45.226562 81.023438 45.226562 C 81.25 45.226562 86.148438 45.148438 86.148438 45.148438 L 88.101562 46.875 Z M 88.773438 47.625 "/>
<path style=" stroke:none;fill-rule:nonzero;fill:rgb(0%,0%,0%);fill-opacity:1;" d="M 86.824219 54.699219 L 87.476562 56.074219 L 87.875 57.648438 L 87.675781 58.648438 L 86.824219 60.824219 L 84.125 61.273438 L 79.773438 60.5 L 79.25 58.976562 L 79.449219 57.601562 L 79.898438 55.425781 L 81.023438 54.175781 L 81.75 54.574219 L 86.550781 54.699219 "/>
<path style=" stroke:none;fill-rule:nonzero;fill:rgb(0%,0%,0%);fill-opacity:1;" d="M 67.023438 54.5 L 67.824219 56.023438 L 67.898438 57.875 L 67.5 59.523438 L 66.648438 60.851562 L 65.273438 60.925781 L 60 59.351562 L 57.898438 57.5 L 58.175781 56.324219 L 58.898438 55.199219 L 59.875 54.425781 L 63.574219 54.523438 C 63.523438 54.5 66.875 54.773438 67.023438 54.5 Z M 67.023438 54.5 "/>
<path style=" stroke:none;fill-rule:nonzero;fill:rgb(0%,0%,0%);fill-opacity:1;" d="M 101 47.824219 L 98.949219 46.023438 L 96 44.050781 L 91.148438 42.273438 L 90.476562 42 L 90.273438 37.824219 C 90.023438 35.773438 89.675781 32.675781 89.675781 32.425781 C 89.675781 32.074219 89.5 29.523438 89.5 29.425781 L 89.5 29.375 L 88.050781 26.75 L 85.625 24.25 L 81.898438 22.125 L 78.800781 21.25 L 74.550781 21.25 L 70.375 21.773438 C 68.699219 22.050781 66.074219 22.476562 65.773438 22.476562 C 65.324219 22.476562 61.824219 23.273438 61.425781 23.351562 L 60.199219 23.675781 L 60.398438 23.574219 L 60 22.773438 L 58.699219 22.273438 L 56.800781 22.449219 L 53.75 23.199219 L 51.449219 24.675781 L 50.976562 25.898438 L 51.300781 26.023438 L 50.023438 26.351562 L 49.976562 26.351562 L 47.273438 28.050781 L 45.398438 30.175781 L 43.699219 33.023438 L 42.351562 37.675781 L 42.351562 39.351562 L 43.226562 40.898438 L 48.699219 42.851562 L 50.523438 44.5 L 54.601562 46.351562 L 58.199219 47.25 L 64.925781 46.800781 L 74.648438 45.75 L 81.574219 45.226562 L 87.324219 45.300781 L 93.398438 46.175781 L 98.199219 48.449219 L 98.425781 48 L 93.574219 45.699219 L 87.398438 44.824219 L 81.574219 44.726562 L 74.625 45.25 L 64.898438 46.300781 L 58.273438 46.726562 L 54.824219 45.875 L 50.851562 44.050781 L 49 42.375 L 43.601562 40.449219 L 42.898438 39.199219 L 42.898438 37.726562 L 44.199219 33.226562 L 45.851562 30.476562 L 47.648438 28.425781 L 50.226562 26.800781 L 61.574219 23.824219 C 63.050781 23.5 65.523438 22.949219 65.824219 22.949219 C 66.273438 22.949219 70.074219 22.324219 70.5 22.25 L 74.601562 21.726562 L 78.75 21.726562 L 81.675781 22.574219 L 85.300781 24.648438 L 87.625 27.050781 L 88.976562 29.523438 C 89.023438 30.449219 89.148438 32.175781 89.148438 32.425781 C 89.148438 32.773438 89.699219 37.375 89.773438 37.875 L 89.976562 41.800781 L 87.023438 40.675781 L 81.199219 40.050781 L 76.800781 39.601562 L 72.476562 39.949219 L 67.476562 40.476562 L 61.648438 41.800781 L 57.273438 42.851562 L 54.351562 43.023438 L 50.601562 42.273438 L 52.5 43.648438 L 54.050781 44.550781 L 57.601562 45.425781 L 61.074219 45.523438 L 61.101562 45.523438 L 64.199219 45.175781 L 68.574219 44.476562 L 72.851562 43.773438 L 77.648438 43.425781 L 80.976562 43.25 L 84.976562 43.5 L 90.398438 44.199219 L 97.398438 45.523438 L 98.625 46.324219 L 100.574219 48.023438 L 101.125 49.300781 L 101 50.25 L 99.949219 50.324219 L 97.898438 49.375 L 94.125 47.875 L 91.148438 46.976562 L 88.550781 47.25 L 88.601562 47.75 L 91.101562 47.5 L 93.925781 48.351562 L 97.675781 49.824219 L 99.851562 50.824219 L 101.425781 50.726562 L 101.648438 49.226562 Z M 51.5 25.949219 L 51.875 25 L 53.949219 23.675781 L 56.875 22.976562 L 58.648438 22.800781 L 59.648438 23.175781 L 59.925781 23.726562 Z M 90.476562 43.800781 L 90.425781 44.050781 L 90.476562 43.800781 L 85 43.101562 L 80.949219 42.824219 L 77.601562 43 L 72.773438 43.351562 L 68.449219 44.050781 L 64.074219 44.75 L 61.023438 45.101562 L 57.648438 45.023438 L 54.199219 44.175781 L 52.75 43.324219 L 52.726562 43.324219 L 54.25 43.625 L 57.273438 43.449219 L 61.699219 42.398438 L 67.476562 41.101562 L 72.449219 40.574219 L 76.726562 40.226562 L 81.074219 40.648438 L 86.824219 41.25 L 90.925781 42.824219 L 95.726562 44.574219 L 96.273438 44.949219 Z M 90.476562 43.800781 "/>
<path style=" stroke:none;fill-rule:nonzero;fill:rgb(100%,100%,100%);fill-opacity:1;" d="M 66.507812 56.925781 C 66.300781 56.222656 65.457031 55.855469 64.621094 56.105469 C 63.789062 56.351562 63.28125 57.121094 63.488281 57.824219 C 63.699219 58.523438 64.542969 58.890625 65.378906 58.644531 C 66.210938 58.394531 66.71875 57.625 66.507812 56.925781 Z M 66.507812 56.925781 "/>
<path style=" stroke:none;fill-rule:nonzero;fill:rgb(100%,100%,100%);fill-opacity:1;" d="M 61.949219 57.851562 C 61.949219 57.492188 61.660156 57.199219 61.300781 57.199219 C 60.941406 57.199219 60.648438 57.492188 60.648438 57.851562 C 60.648438 58.207031 60.941406 58.5 61.300781 58.5 C 61.660156 58.5 61.949219 58.207031 61.949219 57.851562 Z M 61.949219 57.851562 "/>
<path style=" stroke:none;fill-rule:nonzero;fill:rgb(100%,100%,100%);fill-opacity:1;" d="M 61.550781 55.824219 C 61.550781 55.464844 61.257812 55.175781 60.898438 55.175781 C 60.542969 55.175781 60.25 55.464844 60.25 55.824219 C 60.25 56.183594 60.542969 56.476562 60.898438 56.476562 C 61.257812 56.476562 61.550781 56.183594 61.550781 55.824219 Z M 61.550781 55.824219 "/>
<path style=" stroke:none;fill-rule:nonzero;fill:rgb(100%,100%,100%);fill-opacity:1;" d="M 82.675781 58.726562 C 82.675781 58.394531 82.40625 58.125 82.074219 58.125 C 81.742188 58.125 81.476562 58.394531 81.476562 58.726562 C 81.476562 59.054688 81.742188 59.324219 82.074219 59.324219 C 82.40625 59.324219 82.675781 59.054688 82.675781 58.726562 Z M 82.675781 58.726562 "/>
<path style=" stroke:none;fill-rule:nonzero;fill:rgb(100%,100%,100%);fill-opacity:1;" d="M 82.648438 56.398438 C 82.648438 56.042969 82.359375 55.75 82 55.75 C 81.640625 55.75 81.351562 56.042969 81.351562 56.398438 C 81.351562 56.757812 81.640625 57.050781 82 57.050781 C 82.359375 57.050781 82.648438 56.757812 82.648438 56.398438 Z M 82.648438 56.398438 "/>
<path style=" stroke:none;fill-rule:nonzero;fill:rgb(100%,100%,100%);fill-opacity:1;" d="M 86.75 57.726562 C 86.75 57.074219 86.222656 56.550781 85.574219 56.550781 C 84.925781 56.550781 84.398438 57.074219 84.398438 57.726562 C 84.398438 58.375 84.925781 58.898438 85.574219 58.898438 C 86.222656 58.898438 86.75 58.375 86.75 57.726562 Z M 86.75 57.726562 "/>
</g>
</svg>
