<?xml version="1.0" encoding="UTF-8"?>
<svg xmlns="http://www.w3.org/2000/svg" xmlns:xlink="http://www.w3.org/1999/xlink" width="120px" height="128px" viewBox="0 0 120 127" version="1.1">
<g id="surface1">
<path style=" stroke:none;fill-rule:nonzero;fill:rgb(90.196079%,0%,47.843137%);fill-opacity:1;" d="M 83.003906 13.320312 C 83.003906 5.964844 72.703125 0 59.996094 0 C 47.289062 0 36.988281 5.964844 36.988281 13.320312 C 36.988281 20.675781 47.289062 26.636719 59.996094 26.636719 C 72.703125 26.636719 83.003906 20.675781 83.003906 13.320312 Z M 83.003906 13.320312 "/>
<path style=" stroke:none;fill-rule:nonzero;fill:rgb(90.196079%,0%,47.843137%);fill-opacity:1;" d="M 83.003906 113.671875 C 83.003906 106.316406 72.703125 100.355469 59.996094 100.355469 C 47.289062 100.355469 36.988281 106.316406 36.988281 113.671875 C 36.988281 121.027344 47.289062 126.992188 59.996094 126.992188 C 72.703125 126.992188 83.003906 121.027344 83.003906 113.671875 Z M 83.003906 113.671875 "/>
<path style=" stroke:none;fill-rule:nonzero;fill:rgb(90.196079%,0%,47.843137%);fill-opacity:1;" d="M 27.839844 18.578125 C 21.433594 14.898438 11.09375 20.792969 4.738281 31.746094 C -1.613281 42.699219 -1.574219 54.5625 4.832031 58.242188 C 11.234375 61.921875 21.578125 56.027344 27.929688 45.074219 C 34.285156 34.121094 34.242188 22.257812 27.839844 18.578125 Z M 27.839844 18.578125 "/>
<path style=" stroke:none;fill-rule:nonzero;fill:rgb(90.196079%,0%,47.843137%);fill-opacity:1;" d="M 115.160156 68.753906 C 108.757812 65.074219 98.417969 70.972656 92.066406 81.925781 C 85.710938 92.878906 85.75 104.738281 92.148438 108.417969 C 98.550781 112.09375 108.890625 106.195312 115.242188 95.246094 C 121.597656 84.292969 121.558594 72.429688 115.160156 68.753906 Z M 115.160156 68.753906 "/>
<path style=" stroke:none;fill-rule:nonzero;fill:rgb(90.196079%,0%,47.843137%);fill-opacity:1;" d="M 27.933594 81.917969 C 21.582031 70.964844 11.238281 65.070312 4.832031 68.75 C -1.570312 72.429688 -1.613281 84.292969 4.742188 95.246094 C 11.09375 106.199219 21.4375 112.09375 27.84375 108.414062 C 34.246094 104.734375 34.289062 92.871094 27.933594 81.917969 Z M 27.933594 81.917969 "/>
<path style=" stroke:none;fill-rule:nonzero;fill:rgb(90.196079%,0%,47.843137%);fill-opacity:1;" d="M 115.246094 31.753906 C 108.894531 20.800781 98.554688 14.902344 92.15625 18.582031 C 85.753906 22.257812 85.71875 34.121094 92.070312 45.070312 C 98.425781 56.023438 108.761719 61.921875 115.164062 58.242188 C 121.5625 54.566406 121.601562 42.707031 115.246094 31.753906 Z M 115.246094 31.753906 "/>
</g>
</svg>
