<?xml version="1.0" encoding="UTF-8"?>
<svg xmlns="http://www.w3.org/2000/svg" xmlns:xlink="http://www.w3.org/1999/xlink" width="127px" height="128px" viewBox="0 0 127 128" version="1.1">
<g id="surface1">
<path style=" stroke:none;fill-rule:nonzero;fill:rgb(0%,44.313726%,95.294118%);fill-opacity:1;" d="M 63.425781 127.695312 C 98.527344 127.695312 126.847656 99.1875 126.847656 64.074219 C 127 28.8125 98.527344 0.304688 63.425781 0.304688 C 28.472656 0.304688 0 28.8125 0 63.925781 C 0 99.1875 28.472656 127.695312 63.425781 127.695312 Z M 63.425781 127.695312 "/>
<path style=" stroke:none;fill-rule:nonzero;fill:rgb(100%,100%,100%);fill-opacity:1;" d="M 73.519531 25.8125 L 51.222656 25.8125 C 48.8125 25.8125 46.550781 27.613281 46.25 30.164062 L 44.742188 40.367188 L 44.742188 40.515625 L 37.210938 40.515625 C 35.253906 40.515625 33.59375 42.167969 33.59375 44.117188 C 33.59375 46.21875 35.253906 47.71875 37.210938 47.871094 L 43.539062 47.871094 L 42.484375 54.921875 L 42.484375 55.523438 L 34.953125 55.523438 C 32.992188 55.523438 31.335938 57.171875 31.335938 59.125 C 31.335938 61.074219 32.992188 62.722656 34.953125 62.722656 L 41.277344 62.722656 L 37.8125 84.632812 L 36.757812 91.984375 L 36.15625 95.886719 C 35.703125 99.039062 37.964844 101.738281 41.128906 101.738281 L 58 101.738281 C 60.410156 101.738281 62.519531 99.9375 62.972656 97.386719 L 66.136719 77.28125 L 73.96875 77.28125 C 88.132812 77.28125 99.730469 65.574219 99.429688 51.320312 C 99.28125 36.765625 87.527344 25.8125 73.519531 25.8125 Z M 50.921875 47.570312 L 73.519531 47.71875 C 75.476562 47.71875 77.285156 49.371094 77.285156 51.46875 C 77.285156 53.570312 75.628906 55.222656 73.519531 55.222656 L 49.714844 55.222656 Z M 73.667969 69.476562 L 64.328125 69.476562 C 61.917969 69.476562 59.808594 71.277344 59.355469 73.828125 L 56.191406 93.933594 L 43.6875 93.933594 L 48.511719 62.425781 L 73.519531 62.425781 C 79.542969 62.425781 84.515625 57.472656 84.515625 51.46875 C 84.515625 45.46875 79.542969 40.515625 73.519531 40.515625 L 52.125 40.367188 L 53.179688 33.164062 L 73.96875 33.164062 C 84.214844 33.164062 92.351562 41.566406 92.199219 51.769531 C 91.898438 61.675781 83.613281 69.476562 73.667969 69.476562 Z M 73.667969 69.476562 "/>
</g>
</svg>
