<?xml version="1.0" encoding="UTF-8"?>
<svg xmlns="http://www.w3.org/2000/svg" xmlns:xlink="http://www.w3.org/1999/xlink" width="126px" height="128px" viewBox="0 0 126 127" version="1.1">
<g id="surface1">
<path style=" stroke:none;fill-rule:nonzero;fill:rgb(94.117647%,1.960784%,0%);fill-opacity:1;" d="M 92.242188 11.171875 C 88.964844 14.441406 85.964844 17.984375 83.292969 21.757812 L 82.449219 21.484375 C 77.582031 19.902344 72.539062 18.921875 67.457031 18.589844 C 65.925781 18.472656 60.214844 18.472656 58.347656 18.589844 C 52.714844 18.960938 48.398438 19.804688 43.492188 21.503906 C 43.296875 21.582031 43.117188 21.640625 42.941406 21.699219 C 40.175781 17.945312 37.09375 14.421875 33.699219 11.191406 C 49.988281 2.875 69.046875 1.878906 86.101562 8.433594 C 87.925781 9.117188 89.710938 9.921875 91.457031 10.78125 Z M 92.242188 11.171875 "/>
<path style=" stroke:none;fill-rule:nonzero;fill:rgb(94.117647%,1.960784%,0%);fill-opacity:1;" d="M 122.625 85.398438 C 120.152344 92.421875 116.441406 98.9375 111.632812 104.613281 C 109.023438 107.664062 106.140625 110.464844 103.039062 113.007812 C 95.777344 118.839844 87.296875 123.007812 78.25 125.199219 C 68.242188 127.605469 57.800781 127.605469 47.789062 125.199219 C 38.722656 123.007812 30.265625 118.839844 23.003906 113.007812 C 19.902344 110.464844 17.015625 107.664062 14.40625 104.613281 C 0.570312 88.3125 -3.628906 65.925781 3.414062 45.75 C 4.75 42.011719 6.417969 38.414062 8.421875 34.988281 C 9.34375 33.421875 10.480469 31.660156 11.03125 30.9375 C 12.914062 39.019531 15.230469 46.121094 16.09375 48.6875 C 16.035156 48.824219 15.957031 48.980469 15.878906 49.117188 C 11.304688 58.351562 8.832031 67.257812 8.242188 76.726562 C 8.242188 76.84375 8.222656 76.980469 8.222656 77.097656 C 8.066406 79.9375 8.144531 81.289062 8.617188 83.066406 C 10.089844 88.644531 14.621094 94.789062 21.726562 100.816406 C 33.363281 110.679688 49.144531 117.800781 61.097656 118.625 C 73.558594 119.464844 91.949219 112.207031 104.195312 101.597656 C 106.117188 99.898438 107.925781 98.097656 109.613281 96.179688 C 110.828125 94.769531 112.636719 92.34375 112.496094 92.34375 C 112.457031 92.34375 112.496094 92.304688 112.574219 92.265625 C 112.636719 92.226562 112.695312 92.167969 112.65625 92.128906 C 112.636719 92.109375 112.675781 92.050781 112.734375 92.03125 C 112.792969 92.011719 112.832031 91.972656 112.8125 91.933594 C 112.792969 91.894531 112.8125 91.855469 112.890625 91.835938 C 112.949219 91.816406 112.96875 91.757812 112.949219 91.71875 C 112.929688 91.679688 112.949219 91.640625 112.988281 91.640625 C 113.027344 91.640625 113.066406 91.582031 113.066406 91.542969 C 113.066406 91.503906 113.105469 91.441406 113.144531 91.441406 C 113.183594 91.441406 113.222656 91.402344 113.222656 91.363281 C 113.28125 91.207031 113.378906 91.050781 113.480469 90.914062 C 113.773438 90.464844 114.949219 88.371094 115.109375 88.019531 C 116.226562 85.496094 116.933594 83.242188 117.265625 80.992188 C 117.421875 79.917969 117.523438 77.941406 117.445312 77.472656 C 117.421875 77.394531 117.421875 77.257812 117.402344 77.039062 C 117.363281 76.648438 117.34375 76.0625 117.304688 75.476562 C 117.265625 74.59375 117.1875 73.363281 117.128906 72.753906 C 116.285156 63.871094 114.007812 56.609375 109.691406 48.921875 C 109.515625 48.628906 109.355469 48.332031 109.257812 48.097656 C 109.21875 48.039062 109.199219 47.980469 109.179688 47.941406 C 109.789062 46.121094 112.28125 38.511719 114.265625 29.800781 L 114.304688 29.839844 L 114.597656 30.234375 C 115.109375 30.917969 116.460938 32.953125 117.070312 33.929688 C 119.835938 38.433594 121.996094 43.265625 123.527344 48.3125 C 127.078125 60.464844 126.785156 73.421875 122.625 85.398438 Z M 122.625 85.398438 "/>
<path style=" stroke:none;fill-rule:nonzero;fill:rgb(0%,0%,0%);fill-opacity:1;" d="M 97.148438 62.011719 C 97.089844 62.324219 96.167969 63.265625 95.246094 63.949219 C 92.539062 65.925781 87.691406 67.765625 82.765625 68.644531 C 79.957031 69.15625 77.152344 69.234375 76.308594 68.820312 C 75.757812 68.546875 75.679688 68.332031 75.875 67.628906 C 76.289062 66.160156 77.621094 64.554688 79.703125 63.050781 C 80.761719 62.285156 85.058594 59.683594 87.0625 58.585938 C 90.359375 56.789062 93.027344 55.710938 94.835938 55.457031 C 95.402344 55.378906 96.089844 55.359375 96.304688 55.457031 C 96.660156 55.59375 97.050781 56.628906 97.207031 57.882812 C 97.289062 58.546875 97.25 61.484375 97.148438 62.011719 Z M 97.148438 62.011719 "/>
<path style=" stroke:none;fill-rule:nonzero;fill:rgb(0%,0%,0%);fill-opacity:1;" d="M 50.910156 68.488281 C 50.792969 68.722656 50.203125 68.980469 49.535156 69.078125 C 48.871094 69.175781 46.828125 69.117188 45.671875 68.980469 C 41.507812 68.429688 37.09375 67.160156 33.875 65.59375 C 32.070312 64.710938 30.773438 63.832031 29.8125 62.875 L 29.261719 62.304688 L 29.203125 61.5625 C 29.105469 60.269531 29.125 58.234375 29.28125 57.511719 C 29.378906 56.90625 29.597656 56.316406 29.890625 55.789062 C 30.046875 55.59375 30.046875 55.59375 30.753906 55.59375 C 31.617188 55.59375 32.34375 55.730469 33.523438 56.101562 C 35.9375 56.847656 39.527344 58.644531 43.902344 61.269531 C 47.515625 63.421875 48.871094 64.476562 49.910156 65.925781 C 50.617188 66.824219 51.085938 68.097656 50.910156 68.488281 Z M 50.910156 68.488281 "/>
<path style=" stroke:none;fill-rule:nonzero;fill:rgb(0%,0%,0%);fill-opacity:1;" d="M 78.703125 95.730469 C 78.703125 95.789062 78.464844 96.726562 78.171875 97.84375 C 77.878906 98.957031 77.640625 99.859375 77.640625 99.898438 C 77.425781 99.917969 77.230469 99.9375 77.011719 99.917969 L 76.386719 99.917969 L 75.523438 101.953125 C 75.050781 103.066406 74.617188 104.105469 74.558594 104.261719 L 74.441406 104.535156 L 74.03125 103.871094 L 73.617188 103.203125 L 73.617188 97.785156 L 73.460938 97.824219 C 73.128906 97.902344 70.753906 98.214844 69.710938 98.3125 C 65.414062 98.742188 61.097656 98.644531 56.816406 98.039062 C 56.132812 97.941406 55.542969 97.863281 55.523438 97.882812 C 55.503906 97.902344 55.523438 99.152344 55.5625 100.699219 L 55.621094 103.476562 L 55.289062 103.988281 C 55.109375 104.261719 54.933594 104.496094 54.933594 104.515625 C 54.875 104.574219 54.679688 104.261719 54.226562 103.359375 C 53.738281 102.421875 53.382812 101.421875 53.128906 100.386719 L 52.992188 99.820312 L 52.382812 99.859375 L 51.773438 99.917969 L 51.617188 99.191406 C 51.539062 98.800781 51.441406 98.195312 51.402344 97.863281 L 51.34375 97.234375 L 50.832031 96.785156 C 50.539062 96.53125 50.242188 96.277344 50.183594 96.238281 C 50.085938 96.160156 50.046875 96.023438 50.046875 95.90625 L 50.046875 95.671875 L 54.953125 95.710938 L 55.109375 96.21875 L 55.953125 96.257812 C 56.425781 96.277344 57.917969 96.316406 59.25 96.355469 L 61.703125 96.414062 L 62.332031 95.433594 L 62.980469 94.457031 L 63.804688 94.457031 L 63.765625 90.386719 L 62.6875 89.917969 C 59.210938 88.390625 57.171875 86.648438 56.40625 84.535156 C 56.25 84.105469 56.25 83.949219 56.210938 81.992188 C 56.191406 80.054688 56.191406 79.878906 56.328125 79.449219 C 56.601562 78.46875 57.367188 77.707031 58.347656 77.453125 C 58.683594 77.355469 59.566406 77.355469 64.199219 77.355469 L 69.652344 77.375 L 70.261719 77.667969 C 70.988281 78.019531 71.320312 78.273438 71.734375 78.820312 C 72.203125 79.449219 72.34375 79.9375 72.34375 81.128906 C 72.34375 82.832031 72.226562 84.300781 72.046875 84.886719 C 71.792969 85.691406 71.398438 86.453125 70.910156 87.136719 C 69.929688 88.390625 68.140625 89.644531 66.511719 90.210938 L 66.042969 90.386719 L 66.082031 94.496094 L 66.511719 94.535156 L 66.945312 94.574219 L 67.535156 95.453125 L 68.101562 96.335938 L 70.734375 96.335938 C 72.183594 96.335938 73.460938 96.355469 73.578125 96.375 C 73.773438 96.414062 73.8125 96.394531 74.011719 96.0625 L 74.246094 95.710938 L 76.503906 95.710938 C 78.191406 95.632812 78.703125 95.671875 78.703125 95.730469 Z M 78.703125 95.730469 "/>
<path style=" stroke:none;fill-rule:nonzero;fill:rgb(0%,0%,0%);fill-opacity:1;" d="M 68.339844 101.34375 C 67.964844 101.558594 67.710938 101.65625 67.652344 101.617188 C 67.59375 101.597656 67.316406 101.363281 67.023438 101.148438 L 66.492188 100.71875 L 65.945312 101.304688 C 64.746094 102.597656 64.707031 102.65625 64.355469 102.675781 C 63.804688 102.734375 63.6875 102.636719 63.019531 101.636719 C 62.667969 101.128906 62.390625 100.699219 62.390625 100.699219 C 62.390625 100.699219 62.136719 100.660156 61.84375 100.640625 L 61.292969 100.582031 L 61.039062 101.109375 L 60.78125 101.636719 L 60.332031 101.5 C 59.976562 101.382812 59.625 101.246094 59.292969 101.089844 L 58.703125 100.796875 L 58.703125 99.683594 L 63.921875 99.703125 L 69.144531 99.722656 L 69.164062 100.25 C 69.183594 100.875 69.203125 100.855469 68.339844 101.34375 Z M 68.339844 101.34375 "/>
<path style=" stroke:none;fill-rule:nonzero;fill:rgb(100%,100%,100%);fill-opacity:1;" d="M 117.402344 77.472656 C 117.382812 77.394531 117.382812 77.257812 117.363281 77.039062 C 112.65625 76.53125 99.210938 76.21875 86.726562 86.492188 C 86.726562 86.492188 82.703125 68.097656 63.863281 68.097656 C 45.023438 68.097656 38.035156 86.492188 38.035156 86.492188 C 27.476562 75.164062 13.347656 75.984375 8.242188 76.726562 C 8.242188 76.84375 8.222656 76.980469 8.222656 77.097656 C 8.066406 79.9375 8.144531 81.289062 8.617188 83.066406 C 10.089844 88.644531 14.621094 94.789062 21.726562 100.816406 C 33.363281 110.679688 49.144531 117.800781 61.097656 118.625 C 73.558594 119.464844 91.949219 112.207031 104.195312 101.597656 C 106.117188 99.898438 107.925781 98.097656 109.613281 96.179688 C 110.828125 94.769531 112.636719 92.34375 112.496094 92.34375 C 112.457031 92.34375 112.496094 92.304688 112.574219 92.265625 C 112.636719 92.226562 112.695312 92.167969 112.65625 92.128906 C 112.636719 92.109375 112.675781 92.050781 112.734375 92.03125 C 112.792969 92.011719 112.832031 91.972656 112.8125 91.933594 C 112.792969 91.894531 112.8125 91.855469 112.890625 91.835938 C 112.949219 91.816406 112.96875 91.757812 112.949219 91.71875 C 112.929688 91.679688 112.949219 91.640625 112.988281 91.640625 C 113.027344 91.640625 113.066406 91.582031 113.066406 91.542969 C 113.066406 91.503906 113.105469 91.441406 113.144531 91.441406 C 113.183594 91.441406 113.222656 91.402344 113.222656 91.363281 C 113.28125 91.207031 113.378906 91.050781 113.480469 90.914062 C 113.773438 90.464844 114.949219 88.371094 115.109375 88.019531 C 116.226562 85.496094 116.933594 83.242188 117.265625 80.992188 C 117.382812 79.917969 117.484375 77.941406 117.402344 77.472656 Z M 68.339844 101.34375 C 67.964844 101.558594 67.710938 101.65625 67.652344 101.617188 C 67.59375 101.597656 67.316406 101.363281 67.023438 101.148438 L 66.492188 100.71875 L 65.945312 101.304688 C 64.746094 102.597656 64.707031 102.65625 64.355469 102.675781 C 63.804688 102.734375 63.6875 102.636719 63.019531 101.636719 C 62.667969 101.128906 62.390625 100.699219 62.390625 100.699219 C 62.390625 100.699219 62.136719 100.660156 61.84375 100.640625 L 61.292969 100.582031 L 61.039062 101.109375 L 60.78125 101.636719 L 60.332031 101.5 C 59.976562 101.382812 59.625 101.246094 59.292969 101.089844 L 58.703125 100.796875 L 58.703125 99.683594 L 63.921875 99.703125 L 69.144531 99.722656 L 69.164062 100.25 C 69.183594 100.875 69.203125 100.855469 68.339844 101.34375 Z M 78.152344 97.824219 C 77.855469 98.9375 77.621094 99.839844 77.621094 99.878906 C 77.40625 99.898438 77.210938 99.917969 76.992188 99.898438 L 76.367188 99.898438 L 75.523438 101.953125 C 75.050781 103.066406 74.617188 104.105469 74.558594 104.261719 L 74.441406 104.535156 L 74.03125 103.871094 L 73.617188 103.203125 L 73.617188 97.785156 L 73.460938 97.824219 C 73.128906 97.902344 70.753906 98.214844 69.710938 98.3125 C 65.414062 98.742188 61.097656 98.644531 56.816406 98.039062 C 56.132812 97.941406 55.542969 97.863281 55.523438 97.882812 C 55.503906 97.902344 55.523438 99.152344 55.5625 100.699219 L 55.621094 103.476562 L 55.289062 103.988281 C 55.109375 104.261719 54.933594 104.496094 54.933594 104.515625 C 54.875 104.574219 54.679688 104.261719 54.226562 103.359375 C 53.738281 102.421875 53.382812 101.421875 53.128906 100.386719 L 52.992188 99.820312 L 52.382812 99.859375 L 51.773438 99.917969 L 51.617188 99.191406 C 51.539062 98.800781 51.441406 98.195312 51.402344 97.863281 L 51.34375 97.234375 L 50.832031 96.785156 C 50.539062 96.53125 50.242188 96.277344 50.183594 96.238281 C 50.085938 96.160156 50.046875 96.023438 50.046875 95.90625 L 50.046875 95.671875 L 54.953125 95.710938 L 55.109375 96.21875 L 55.953125 96.257812 C 56.425781 96.277344 57.917969 96.316406 59.25 96.355469 L 61.703125 96.414062 L 62.332031 95.433594 L 62.980469 94.457031 L 63.804688 94.457031 L 63.765625 90.386719 L 62.6875 89.917969 C 59.210938 88.390625 57.171875 86.648438 56.40625 84.535156 C 56.25 84.105469 56.25 83.949219 56.210938 81.992188 C 56.191406 80.054688 56.191406 79.878906 56.328125 79.449219 C 56.601562 78.46875 57.367188 77.707031 58.347656 77.453125 C 58.683594 77.355469 59.566406 77.355469 64.199219 77.355469 L 69.652344 77.375 L 70.261719 77.667969 C 70.988281 78.019531 71.320312 78.273438 71.734375 78.820312 C 72.203125 79.449219 72.34375 79.9375 72.34375 81.128906 C 72.34375 82.832031 72.226562 84.300781 72.046875 84.886719 C 71.792969 85.691406 71.398438 86.453125 70.910156 87.136719 C 69.929688 88.390625 68.140625 89.644531 66.511719 90.210938 L 66.042969 90.386719 L 66.082031 94.496094 L 66.511719 94.535156 L 66.945312 94.574219 L 67.535156 95.453125 L 68.101562 96.335938 L 70.734375 96.335938 C 72.183594 96.335938 73.460938 96.355469 73.578125 96.375 C 73.773438 96.414062 73.8125 96.394531 74.011719 96.0625 L 74.246094 95.710938 L 76.503906 95.710938 C 78.25 95.710938 78.761719 95.730469 78.761719 95.789062 C 78.703125 95.769531 78.445312 96.726562 78.152344 97.824219 Z M 78.152344 97.824219 "/>
<path style=" stroke:none;fill-rule:nonzero;fill:rgb(100%,64.313728%,3.529412%);fill-opacity:1;" d="M 117.246094 75.476562 C 117.207031 74.59375 117.128906 73.363281 117.070312 72.753906 C 116.226562 63.871094 113.949219 56.609375 109.632812 48.921875 C 109.457031 48.628906 109.296875 48.332031 109.199219 48.097656 C 109.160156 48.039062 109.140625 47.980469 109.121094 47.941406 C 109.730469 46.121094 112.222656 38.511719 114.203125 29.800781 C 116.894531 17.984375 118.601562 4.167969 113.378906 0.0195312 C 113.378906 0.0195312 104.351562 -0.644531 92.261719 11.171875 C 88.984375 14.441406 85.984375 17.984375 83.3125 21.757812 L 82.46875 21.484375 C 77.601562 19.902344 72.558594 18.921875 67.476562 18.589844 C 65.945312 18.472656 60.234375 18.472656 58.367188 18.589844 C 52.734375 18.960938 48.417969 19.804688 43.511719 21.503906 C 43.316406 21.582031 43.140625 21.640625 42.960938 21.699219 C 40.195312 17.945312 37.113281 14.421875 33.71875 11.191406 C 21.136719 -0.683594 11.777344 0 11.777344 0 C 6.242188 4.285156 8.125 18.726562 10.992188 30.9375 C 12.875 39.019531 15.191406 46.121094 16.054688 48.6875 C 15.996094 48.824219 15.917969 48.980469 15.839844 49.117188 C 11.265625 58.351562 8.792969 67.257812 8.203125 76.726562 C 13.328125 75.984375 27.4375 75.144531 38.015625 86.492188 C 38.015625 86.492188 45.003906 68.097656 63.84375 68.097656 C 82.683594 68.097656 86.707031 86.492188 86.707031 86.492188 C 99.191406 76.21875 112.636719 76.550781 117.34375 77.039062 C 117.324219 76.648438 117.285156 76.0625 117.246094 75.476562 Z M 19.765625 41.308594 C 19.765625 41.308594 12.421875 23.011719 14.308594 12.5625 C 14.621094 10.800781 15.210938 9.253906 16.132812 8.082031 C 16.132812 8.082031 24.453125 8.902344 37.878906 23.773438 C 37.878906 23.773438 35.328125 25.007812 31.914062 27.628906 C 31.914062 27.628906 31.894531 27.648438 31.875 27.648438 C 28.164062 30.488281 23.414062 34.988281 19.765625 41.308594 Z M 50.910156 68.488281 C 50.792969 68.722656 50.203125 68.980469 49.535156 69.078125 C 48.871094 69.175781 46.828125 69.117188 45.671875 68.980469 C 41.507812 68.429688 37.09375 67.160156 33.875 65.59375 C 32.070312 64.710938 30.773438 63.832031 29.8125 62.875 L 29.261719 62.304688 L 29.203125 61.5625 C 29.105469 60.269531 29.125 58.234375 29.28125 57.511719 C 29.378906 56.90625 29.597656 56.316406 29.890625 55.789062 C 30.046875 55.59375 30.046875 55.59375 30.753906 55.59375 C 31.617188 55.59375 32.34375 55.730469 33.523438 56.101562 C 35.9375 56.847656 39.527344 58.644531 43.902344 61.269531 C 47.515625 63.421875 48.871094 64.476562 49.910156 65.925781 C 50.617188 66.824219 51.085938 68.097656 50.910156 68.488281 Z M 97.148438 62.011719 C 97.089844 62.324219 96.167969 63.265625 95.246094 63.949219 C 92.539062 65.925781 87.691406 67.765625 82.765625 68.644531 C 79.957031 69.15625 77.152344 69.234375 76.308594 68.820312 C 75.757812 68.546875 75.679688 68.332031 75.875 67.628906 C 76.289062 66.160156 77.621094 64.554688 79.703125 63.050781 C 80.761719 62.285156 85.058594 59.683594 87.0625 58.585938 C 90.359375 56.789062 93.027344 55.710938 94.835938 55.457031 C 95.402344 55.378906 96.089844 55.359375 96.304688 55.457031 C 96.660156 55.59375 97.050781 56.628906 97.207031 57.882812 C 97.289062 58.546875 97.25 61.484375 97.148438 62.011719 Z M 93.890625 27.628906 L 93.851562 27.609375 C 90.554688 24.988281 88.082031 23.753906 88.082031 23.753906 C 101.054688 8.882812 109.082031 8.0625 109.082031 8.0625 C 109.964844 9.253906 110.535156 10.78125 110.847656 12.542969 C 112.675781 22.992188 105.589844 41.308594 105.589844 41.308594 C 102.625 36.042969 98.640625 31.386719 93.890625 27.628906 Z M 93.890625 27.628906 "/>
<path style=" stroke:none;fill-rule:nonzero;fill:rgb(100%,57.647061%,0%);fill-opacity:1;" d="M 110.867188 12.542969 C 109.335938 12.347656 102.097656 12.308594 93.890625 27.628906 L 93.851562 27.609375 C 90.554688 24.988281 88.082031 23.753906 88.082031 23.753906 C 101.054688 8.882812 109.082031 8.0625 109.082031 8.0625 C 109.984375 9.253906 110.554688 10.78125 110.867188 12.542969 Z M 110.867188 12.542969 "/>
<path style=" stroke:none;fill-rule:nonzero;fill:rgb(100%,51.372552%,0%);fill-opacity:1;" d="M 105.609375 41.308594 C 102.625 36.023438 98.660156 31.386719 93.890625 27.628906 C 102.097656 12.308594 109.316406 12.347656 110.867188 12.542969 C 112.695312 23.011719 105.609375 41.308594 105.609375 41.308594 Z M 105.609375 41.308594 "/>
<path style=" stroke:none;fill-rule:nonzero;fill:rgb(100%,51.372552%,0%);fill-opacity:1;" d="M 111.164062 12.601562 C 111.066406 12.582031 110.964844 12.5625 110.867188 12.542969 Z M 111.164062 12.601562 "/>
<path style=" stroke:none;fill-rule:nonzero;fill:rgb(100%,57.647061%,0%);fill-opacity:1;" d="M 37.878906 23.753906 C 37.878906 23.753906 35.328125 24.988281 31.914062 27.609375 C 31.914062 27.609375 31.894531 27.628906 31.875 27.628906 C 23.375 12.289062 15.898438 12.347656 14.289062 12.542969 C 14.601562 10.78125 15.191406 9.234375 16.113281 8.0625 C 16.132812 8.0625 24.453125 8.882812 37.878906 23.753906 Z M 37.878906 23.753906 "/>
<path style=" stroke:none;fill-rule:nonzero;fill:rgb(100%,51.372552%,0%);fill-opacity:1;" d="M 31.894531 27.628906 C 28.164062 30.488281 23.414062 34.96875 19.765625 41.308594 C 19.765625 41.308594 12.421875 23.011719 14.308594 12.542969 C 15.898438 12.347656 23.394531 12.308594 31.894531 27.628906 Z M 31.894531 27.628906 "/>
<path style=" stroke:none;fill-rule:nonzero;fill:rgb(100%,51.372552%,0%);fill-opacity:1;" d="M 14.308594 12.542969 C 14.210938 12.5625 14.09375 12.582031 13.992188 12.601562 Z M 14.308594 12.542969 "/>
<path style=" stroke:none;fill-rule:nonzero;fill:rgb(100%,100%,100%);fill-opacity:1;" d="M 85.746094 51.464844 C 85.746094 51.464844 79.464844 51.855469 80.25 46.964844 C 81.035156 42.070312 85.945312 41.484375 87.316406 41.679688 C 88.691406 41.875 94.1875 43.832031 93.203125 47.941406 C 92.222656 52.050781 90.851562 51.269531 90.066406 51.464844 C 89.28125 51.660156 85.746094 51.464844 85.746094 51.464844 Z M 85.746094 51.464844 "/>
<path style=" stroke:none;fill-rule:nonzero;fill:rgb(100%,100%,100%);fill-opacity:1;" d="M 39.429688 51.464844 C 39.429688 51.464844 33.148438 51.855469 33.933594 46.964844 C 34.71875 42.070312 39.625 41.484375 41 41.679688 C 42.375 41.875 47.867188 43.832031 46.886719 47.941406 C 45.90625 52.050781 44.53125 51.269531 43.746094 51.464844 C 42.960938 51.660156 39.429688 51.464844 39.429688 51.464844 Z M 39.429688 51.464844 "/>
</g>
</svg>
