<?xml version="1.0" encoding="UTF-8"?>
<svg xmlns="http://www.w3.org/2000/svg" xmlns:xlink="http://www.w3.org/1999/xlink" width="151px" height="128px" viewBox="0 0 151 128" version="1.1">
<g id="surface1">
<path style=" stroke:none;fill-rule:nonzero;fill:rgb(0%,0%,0%);fill-opacity:1;" d="M 129.6875 16.8125 L 111.507812 26.082031 L 23.707031 70.8125 C 23.410156 68.546875 23.261719 66.265625 23.261719 63.980469 C 23.285156 45.433594 33.125 28.289062 49.121094 18.910156 C 65.117188 9.535156 84.878906 9.332031 101.066406 18.375 L 111.472656 13.070312 L 113.027344 12.277344 C 93.585938 -1.835938 67.878906 -3.847656 46.480469 7.0625 C 25.082031 17.976562 11.613281 39.972656 11.613281 64 C 11.613281 65.628906 11.675781 67.25 11.800781 68.863281 C 12.152344 73.539062 9.664062 77.96875 5.488281 80.097656 L 0 82.894531 L 0 95.953125 L 16.15625 87.714844 L 21.390625 85.042969 L 26.542969 82.417969 L 119.101562 35.242188 L 129.503906 29.945312 L 151 18.988281 L 151 5.9375 Z M 129.6875 16.8125 "/>
<path style=" stroke:none;fill-rule:nonzero;fill:rgb(0%,0%,0%);fill-opacity:1;" d="M 151 32.046875 L 31.800781 92.757812 L 21.402344 98.066406 L 0 108.972656 L 0 122.015625 L 21.253906 111.1875 L 39.4375 101.917969 L 127.324219 57.125 C 127.621094 59.402344 127.769531 61.699219 127.769531 64 C 127.757812 82.566406 117.910156 99.738281 101.890625 109.117188 C 85.871094 118.5 66.078125 118.683594 49.886719 109.601562 L 49.25 109.941406 L 37.96875 115.691406 C 57.402344 129.804688 83.105469 131.824219 104.503906 120.917969 C 125.902344 110.011719 139.378906 88.023438 139.386719 64 C 139.386719 62.359375 139.320312 60.714844 139.199219 59.09375 C 138.847656 54.417969 141.332031 49.988281 145.503906 47.859375 L 151 45.058594 Z M 151 32.046875 "/>
</g>
</svg>
