<?xml version="1.0" encoding="UTF-8"?>
<svg xmlns="http://www.w3.org/2000/svg" xmlns:xlink="http://www.w3.org/1999/xlink" width="100px" height="128px" viewBox="0 0 100 128" version="1.1">
<g id="surface1">
<path style=" stroke:none;fill-rule:evenodd;fill:rgb(30.19608%,63.529414%,100%);fill-opacity:1;" d="M 80.035156 53.382812 C 85.234375 59.917969 88.367188 68.214844 88.367188 77.214844 C 88.367188 86.214844 85.167969 94.75 79.800781 101.351562 L 79.332031 101.917969 L 79.199219 101.183594 C 79.101562 100.582031 78.964844 99.949219 78.832031 99.316406 C 76.167969 87.550781 67.433594 77.449219 53.035156 69.25 C 43.332031 63.75 37.765625 57.117188 36.300781 49.582031 C 35.367188 44.714844 36.066406 39.816406 37.398438 35.617188 C 38.765625 31.417969 40.765625 27.917969 42.464844 25.816406 L 48.066406 18.984375 C 49.035156 17.785156 50.898438 17.785156 51.867188 18.984375 Z M 88.867188 46.550781 L 51.398438 0.75 C 50.699219 -0.117188 49.332031 -0.117188 48.632812 0.75 L 11.132812 46.550781 L 11 46.714844 C 4.132812 55.285156 0 66.148438 0 77.984375 C 0 105.550781 22.398438 127.917969 50 127.917969 C 77.601562 127.917969 100 105.550781 100 77.984375 C 100 66.148438 95.867188 55.285156 88.964844 46.714844 Z M 20.101562 53.25 L 23.433594 49.148438 L 23.535156 49.917969 C 23.601562 50.515625 23.699219 51.117188 23.832031 51.714844 C 26 63.082031 33.765625 72.582031 46.699219 79.917969 C 57.964844 86.316406 64.5 93.683594 66.398438 101.785156 C 67.199219 105.148438 67.332031 108.484375 67 111.382812 L 66.964844 111.550781 L 66.800781 111.617188 C 61.734375 114.082031 56 115.484375 49.964844 115.484375 C 28.800781 115.484375 11.632812 98.351562 11.632812 77.214844 C 11.632812 68.148438 14.800781 59.785156 20.101562 53.25 Z M 20.101562 53.25 "/>
</g>
</svg>
