<?xml version="1.0" encoding="UTF-8"?>
<svg xmlns="http://www.w3.org/2000/svg" xmlns:xlink="http://www.w3.org/1999/xlink" width="119px" height="128px" viewBox="0 0 119 124" version="1.1">
<g id="surface1">
<path style=" stroke:none;fill-rule:nonzero;fill:rgb(16.078432%,16.078432%,16.078432%);fill-opacity:1;" d="M 71.886719 95.011719 L 71.886719 44.554688 C 71.886719 31.671875 61.652344 21.472656 48.730469 21.472656 L 48.730469 102.527344 C 48.730469 114.335938 57.882812 124 69.734375 124 C 70.269531 124 70.269531 124 70.808594 124 C 76.195312 124.535156 82.121094 122.925781 86.429688 119.167969 C 72.964844 118.09375 71.886719 110.042969 71.886719 95.011719 Z M 71.886719 95.011719 "/>
<path style=" stroke:none;fill-rule:nonzero;fill:rgb(16.078432%,16.078432%,16.078432%);fill-opacity:1;" d="M 22.339844 0 C 11.027344 0 1.335938 9.664062 1.335938 21.472656 L 96.121094 21.472656 C 107.972656 21.472656 117.125 11.808594 117.125 0 C 117.664062 0 22.339844 0 22.339844 0 Z M 22.339844 0 "/>
</g>
</svg>
