<?xml version="1.0" encoding="UTF-8"?>
<svg xmlns="http://www.w3.org/2000/svg" xmlns:xlink="http://www.w3.org/1999/xlink" width="128px" height="128px" viewBox="0 0 128 128" version="1.1">
<g id="surface1">
<path style=" stroke:none;fill-rule:nonzero;fill:rgb(0%,59.607846%,91.764706%);fill-opacity:1;" d="M 64 128 C 99.429688 128 128 99.429688 128 64 C 128 28.570312 99.429688 0 64 0 C 28.570312 0 0 28.570312 0 64 C 0 99.429688 28.570312 128 64 128 Z M 64 128 "/>
<path style=" stroke:none;fill-rule:nonzero;fill:rgb(100%,100%,100%);fill-opacity:1;" d="M 85.941406 35.65625 L 42.058594 35.65625 C 34.058594 35.65625 29.027344 44.34375 32.914062 51.429688 L 59.886719 98.285156 C 61.714844 101.257812 66.058594 101.257812 67.886719 98.285156 L 94.855469 51.429688 C 98.972656 44.34375 93.941406 35.65625 85.941406 35.65625 Z M 60.113281 84.113281 L 54.171875 72.6875 L 40 47.3125 C 39.085938 45.714844 40.230469 43.65625 42.285156 43.65625 L 60.113281 43.65625 Z M 88 47.3125 L 73.828125 72.6875 L 67.886719 84.113281 L 67.886719 43.65625 L 85.714844 43.65625 C 87.769531 43.65625 88.914062 45.714844 88 47.3125 Z M 88 47.3125 "/>
</g>
</svg>
