<?xml version="1.0" encoding="UTF-8"?>
<svg xmlns="http://www.w3.org/2000/svg" xmlns:xlink="http://www.w3.org/1999/xlink" width="111px" height="128px" viewBox="0 0 111 128" version="1.1">
<g id="surface1">
<path style=" stroke:none;fill-rule:nonzero;fill:rgb(100%,0%,47.843137%);fill-opacity:1;" d="M 43.53125 29.226562 C 42.144531 29.027344 42.078125 28.960938 42.738281 28.894531 C 43.992188 28.699219 46.894531 28.960938 48.9375 29.421875 C 53.6875 30.542969 57.972656 33.441406 62.523438 38.511719 L 63.710938 39.894531 L 65.425781 39.632812 C 72.746094 38.445312 80.265625 39.367188 86.53125 42.265625 C 88.246094 43.054688 90.949219 44.636719 91.28125 45.03125 C 91.410156 45.164062 91.609375 46.019531 91.742188 46.875 C 92.203125 49.972656 92.003906 52.277344 91.015625 54.054688 C 90.488281 55.042969 90.488281 55.304688 90.816406 56.164062 C 91.082031 56.820312 91.875 57.28125 92.597656 57.28125 C 94.183594 57.28125 95.832031 54.78125 96.621094 51.289062 L 96.953125 49.90625 L 97.546875 50.5625 C 100.910156 54.316406 103.546875 59.519531 103.941406 63.210938 L 104.074219 64.199219 L 103.480469 63.339844 C 102.492188 61.828125 101.570312 60.839844 100.316406 59.984375 C 98.074219 58.46875 95.699219 58.007812 89.433594 57.675781 C 83.761719 57.347656 80.53125 56.886719 77.363281 55.832031 C 71.957031 54.054688 69.183594 51.75 62.789062 43.253906 C 59.953125 39.5 58.171875 37.457031 56.390625 35.746094 C 52.5 31.992188 48.609375 30.015625 43.53125 29.226562 Z M 43.53125 29.226562 "/>
<path style=" stroke:none;fill-rule:nonzero;fill:rgb(100%,0%,47.843137%);fill-opacity:1;" d="M 92.664062 37.589844 C 92.796875 35.085938 93.125 33.441406 93.851562 31.925781 C 94.117188 31.332031 94.378906 30.804688 94.445312 30.804688 C 94.511719 30.804688 94.378906 31.265625 94.183594 31.792969 C 93.652344 33.242188 93.589844 35.285156 93.917969 37.589844 C 94.378906 40.554688 94.578125 40.949219 97.742188 44.175781 C 99.195312 45.691406 100.910156 47.601562 101.570312 48.390625 L 102.691406 49.839844 L 101.570312 48.785156 C 100.183594 47.46875 97.019531 44.964844 96.292969 44.636719 C 95.832031 44.375 95.765625 44.375 95.433594 44.703125 C 95.171875 44.964844 95.105469 45.359375 95.105469 47.269531 C 95.039062 50.234375 94.644531 52.078125 93.652344 53.988281 C 93.125 54.976562 93.0625 54.78125 93.523438 53.660156 C 93.851562 52.804688 93.917969 52.410156 93.917969 49.578125 C 93.917969 43.847656 93.257812 42.464844 89.234375 40.15625 C 88.246094 39.566406 86.53125 38.710938 85.542969 38.25 C 84.488281 37.785156 83.695312 37.390625 83.761719 37.390625 C 83.894531 37.261719 87.785156 38.378906 89.300781 39.039062 C 91.609375 39.960938 92.003906 40.027344 92.269531 39.960938 C 92.46875 39.761719 92.597656 39.234375 92.664062 37.589844 Z M 92.664062 37.589844 "/>
<path style=" stroke:none;fill-rule:nonzero;fill:rgb(100%,0%,47.843137%);fill-opacity:1;" d="M 46.234375 47.402344 C 43.464844 43.582031 41.683594 37.65625 42.078125 33.242188 L 42.210938 31.859375 L 42.871094 31.992188 C 44.058594 32.1875 46.101562 32.980469 47.089844 33.570312 C 49.730469 35.152344 50.917969 37.324219 52.039062 42.726562 C 52.367188 44.308594 52.828125 46.152344 53.027344 46.746094 C 53.355469 47.730469 54.609375 50.039062 55.664062 51.484375 C 56.390625 52.539062 55.929688 53.066406 54.28125 52.933594 C 51.773438 52.671875 48.410156 50.367188 46.234375 47.402344 Z M 46.234375 47.402344 "/>
<path style=" stroke:none;fill-rule:nonzero;fill:rgb(100%,0%,47.843137%);fill-opacity:1;" d="M 89.300781 76.050781 C 76.242188 70.785156 71.625 66.238281 71.625 58.535156 C 71.625 57.414062 71.691406 56.492188 71.691406 56.492188 C 71.757812 56.492188 72.21875 56.886719 72.8125 57.347656 C 75.449219 59.457031 78.417969 60.378906 86.664062 61.5625 C 91.476562 62.289062 94.246094 62.816406 96.753906 63.671875 C 104.734375 66.304688 109.679688 71.707031 110.867188 79.015625 C 111.199219 81.125 111 85.140625 110.472656 87.25 C 110.011719 88.894531 108.691406 91.925781 108.363281 91.992188 C 108.296875 91.992188 108.164062 91.660156 108.164062 91.136719 C 108.03125 88.367188 106.648438 85.734375 104.339844 83.691406 C 101.570312 81.320312 98.007812 79.542969 89.300781 76.050781 Z M 89.300781 76.050781 "/>
<path style=" stroke:none;fill-rule:nonzero;fill:rgb(100%,0%,47.843137%);fill-opacity:1;" d="M 80.066406 78.226562 C 79.9375 77.238281 79.605469 75.988281 79.40625 75.460938 L 79.078125 74.472656 L 79.671875 75.195312 C 80.53125 76.183594 81.1875 77.371094 81.78125 79.015625 C 82.246094 80.269531 82.246094 80.664062 82.246094 82.703125 C 82.246094 84.679688 82.179688 85.140625 81.78125 86.261719 C 81.121094 88.039062 80.332031 89.289062 79.011719 90.675781 C 76.636719 93.109375 73.539062 94.429688 69.121094 95.019531 C 68.328125 95.085938 66.085938 95.285156 64.105469 95.417969 C 59.160156 95.679688 55.863281 96.207031 52.894531 97.261719 C 52.5 97.390625 52.101562 97.523438 52.039062 97.457031 C 51.90625 97.324219 53.949219 96.140625 55.597656 95.351562 C 57.90625 94.230469 60.28125 93.636719 65.492188 92.714844 C 68.0625 92.320312 70.703125 91.792969 71.363281 91.53125 C 77.890625 89.488281 81.121094 84.417969 80.066406 78.226562 Z M 80.066406 78.226562 "/>
<path style=" stroke:none;fill-rule:nonzero;fill:rgb(100%,0%,47.843137%);fill-opacity:1;" d="M 86.070312 88.828125 C 84.355469 85.074219 83.960938 81.519531 84.882812 78.160156 C 85.015625 77.832031 85.144531 77.5 85.277344 77.5 C 85.410156 77.5 85.804688 77.699219 86.203125 77.960938 C 86.992188 78.488281 88.640625 79.410156 92.863281 81.71875 C 98.203125 84.613281 101.238281 86.855469 103.347656 89.421875 C 105.195312 91.660156 106.316406 94.230469 106.84375 97.390625 C 107.175781 99.171875 106.976562 103.453125 106.515625 105.230469 C 105.0625 110.828125 101.765625 115.304688 96.953125 117.875 C 96.226562 118.269531 95.632812 118.535156 95.566406 118.535156 C 95.5 118.535156 95.765625 117.875 96.160156 117.085938 C 97.742188 113.726562 97.941406 110.5 96.753906 106.875 C 96.027344 104.636719 94.511719 101.9375 91.476562 97.390625 C 87.851562 92.121094 86.992188 90.738281 86.070312 88.828125 Z M 86.070312 88.828125 "/>
<path style=" stroke:none;fill-rule:nonzero;fill:rgb(100%,0%,47.843137%);fill-opacity:1;" d="M 36.933594 108.984375 C 41.816406 104.898438 47.816406 102.003906 53.355469 101.082031 C 55.730469 100.683594 59.6875 100.816406 61.863281 101.410156 C 65.359375 102.332031 68.527344 104.308594 70.175781 106.746094 C 71.757812 109.117188 72.484375 111.15625 73.207031 115.703125 C 73.472656 117.480469 73.800781 119.324219 73.867188 119.71875 C 74.394531 122.089844 75.449219 123.933594 76.769531 124.921875 C 78.816406 126.4375 82.375 126.503906 85.871094 125.1875 C 86.464844 124.988281 86.992188 124.789062 86.992188 124.855469 C 87.125 124.988281 85.34375 126.171875 84.15625 126.765625 C 82.507812 127.621094 81.1875 127.886719 79.40625 127.886719 C 76.242188 127.886719 73.539062 126.238281 71.363281 122.945312 C 70.898438 122.289062 69.976562 120.378906 69.183594 118.597656 C 66.878906 113.265625 65.691406 111.683594 62.984375 109.90625 C 60.613281 108.390625 57.578125 108.0625 55.269531 109.179688 C 52.234375 110.628906 51.445312 114.515625 53.554688 116.886719 C 54.410156 117.875 55.996094 118.664062 57.3125 118.863281 C 59.753906 119.191406 61.863281 117.28125 61.863281 114.84375 C 61.863281 113.265625 61.269531 112.34375 59.6875 111.617188 C 57.578125 110.695312 55.269531 111.75 55.335938 113.792969 C 55.335938 114.648438 55.730469 115.175781 56.589844 115.570312 C 57.117188 115.832031 57.117188 115.832031 56.71875 115.765625 C 54.808594 115.371094 54.347656 113 55.863281 111.488281 C 57.710938 109.640625 61.601562 110.433594 62.917969 113 C 63.449219 114.054688 63.511719 116.164062 63.050781 117.480469 C 61.929688 120.378906 58.765625 121.890625 55.53125 121.035156 C 53.355469 120.445312 52.433594 119.851562 49.796875 117.152344 C 45.179688 112.410156 43.398438 111.488281 36.800781 110.5 L 35.550781 110.300781 Z M 36.933594 108.984375 "/>
<path style=" stroke:none;fill-rule:evenodd;fill:rgb(100%,0%,47.843137%);fill-opacity:1;" d="M 2.242188 3.011719 C 17.609375 21.652344 41.285156 50.628906 42.472656 52.210938 C 43.464844 53.527344 43.066406 54.78125 41.417969 55.703125 C 40.496094 56.226562 38.582031 56.753906 37.660156 56.753906 C 36.605469 56.753906 35.351562 56.226562 34.492188 55.371094 C 33.898438 54.78125 31.328125 51.023438 25.523438 42.003906 C 21.105469 35.085938 17.347656 29.355469 17.28125 29.289062 C 17.015625 29.160156 17.015625 29.160156 25.0625 43.515625 C 30.140625 52.539062 31.789062 55.765625 31.789062 56.164062 C 31.789062 57.019531 31.527344 57.480469 30.46875 58.664062 C 28.691406 60.640625 27.898438 62.878906 27.304688 67.554688 C 26.644531 72.757812 24.863281 76.449219 19.785156 82.703125 C 16.816406 86.394531 16.355469 87.050781 15.632812 88.566406 C 14.707031 90.410156 14.445312 91.464844 14.3125 93.835938 C 14.179688 96.339844 14.445312 97.917969 15.167969 100.289062 C 15.828125 102.398438 16.554688 103.78125 18.335938 106.480469 C 19.851562 108.851562 20.777344 110.628906 20.777344 111.289062 C 20.777344 111.816406 20.90625 111.816406 23.28125 111.289062 C 28.953125 109.972656 33.636719 107.730469 36.207031 104.964844 C 37.792969 103.253906 38.1875 102.332031 38.1875 99.960938 C 38.1875 98.445312 38.121094 98.117188 37.726562 97.195312 C 37.066406 95.746094 35.8125 94.558594 33.109375 92.714844 C 29.546875 90.277344 28.03125 88.304688 27.632812 85.667969 C 27.304688 83.429688 27.699219 81.914062 29.679688 77.765625 C 31.722656 73.484375 32.25 71.707031 32.582031 67.359375 C 32.777344 64.59375 33.109375 63.472656 33.898438 62.617188 C 34.757812 61.695312 35.484375 61.367188 37.527344 61.101562 C 40.890625 60.640625 43.066406 59.785156 44.78125 58.136719 C 46.300781 56.753906 46.960938 55.371094 47.023438 53.332031 L 47.089844 51.816406 L 46.234375 50.894531 C 43.132812 47.335938 0.199219 0.179688 0 0.179688 C -0.0664062 0.179688 0.988281 1.429688 2.242188 3.011719 Z M 22.488281 96.667969 C 23.214844 95.417969 22.820312 93.835938 21.632812 93.046875 C 20.511719 92.320312 18.796875 92.648438 18.796875 93.636719 C 18.796875 93.902344 18.929688 94.164062 19.324219 94.296875 C 19.917969 94.625 19.984375 94.953125 19.523438 95.679688 C 19.0625 96.402344 19.0625 97.0625 19.652344 97.523438 C 20.578125 98.25 21.832031 97.851562 22.488281 96.667969 Z M 22.488281 96.667969 "/>
<path style=" stroke:none;fill-rule:evenodd;fill:rgb(100%,0%,47.843137%);fill-opacity:1;" d="M 49.203125 62.023438 C 47.617188 62.484375 46.101562 64.199219 45.640625 65.910156 C 45.375 66.964844 45.507812 68.875 45.96875 69.464844 C 46.695312 70.386719 47.355469 70.652344 49.203125 70.652344 C 52.828125 70.652344 55.929688 69.070312 56.257812 67.160156 C 56.589844 65.582031 55.203125 63.40625 53.289062 62.417969 C 52.300781 61.890625 50.257812 61.695312 49.203125 62.023438 Z M 53.421875 65.316406 C 53.949219 64.527344 53.753906 63.671875 52.761719 63.078125 C 50.980469 61.957031 48.277344 62.878906 48.277344 64.59375 C 48.277344 65.449219 49.664062 66.371094 50.980469 66.371094 C 51.839844 66.371094 53.027344 65.84375 53.421875 65.316406 Z M 53.421875 65.316406 "/>
</g>
</svg>
