<?xml version="1.0" encoding="UTF-8"?>
<svg xmlns="http://www.w3.org/2000/svg" xmlns:xlink="http://www.w3.org/1999/xlink" width="128px" height="128px" viewBox="0 0 128 128" version="1.1">
<defs>
<radialGradient id="radial0" gradientUnits="userSpaceOnUse" cx="-105.9487" cy="595.937683" fx="-105.9487" fy="595.937683" r="1" gradientTransform="matrix(0.000000000000025176,411.151001,289.408997,-0.000000000000017721,-172270.75,43621.417969)">
<stop offset="0.03125" style="stop-color:rgb(22.745098%,22.745098%,22.745098%);stop-opacity:0.698039;"/>
<stop offset="1" style="stop-color:rgb(10.980392%,10.980392%,10.980392%);stop-opacity:0.698039;"/>
</radialGradient>
<linearGradient id="linear0" gradientUnits="userSpaceOnUse" x1="198.574493" y1="399.142914" x2="198.574493" y2="1.994" gradientTransform="matrix(1,0,0,-1,0,399.142914)">
<stop offset="0" style="stop-color:rgb(100%,100%,100%);stop-opacity:1;"/>
<stop offset="1" style="stop-color:rgb(6.666667%,6.666667%,6.666667%);stop-opacity:1;"/>
</linearGradient>
</defs>
<g id="surface1">
<path style="fill-rule:nonzero;fill:rgb(6.666667%,6.666667%,6.666667%);fill-opacity:1;stroke-width:7.0536;stroke-linecap:butt;stroke-linejoin:miter;stroke:rgb(6.666667%,6.666667%,6.666667%);stroke-opacity:1;stroke-miterlimit:4;" d="M 198.598477 7.101459 C 304.405367 7.101459 390.095495 92.803706 390.095495 198.598477 C 390.095495 304.2963 304.405367 390.095495 198.598477 390.095495 C 92.803706 390.095495 7.101459 304.2963 7.101459 198.598477 C 7.101459 92.803706 92.803706 7.101459 198.598477 7.101459 Z M 198.598477 7.101459 " transform="matrix(0.322337,0,0,0.322337,0,0)"/>
<path style="fill-rule:nonzero;fill:url(#radial0);stroke-width:7.1429;stroke-linecap:butt;stroke-linejoin:miter;stroke:url(#linear0);stroke-miterlimit:4;" d="M 198.598477 3.599204 C 90.901097 3.599204 3.599204 90.901097 3.599204 198.598477 C 3.599204 306.295857 90.901097 393.597751 198.598477 393.597751 C 306.295857 393.597751 393.597751 306.295857 393.597751 198.598477 C 393.597751 90.901097 306.295857 3.599204 198.598477 3.599204 Z M 198.598477 3.599204 " transform="matrix(0.322337,0,0,0.322337,0,0)"/>
<path style=" stroke:none;fill-rule:evenodd;fill:rgb(100%,100%,100%);fill-opacity:1;" d="M 53.960938 12.28125 C 29.6875 16.953125 11.347656 38.324219 11.347656 63.953125 C 11.347656 89.578125 29.6875 110.949219 53.960938 115.621094 L 53.960938 110.691406 C 32.363281 106.082031 16.179688 86.902344 16.179688 63.953125 C 16.179688 41 32.363281 21.820312 53.960938 17.210938 Z M 74.074219 17.246094 L 74.074219 12.3125 C 98.3125 17.019531 116.589844 38.359375 116.589844 63.953125 C 116.589844 89.546875 98.3125 110.882812 74.074219 115.589844 L 74.074219 110.660156 C 95.605469 106.015625 111.753906 86.871094 111.753906 63.953125 C 111.753906 41.035156 95.605469 21.886719 74.074219 17.246094 Z M 74.074219 17.246094 "/>
<path style=" stroke:none;fill-rule:nonzero;fill:rgb(100%,100%,100%);fill-opacity:1;" d="M 71.460938 62.210938 C 75.492188 62.984375 78.585938 64.46875 80.808594 66.628906 C 83.035156 68.753906 84.128906 71.496094 84.128906 74.8125 L 84.128906 80.070312 C 84.128906 84.066406 82.679688 87.289062 79.8125 89.738281 C 76.941406 92.15625 73.136719 93.347656 68.464844 93.347656 L 66.851562 93.347656 L 66.851562 101.699219 L 61.308594 101.699219 L 61.308594 93.347656 L 59.601562 93.347656 C 56.503906 93.347656 53.796875 92.671875 51.414062 91.285156 C 49.058594 89.867188 47.191406 87.902344 45.867188 85.386719 C 44.578125 82.808594 43.933594 79.875 43.933594 76.523438 L 49.480469 76.523438 C 49.480469 79.90625 50.414062 82.679688 52.25 84.808594 C 54.152344 86.871094 56.667969 87.933594 59.730469 87.933594 L 68.304688 87.933594 C 71.332031 87.933594 73.78125 87.222656 75.652344 85.804688 C 77.488281 84.324219 78.425781 82.421875 78.425781 80.070312 L 78.425781 74.8125 C 78.425781 72.945312 77.714844 71.367188 76.328125 70.042969 C 74.976562 68.722656 73.136719 67.882812 70.785156 67.496094 L 56.890625 65.046875 C 52.992188 64.339844 49.929688 62.855469 47.769531 60.632812 C 45.609375 58.375 44.515625 55.570312 44.515625 52.1875 L 44.515625 47.769531 C 44.515625 43.773438 45.902344 40.613281 48.671875 38.261719 C 51.507812 35.84375 55.25 34.652344 59.859375 34.652344 L 61.242188 34.652344 L 61.242188 26.300781 L 66.789062 26.300781 L 66.789062 34.652344 L 68.5625 34.652344 C 72.945312 34.652344 76.457031 36.070312 79.132812 38.90625 C 81.808594 41.679688 83.164062 45.386719 83.164062 49.960938 L 77.617188 49.960938 C 77.617188 46.964844 76.78125 44.546875 75.136719 42.742188 C 73.492188 40.9375 71.300781 40.035156 68.5625 40.035156 L 59.824219 40.035156 C 56.890625 40.035156 54.539062 40.742188 52.796875 42.160156 C 51.058594 43.515625 50.1875 45.386719 50.1875 47.738281 L 50.1875 52.152344 C 50.1875 54.054688 50.832031 55.667969 52.121094 56.988281 C 53.476562 58.3125 55.28125 59.179688 57.601562 59.601562 Z M 71.460938 62.210938 "/>
</g>
</svg>
