<?xml version="1.0" encoding="UTF-8"?>
<svg xmlns="http://www.w3.org/2000/svg" xmlns:xlink="http://www.w3.org/1999/xlink" width="147px" height="128px" viewBox="0 0 147 128" version="1.1">
<g id="surface1">
<path style=" stroke:none;fill-rule:evenodd;fill:rgb(31.37255%,68.627453%,58.431375%);fill-opacity:1;" d="M 26.914062 0.652344 L 0.113281 56.984375 C -0.0976562 57.417969 -0.00390625 57.933594 0.347656 58.261719 L 72.734375 127.667969 C 73.164062 128.078125 73.835938 128.078125 74.265625 127.667969 L 146.652344 58.265625 C 147.003906 57.9375 147.097656 57.421875 146.886719 56.992188 L 120.085938 0.65625 C 119.90625 0.269531 119.519531 0.0195312 119.097656 0.0234375 L 27.910156 0.0234375 C 27.484375 0.015625 27.09375 0.261719 26.914062 0.652344 Z M 26.914062 0.652344 "/>
<path style=" stroke:none;fill-rule:evenodd;fill:rgb(100%,100%,100%);fill-opacity:1;" d="M 82.800781 62.769531 C 82.28125 62.808594 79.59375 62.972656 73.605469 62.972656 C 68.84375 62.972656 65.460938 62.828125 64.273438 62.769531 C 45.863281 61.960938 32.121094 58.753906 32.121094 54.914062 C 32.121094 51.074219 45.863281 47.871094 64.273438 47.050781 L 64.273438 59.578125 C 65.476562 59.664062 68.925781 59.867188 73.6875 59.867188 C 79.40625 59.867188 82.269531 59.628906 82.78125 59.582031 L 82.78125 47.058594 C 101.152344 47.878906 114.867188 51.085938 114.867188 54.914062 C 114.867188 58.746094 101.160156 61.953125 82.78125 62.765625 Z M 82.800781 45.761719 L 82.800781 34.550781 L 108.4375 34.550781 L 108.4375 17.457031 L 38.636719 17.457031 L 38.636719 34.550781 L 64.269531 34.550781 L 64.269531 45.757812 C 43.433594 46.714844 27.765625 50.847656 27.765625 55.792969 C 27.765625 60.742188 43.433594 64.867188 64.269531 65.832031 L 64.269531 101.753906 L 82.796875 101.753906 L 82.796875 65.816406 C 103.582031 64.859375 119.226562 60.734375 119.226562 55.789062 C 119.226562 50.847656 103.597656 46.71875 82.796875 45.757812 Z M 82.800781 45.761719 Z M 82.800781 45.761719 "/>
</g>
</svg>
