<?xml version="1.0" encoding="UTF-8"?>
<svg xmlns="http://www.w3.org/2000/svg" xmlns:xlink="http://www.w3.org/1999/xlink" width="147px" height="128px" viewBox="0 0 147 128" version="1.1">
<defs>
<linearGradient id="linear0" gradientUnits="userSpaceOnUse" x1="4846.22998" y1="-4671.459961" x2="13324.839844" y2="-4671.459961" gradientTransform="matrix(0.0168001,0,0,-0.0168285,-83.672573,-16.859756)">
<stop offset="0" style="stop-color:rgb(84.705882%,70.196078%,36.470588%);stop-opacity:1;"/>
<stop offset="1" style="stop-color:rgb(96.078431%,90.588235%,74.901961%);stop-opacity:1;"/>
</linearGradient>
</defs>
<g id="surface1">
<path style=" stroke:none;fill-rule:evenodd;fill:url(#linear0);" d="M 26.976562 0.652344 L 0.1875 57.003906 C -0.03125 57.425781 0.0585938 57.941406 0.40625 58.261719 L 72.71875 127.710938 C 73.152344 128.097656 73.804688 128.097656 74.238281 127.710938 L 146.59375 58.261719 C 146.9375 57.9375 147.027344 57.425781 146.8125 57.003906 L 120.023438 0.652344 C 119.875 0.25 119.488281 -0.0117188 119.0625 0 L 27.929688 0 C 27.507812 0.0117188 27.132812 0.265625 26.96875 0.652344 Z M 26.976562 0.652344 "/>
<path style=" stroke:none;fill-rule:evenodd;fill:rgb(100%,100%,100%);fill-opacity:1;" d="M 82.804688 62.769531 C 82.285156 62.8125 79.601562 62.988281 73.628906 62.988281 C 68.871094 62.988281 65.492188 62.855469 64.28125 62.769531 C 45.890625 61.949219 32.171875 58.738281 32.171875 54.921875 C 32.171875 51.109375 45.890625 47.859375 64.28125 47.035156 L 64.28125 59.5625 C 65.480469 59.648438 68.914062 59.867188 73.671875 59.867188 C 79.386719 59.867188 82.242188 59.605469 82.761719 59.5625 L 82.761719 47.035156 C 101.109375 47.859375 114.828125 51.066406 114.828125 54.878906 C 114.828125 58.691406 101.148438 61.949219 82.804688 62.769531 Z M 82.804688 45.777344 L 82.804688 34.550781 L 108.425781 34.550781 L 108.425781 17.425781 L 38.664062 17.425781 L 38.664062 34.550781 L 64.28125 34.550781 L 64.28125 45.777344 C 43.464844 46.738281 27.800781 50.847656 27.800781 55.835938 C 27.800781 60.820312 43.464844 64.894531 64.28125 65.890625 L 64.28125 101.828125 L 82.804688 101.828125 L 82.804688 65.890625 C 103.578125 64.929688 119.203125 60.816406 119.203125 55.878906 C 119.203125 50.9375 103.578125 46.730469 82.804688 45.78125 Z M 82.804688 45.777344 "/>
</g>
</svg>
