<?xml version="1.0" encoding="UTF-8"?>
<svg xmlns="http://www.w3.org/2000/svg" xmlns:xlink="http://www.w3.org/1999/xlink" width="128px" height="128px" viewBox="0 0 128 128" version="1.1">
<defs>
<linearGradient id="linear0" gradientUnits="userSpaceOnUse" x1="782.840027" y1="165.910004" x2="799.340027" y2="165.910004" gradientTransform="matrix(4.431716,-4.431716,4.431716,4.431716,-4176.292,2835.049)">
<stop offset="0" style="stop-color:rgb(81.176471%,52.941176%,14.117647%);stop-opacity:1;"/>
<stop offset="1" style="stop-color:rgb(99.215686%,80.784314%,34.509804%);stop-opacity:1;"/>
</linearGradient>
</defs>
<g id="surface1">
<path style=" stroke:none;fill-rule:nonzero;fill:url(#linear0);" d="M 64.667969 117.636719 C 35.503906 117.636719 11.699219 93.808594 11.699219 64.667969 C 11.699219 35.503906 35.527344 11.699219 64.667969 11.699219 C 93.832031 11.699219 117.636719 35.527344 117.636719 64.667969 C 117.636719 93.832031 93.832031 117.636719 64.667969 117.636719 Z M 64.667969 117.636719 "/>
<path style=" stroke:none;fill-rule:nonzero;fill:rgb(0%,0%,0%);fill-opacity:1;" d="M 64 128 C 28.800781 128 0 99.199219 0 64 C 0 28.800781 28.800781 0 64 0 C 99.199219 0 128 28.800781 128 64 C 128 99.199219 99.199219 128 64 128 Z M 64 14.230469 C 36.628906 14.230469 14.230469 36.628906 14.230469 64 C 14.230469 91.371094 36.628906 113.769531 64 113.769531 C 91.371094 113.769531 113.769531 91.371094 113.769531 64 C 113.769531 36.628906 91.371094 14.230469 64 14.230469 Z M 64 14.230469 "/>
<path style=" stroke:none;fill-rule:nonzero;fill:rgb(0%,0%,0%);fill-opacity:1;" d="M 62.519531 81.335938 L 90.25 81.335938 L 90.25 95.203125 L 73.886719 95.203125 L 73.886719 106.9375 L 59.65625 106.9375 L 59.65625 95.566406 L 42.589844 95.566406 C 42.589844 90.9375 41.886719 86.328125 42.953125 82.0625 C 43.316406 79.929688 45.789062 77.796875 47.585938 75.664062 C 52.917969 69.261719 58.25 62.863281 63.949219 56.464844 C 66.082031 53.964844 68.214844 51.832031 70.710938 48.996094 L 44.046875 48.996094 L 44.046875 35.128906 L 59.679688 35.128906 L 59.679688 23.398438 L 73.546875 23.398438 L 73.546875 34.765625 L 90.613281 34.765625 C 90.613281 39.394531 91.316406 44 90.25 48.269531 C 89.886719 50.402344 87.414062 52.535156 85.621094 54.667969 C 80.289062 61.066406 74.953125 67.46875 69.257812 73.867188 C 67.125 76.367188 64.992188 78.839844 62.519531 81.335938 Z M 62.519531 81.335938 "/>
</g>
</svg>
